<?xml version="1.0" encoding="UTF-8" standalone="no"?>
<!-- Created with Inkscape (http://www.inkscape.org/) -->

<svg
   xmlns:dc="http://purl.org/dc/elements/1.1/"
   xmlns:cc="http://creativecommons.org/ns#"
   xmlns:rdf="http://www.w3.org/1999/02/22-rdf-syntax-ns#"
   xmlns:svg="http://www.w3.org/2000/svg"
   xmlns="http://www.w3.org/2000/svg"
   xmlns:xlink="http://www.w3.org/1999/xlink"
   version="1.1"
   width="1357"
   height="574"
   viewBox="0 0 1357 574"
   id="Layer_1"
   xml:space="preserve"><metadata
   id="metadata221"><rdf:RDF><cc:Work
       rdf:about=""><dc:format>image/svg+xml</dc:format><dc:type
         rdf:resource="http://purl.org/dc/dcmitype/StillImage" /><dc:title></dc:title></cc:Work></rdf:RDF></metadata><defs
   id="defs219">
		
		
		
		
		
		
		
		
		
		
		
		
		
		
		
		
		
		
		
		
		
	</defs>
<g
   id="g3">
	<defs
   id="defs5">
		<rect
   width="1357.969"
   height="573.73999"
   x="0"
   y="0"
   id="SVGID_1_" />
	</defs>
	<clipPath
   id="SVGID_2_">
		<use
   id="use9"
   style="overflow:visible"
   x="0"
   y="0"
   width="1357"
   height="574"
   xlink:href="#SVGID_1_" />
	</clipPath>
	<path
   d="m 1473.0381,236.85371 v -510.288 h -187.346 l 65.225,176.100999 h -126.187 -0.667 l 30.385,-114.459999 16.357,-61.641 h -10.966 l -12.905,48.6 -29.938,112.737 -44.032,-155.684 -1.606,-5.653 h -11.064 l 15.558,54.935 34.314,121.165999 h -0.614 -128.274 c 9.666,-26.641999 44.046,-121.664999 63.751,-176.100999 H 792.08914 l 66.632,176.100999 h -129.833 -0.631 l 32.877,-119.956999 15.408,-56.144 h -10.991 l -12.011,43.804 -25.854,94.263 -25.809,-94.094 -12.012,-43.805 h -10.989 l 15.405,56.145 32.877,119.955999 h -0.629 -129.834 l 66.635,-176.100999 h -352.944 c 19.707,54.437 54.085,149.46 63.752,176.100999 h -128.274 -0.613 l 34.314,-121.164999 15.559,-54.936 h -11.066 l -1.605,5.653 -44.032,155.685 -29.938,-112.737 -12.904,-48.601 h -10.967 l 16.356,61.642 30.386,114.458999 h -0.666 -126.19 l 65.225,-176.100999 H -17.620863 v 510.289 L 100.59614,-86.556291 h 130.04 L -16.201863,582.57571 h -1.419 v 1.533 H 728.21714 v -0.168 h 744.82096 v -1.535 h -1.421 l -246.838,-669.131001 h 130.041 l 118.218,323.579001 z M 378.01314,-86.556291 l 100.577,272.113001 -66.998,184.54 -0.009,-0.064 -0.256,0.606 -165.502,-457.195001 h 132.188 z m -29.863,669.132001 c 3.733,-10.639 10.782,-30.836 19.162,-54.811 13.836,-39.639 32.066,-91.916 43.885,-125.207 l 59.81,180.018 h -122.857 z m 202.432,-193.998 -1.413,0.459 0.119,0.268 1.183,-0.443 c -14.653,38.947 -57.95,156.221 -69.938,188.75 l -63.562,-191.287 67.284,-185.233 9.3,25.677 -0.588,0.187 0.019,0.052 56.183,162 1.466,-0.482 c -0.053,-10e-4 -0.053,0.036 -0.053,0.052 m 6.556,-18.192 -67.245,-184.813 102.775,-272.129001 h 133.825 l -169.355,456.942001 z m 171.786,-457.111001 h 133.824 l 102.774,272.129001 -67.243,184.814 -169.355,-456.943001 z m 176.021,475.418001 1.185,0.443 0.118,-0.27 -1.413,-0.457 c 0,-0.016 0,-0.053 -0.054,-0.053 l 1.467,0.48 56.184,-162.001 0.018,-0.052 -0.589,-0.187 9.302,-25.678 67.28296,185.233 -63.56096,191.287 c -11.989,-32.524 -55.288,-149.8 -69.94,-188.745 m 79.464,193.713 59.81096,-180.016 c 11.818,33.291 30.05,85.568 43.886,125.207 8.378,23.975 15.427,44.172 19.161,54.809 H 984.40914 z m 59.67896,-211.936 -0.255,-0.605 -0.01,0.063 -66.99796,-184.54 100.57796,-272.113001 h 132.188 l -165.503,457.195001 z"
   id="path69"
   style="fill:#967239" /><g
   transform="translate(78.508137,2.9077088)"
   id="g71">
			<g
   id="g73">
				<defs
   id="defs75">
					<rect
   width="1499.423"
   height="857.85498"
   x="-132.504"
   y="-276.65399"
   id="SVGID_13_" />
				</defs>
				<clipPath
   id="SVGID_14_">
					<use
   id="use79"
   style="overflow:visible"
   x="0"
   y="0"
   width="1357"
   height="574"
   xlink:href="#SVGID_13_" />
				</clipPath>
				<path
   d="m 1359.166,233.946 6.92,15.905 0.829,-526.505 -7.749,0.312 h -202.228 -1.231 -9.737 l -12.902,48.601 -29.938,112.736 -44.035,-155.684 -1.604,-5.653 h -11.067 l 15.56,54.935 34.317,121.166 h -0.617 -128.275 c 9.666,-26.642 44.043,-121.665 63.752,-176.101 H 678.222 l 66.635,176.101 h -129.836 -0.636 l 32.877,-119.957 15.408,-56.144 h -10.988 l -12.01,43.804 -26.34,96.033 v 0.168 l -26.342,-96.032 -12.009,-43.805 h -10.989 l 15.408,56.145 32.876,119.956 h -0.635 -129.832 l 66.635,-176.101 H 195.501 c 19.709,54.437 54.086,149.46 63.752,176.101 h -128.274 -0.615 l 34.314,-121.165 15.561,-54.936 h -11.066 l -1.604,5.654 -44.035,155.684 -29.939,-112.737 -12.902,-48.601 h -9.738 -1.232 -202.227 v 510.289 l 118.215,-323.58 h 130.04 l -246.836,669.133 h -1.418 v 1.533 h 745.836 v -0.168 h 745.833 v -1.535 h -1.418 L 1110.911,-89.634 h 130.04 l 118.215,323.58 z M 115.8,-100.073 H -10.388 l 80.562,-174.407 15.91,59.948 30.385,114.459 H 115.8 z m 147.33,10.608 100.578,272.113 -67,184.54 -0.01,-0.063 -0.254,0.605 L 130.938,-89.465 H 263.13 z m -29.867,669.133 c 3.738,-10.639 10.787,-30.836 19.164,-54.811 13.834,-39.639 32.067,-91.916 43.886,-125.207 l 59.812,180.018 H 233.263 z m 202.434,-193.998 -1.415,0.459 0.119,0.268 1.184,-0.443 c -14.652,38.947 -57.951,156.223 -69.938,188.75 l -63.561,-191.287 67.285,-185.233 9.297,25.677 -0.586,0.187 0.018,0.052 56.182,162 1.469,-0.482 c -0.054,-10e-4 -0.054,0.036 -0.054,0.052 M 442.255,367.478 375.009,182.665 477.78,-89.465 H 611.608 L 442.255,367.478 z M 615.056,-89.634 H 748.884 L 851.654,182.496 784.409,367.31 615.056,-89.634 z m 176.022,475.419 1.184,0.443 0.12,-0.27 -1.415,-0.457 c 0,-0.016 0,-0.053 -0.056,-0.053 l 1.471,0.48 56.181,-162.001 0.018,-0.052 -0.586,-0.187 9.296,-25.678 67.286,185.233 -63.56,191.287 C 849.029,542.006 805.729,424.73 791.078,385.785 m 79.462,193.713 59.81,-180.016 c 11.819,33.291 30.051,85.568 43.886,125.207 8.377,23.975 15.427,44.172 19.164,54.809 H 870.54 z m 59.678,-211.936 -0.252,-0.605 -0.012,0.063 -66.999,-184.54 100.578,-272.114 h 132.191 L 930.218,367.562 z m 180.644,-467.803 h -0.668 l 30.384,-114.459 15.911,-59.949 80.561,174.408 h -126.188 z"
   clip-path="url(#SVGID_14_)"
   id="path81"
   style="fill:#4c1200" />
			</g>
		</g><g
   transform="translate(78.508137,2.9077088)"
   id="g83">
			<g
   id="g85">
				<defs
   id="defs87">
					<rect
   width="1491.673"
   height="857.54303"
   x="-77.584"
   y="-276.34201"
   id="SVGID_15_" />
				</defs>
				<clipPath
   id="SVGID_16_">
					<use
   id="use91"
   style="overflow:visible"
   x="0"
   y="0"
   width="1357"
   height="574"
   xlink:href="#SVGID_15_" />
				</clipPath>
				<path
   d="m 1414.086,233.946 v -510.288 h -202.229 -1.23 -9.739 l -12.901,48.601 -29.938,112.736 -44.035,-155.684 -1.604,-5.653 h -11.066 l 15.561,54.935 34.314,121.166 h -0.614 -128.274 c 9.665,-26.642 44.042,-121.665 63.752,-176.101 H 733.14 l 66.635,176.101 H 669.94 669.307 l 32.875,-119.957 15.408,-56.144 h -10.988 l -12.01,43.804 -26.342,96.033 v 0.168 l -26.34,-96.032 -12.009,-43.805 H 618.91 l 15.409,56.145 32.877,119.956 h -0.635 -129.833 l 66.635,-176.101 H 250.421 c 19.709,54.437 54.086,149.46 63.752,176.101 h -128.275 -0.615 l 34.315,-121.165 15.56,-54.936 h -11.067 l -1.602,5.654 -44.036,155.684 -29.938,-112.737 -12.901,-48.601 h -9.738 -1.231 -202.23 V 234.115 L 40.63,-89.465 H 170.671 L -76.166,579.668 h -1.419 v 1.533 h 745.836 v -0.168 h 745.835 v -1.535 h -1.418 L 1165.831,-89.634 h 130.041 l 118.214,323.58 z M 170.72,-100.073 H 44.531 l 80.562,-174.407 15.912,59.948 30.383,114.459 h -0.668 z m 147.33,10.608 100.578,272.113 -67,184.54 -0.011,-0.063 -0.253,0.605 L 185.858,-89.465 H 318.05 z m -29.867,669.133 c 3.736,-10.639 10.787,-30.836 19.164,-54.811 13.834,-39.639 32.066,-91.916 43.885,-125.207 l 59.811,180.018 h -122.86 z m 202.434,-193.998 -1.416,0.459 0.12,0.268 1.184,-0.443 c -14.652,38.947 -57.953,156.223 -69.938,188.75 l -63.56,-191.287 67.284,-185.233 9.296,25.677 -0.584,0.187 0.016,0.052 56.182,162 1.47,-0.482 c -0.054,-10e-4 -0.054,0.036 -0.054,0.052 M 497.173,367.478 429.929,182.665 532.7,-89.465 H 666.528 L 497.173,367.478 z M 669.976,-89.634 H 803.801 L 906.572,182.496 839.328,367.31 669.976,-89.634 z m 176.021,475.419 1.184,0.443 0.118,-0.27 -1.415,-0.457 c 0,-0.016 0,-0.053 -0.054,-0.053 l 1.469,0.48 56.184,-162.001 0.016,-0.052 -0.583,-0.187 9.296,-25.678 67.284,185.233 -63.56,191.287 C 903.949,542.006 860.649,424.73 845.997,385.785 m 79.462,193.713 59.811,-180.016 c 11.817,33.291 30.052,85.568 43.887,125.207 8.376,23.975 15.426,44.172 19.162,54.809 h -122.86 z m 59.679,-211.936 -0.254,-0.605 -0.01,0.063 -66.999,-184.54 100.578,-272.113 h 132.189 L 985.138,367.562 z m 180.643,-467.803 h -0.668 l 30.385,-114.459 15.911,-59.949 80.563,174.408 h -126.191 z"
   clip-path="url(#SVGID_16_)"
   id="path93"
   style="fill:#bd261a" />
			</g>
		</g><g
   transform="translate(78.508137,2.9077088)"
   id="g95"
   style="opacity:0.6">
			<g
   id="g97">
				<defs
   id="defs99">
					<rect
   width="334.10999"
   height="494.44101"
   x="1026.358"
   y="87.835999"
   id="SVGID_17_" />
				</defs>
				<clipPath
   id="SVGID_18_">
					<use
   id="use103"
   style="overflow:visible"
   x="0"
   y="0"
   width="1357"
   height="574"
   xlink:href="#SVGID_17_" />
				</clipPath>
				<polygon
   points="1049.52,581.844 1360.473,582.277 1177.211,87.837 1026.358,515.883 "
   clip-path="url(#SVGID_18_)"
   id="polygon105"
   style="fill:#d42c1f" />
			</g>
		</g><polygon
   points="1049.52,581.844 1360.874,582.277 1190.061,124.069 1038.998,551.963 "
   transform="translate(78.508137,2.9077088)"
   id="polygon107"
   style="fill:#ee3124" /><g
   transform="translate(78.508137,2.9077088)"
   id="g109"
   style="opacity:0.6">
			<g
   id="g111">
				<defs
   id="defs113">
					<rect
   width="25.551001"
   height="39.702999"
   x="1003.173"
   y="543.297"
   id="SVGID_19_" />
				</defs>
				<clipPath
   id="SVGID_20_">
					<use
   id="use117"
   style="overflow:visible"
   x="0"
   y="0"
   width="1357"
   height="574"
   xlink:href="#SVGID_19_" />
				</clipPath>
				<polygon
   points="1003.172,582.742 1028.724,583 1016.985,543.297 "
   clip-path="url(#SVGID_20_)"
   id="polygon119"
   style="fill:#d42c1f" />
			</g>
		</g><rect
   width="1190.55"
   height="841.88898"
   x="245.92714"
   y="-265.24127"
   id="rect121"
   style="fill:none" /><text
   x="1267.0785"
   y="537.11963"
   id="text157"
   style="font-size:12.49600029px;fill:#ffffff;font-family:NewCicle-Gordita"> </text>
<text
   x="631.0061"
   y="542.40973"
   id="text209"
   style="font-size:9.38309956px;fill:#8e6d35;font-family:NewCicle-Semi"> </text>
<text
   x="682.96899"
   y="542.40973"
   id="text211"
   style="font-size:10.8991003px;fill:#ffffff;font-family:NewCicle-Semi"> </text>
<text
   x="649.63904"
   y="367.13821"
   id="text213"
   style="font-size:9px;fill:#ffffff;font-family:GothamBook"> </text>
<rect
   width="1190.55"
   height="841.88898"
   x="245.92714"
   y="-265.24127"
   id="rect215"
   style="fill:none" />
</g>
</svg>