<?xml version="1.0" encoding="UTF-8" standalone="no"?>
<!-- Created with Inkscape (http://www.inkscape.org/) -->

<svg
   xmlns:dc="http://purl.org/dc/elements/1.1/"
   xmlns:cc="http://creativecommons.org/ns#"
   xmlns:rdf="http://www.w3.org/1999/02/22-rdf-syntax-ns#"
   xmlns:svg="http://www.w3.org/2000/svg"
   xmlns="http://www.w3.org/2000/svg"
   version="1.1"
   width="256.74335"
   height="185"
   id="svg3180">
  <defs
     id="defs3182" />
  <metadata
     id="metadata3185">
    <rdf:RDF>
      <cc:Work
         rdf:about="">
        <dc:format>image/svg+xml</dc:format>
        <dc:type
           rdf:resource="http://purl.org/dc/dcmitype/StillImage" />
        <dc:title></dc:title>
      </cc:Work>
    </rdf:RDF>
  </metadata>
  <g
     transform="translate(-203.00666,-385.71875)"
     id="layer1">
    <path
       d="m 282.92417,495.19748 c -3.59441,30.97696 12.24995,71.2674 37.50915,71.2674"
       id="path3153"
       style="fill:none;stroke:#fa9c0c;stroke-width:1px;stroke-linecap:butt;stroke-linejoin:miter;stroke-opacity:1" />
    <path
       d="m 316.68241,538.95817 c -0.29655,10.8329 -0.62691,21.87507 2.50061,31.25763 -10.83598,0 -21.67196,0 -32.50794,0"
       id="path3159"
       style="fill:none;stroke:#fa9c0c;stroke-width:1px;stroke-linecap:butt;stroke-linejoin:miter;stroke-opacity:1" />
    <path
       d="m 24.884956,20.628319 c -0.064,0.0027 0.04614,34.053097 0,34.053097 -4.411539,0 3.494658,-20.190724 15.061947,-14.40708 2.849683,1.424842 1.309734,12.73647 1.309734,15.716815"
       transform="translate(203.00666,385.71875)"
       id="path3119"
       style="fill:none;stroke:#fa9c0c;stroke-width:1px;stroke-linecap:butt;stroke-linejoin:miter;stroke-opacity:1" />
    <path
       d="m 60.902655,43.548673 c -6.616836,-4.759757 -8.803637,15.899066 -6.548673,17.026548 8.430026,4.215013 17.681416,5.297142 17.681416,-5.893805 0,-3.865109 -0.262531,-6.025071 -3.929203,-7.858407 -2.421091,-1.210545 -4.556881,-1.686341 -7.20354,-3.274336 z"
       transform="translate(203.00666,385.71875)"
       id="path3121"
       style="fill:none;stroke:#fa9c0c;stroke-width:1px;stroke-linecap:butt;stroke-linejoin:miter;stroke-opacity:1" />
    <path
       d="m 78.584071,45.513274 c 0.05159,3.477946 -0.05598,9.112165 1.964602,11.132744 0.970109,0.970109 -0.47169,4.348226 1.309734,5.238938 5.196141,2.59807 7.345073,-13.893746 9.168142,-15.716814 2.276968,-2.276969 0.788548,11.921291 5.238938,16.371681 2.511614,2.511614 6.153703,-13.222163 6.548673,-14.40708"
       transform="translate(203.00666,385.71875)"
       id="path3123"
       style="fill:none;stroke:#fa9c0c;stroke-width:1px;stroke-linecap:butt;stroke-linejoin:miter;stroke-opacity:1" />
    <path
       d="m 123.76991,46.168142 c 0.86077,2.302199 8.42194,17.772748 8.51328,17.681416 3.22495,-3.224958 0.41903,-11.551778 3.27433,-14.40708 2.50442,-2.504414 7.7058,13.752212 9.82301,13.752212 1.31244,0 2.78498,-12.938995 3.27434,-14.407079"
       transform="translate(203.00666,385.71875)"
       id="path3125"
       style="fill:none;stroke:#fa9c0c;stroke-width:1px;stroke-linecap:butt;stroke-linejoin:miter;stroke-opacity:1" />
    <path
       d="m 159.78761,54.681416 c 1.75929,-2.858539 9.23528,1.242596 11.13274,-0.654867 4.15951,-4.159507 -1.7717,-11.884059 -7.20354,-9.168142 -5.83531,2.917655 -6.68994,20.955752 10.47788,20.955752"
       transform="translate(203.00666,385.71875)"
       id="path3129"
       style="fill:none;stroke:#fa9c0c;stroke-width:1px;stroke-linecap:butt;stroke-linejoin:miter;stroke-opacity:1" />
    <path
       d="m 39.292035,77.60177 c -5.212748,-7.710355 -22.763609,4.865346 -14.407079,11.132743 5.414356,4.060768 9.339597,4.896026 12.442478,-1.309734 1.493327,-2.986654 1.964601,-13.16219 1.964601,-9.823009 0,15.482074 6.559185,32.74336 -13.097345,32.74336"
       transform="translate(203.00666,385.71875)"
       id="path3131"
       style="fill:none;stroke:#fa9c0c;stroke-width:1px;stroke-linecap:butt;stroke-linejoin:miter;stroke-opacity:1" />
    <path
       d="m 53.044248,83.495575 c -5.125483,1.680433 2.523241,-4.337624 -3.274337,2.619469 -5.626766,6.75212 6.932125,19.262566 13.097346,13.097345 9.247487,-9.247487 -2.074994,-18.99115 -11.132744,-18.99115"
       transform="translate(203.00666,385.71875)"
       id="path3133"
       style="fill:none;stroke:#fa9c0c;stroke-width:1px;stroke-linecap:butt;stroke-linejoin:miter;stroke-opacity:1" />
    <path
       d="m 77.274336,79.566372 c 2.889514,3.395276 -3.150364,15.840786 0,18.99115 3.531591,3.531588 7.20354,-1.025593 7.20354,-1.964602"
       transform="translate(203.00666,385.71875)"
       id="path3135"
       style="fill:none;stroke:#fa9c0c;stroke-width:1px;stroke-linecap:butt;stroke-linejoin:miter;stroke-opacity:1" />
    <path
       d="m 71.380531,86.115044 c 3.849881,-0.956688 7.845816,-0.654867 11.787611,-0.654867"
       transform="translate(203.00666,385.71875)"
       id="path3137"
       style="fill:none;stroke:#fa9c0c;stroke-width:1px;stroke-linecap:butt;stroke-linejoin:miter;stroke-opacity:1" />
    <path
       d="m 108.0531,72.362832 c 0.26965,3.07663 -0.36272,23.575221 -1.9646,23.575221 -2.92352,0 1.07511,-13.214653 9.16814,-9.168141 3.22484,1.612421 1.9646,12.770752 1.9646,16.371678"
       transform="translate(203.00666,385.71875)"
       id="path3139"
       style="fill:none;stroke:#fa9c0c;stroke-width:1px;stroke-linecap:butt;stroke-linejoin:miter;stroke-opacity:1" />
    <path
       d="m 125.73451,95.938053 c 20.1437,-10.286986 -3.11395,-12.923614 -4.58407,-8.513274 -2.52234,7.567021 0.22658,18.915621 9.82301,15.716811"
       transform="translate(203.00666,385.71875)"
       id="path3141"
       style="fill:none;stroke:#fa9c0c;stroke-width:1px;stroke-linecap:butt;stroke-linejoin:miter;stroke-opacity:1" />
    <path
       d="m 139.48673,86.115044 c 0,-0.608262 0,21.695036 0,20.955756 0,-7.471949 2.18623,-16.008983 9.16814,-18.336287"
       transform="translate(203.00666,385.71875)"
       id="path3145"
       style="fill:none;stroke:#fa9c0c;stroke-width:1px;stroke-linecap:butt;stroke-linejoin:miter;stroke-opacity:1" />
    <path
       d="m 161.09735,96.59292 c 2.64671,0.169328 6.25519,-1.084154 7.20353,-3.929203 3.19411,-9.582319 -7.19274,-9.844596 -11.78761,-0.654867 -0.8107,1.621411 -0.99051,15.38116 0,16.37168 2.323,2.32299 10.41135,0.75466 11.78761,-1.30973"
       transform="translate(203.00666,385.71875)"
       id="path3147"
       style="fill:none;stroke:#fa9c0c;stroke-width:1px;stroke-linecap:butt;stroke-linejoin:miter;stroke-opacity:1" />
  </g>
</svg>
