<?xml version="1.0" encoding="UTF-8" standalone="no"?>
<!-- Created with Inkscape (http://www.inkscape.org/) -->

<svg
   xmlns:dc="http://purl.org/dc/elements/1.1/"
   xmlns:cc="http://creativecommons.org/ns#"
   xmlns:rdf="http://www.w3.org/1999/02/22-rdf-syntax-ns#"
   xmlns:svg="http://www.w3.org/2000/svg"
   xmlns="http://www.w3.org/2000/svg"
   version="1.1"
   width="190.327"
   height="38.879002"
   id="svg5581">
  <defs
     id="defs5583" />
  <metadata
     id="metadata5586">
    <rdf:RDF>
      <cc:Work
         rdf:about="">
        <dc:format>image/svg+xml</dc:format>
        <dc:type
           rdf:resource="http://purl.org/dc/dcmitype/StillImage" />
        <dc:title></dc:title>
      </cc:Work>
    </rdf:RDF>
  </metadata>
  <path
     d="m 17.552,21.4 h -1.938 l -2.957,-7.821 c -0.228,0.657 -0.461,1.309 -0.709,1.955 -0.247,0.647 -0.493,1.299 -0.739,1.956 -0.226,0.615 -0.461,1.272 -0.709,1.972 -0.246,0.696 -0.481,1.343 -0.707,1.938 H 7.883 L 0,0.123 h 2.188 l 6.619,17.799 c 0.204,-0.555 0.416,-1.135 0.631,-1.74 0.217,-0.605 0.428,-1.186 0.633,-1.74 l 1.447,-4.004 C 11.229,9.638 10.932,8.812 10.622,7.959 10.316,7.107 10.007,6.271 9.7,5.449 9.392,4.589 9.068,3.689 8.73,2.756 8.39,1.821 8.077,0.943 7.79,0.123 h 2.157 l 3.109,8.406 c 0.286,0.801 0.573,1.575 0.86,2.324 0.287,0.75 0.576,1.504 0.864,2.264 0.164,0.432 0.318,0.842 0.46,1.231 0.145,0.391 0.284,0.771 0.416,1.14 0.133,0.369 0.271,0.754 0.416,1.154 0.143,0.4 0.309,0.827 0.493,1.279 0.41,-1.15 0.826,-2.294 1.248,-3.435 0.42,-1.14 0.845,-2.294 1.276,-3.464 0.656,-1.807 1.328,-3.634 2.019,-5.481 0.687,-1.848 1.358,-3.653 2.015,-5.419 h 2.219 L 17.552,21.4 z"
     id="path4661"
     style="fill:#ffffff" />
  <polygon
     points="597.885,776.022 595.791,776.022 595.762,754.745 597.856,754.745 "
     transform="translate(-567.709,-754.622)"
     id="polygon4663"
     style="fill:#ffffff" />
  <polygon
     points="603.55,773.929 613.559,773.929 613.589,776.022 601.55,776.022 601.52,754.745 603.55,754.745 "
     transform="translate(-567.709,-754.622)"
     id="polygon4665"
     style="fill:#ffffff" />
  <polygon
     points="618.269,773.929 628.278,773.929 628.308,776.022 616.269,776.022 616.239,754.745 618.269,754.745 "
     transform="translate(-567.709,-754.622)"
     id="polygon4667"
     style="fill:#ffffff" />
  <polygon
     points="633.111,776.022 631.017,776.022 630.986,754.745 633.081,754.745 "
     transform="translate(-567.709,-754.622)"
     id="polygon4669"
     style="fill:#ffffff" />
  <path
     d="m 75.563,0.123 h 1.632 l 7.852,21.278 h -2.153 l -3.203,-8.47 h -6.59 c -0.492,1.355 -1.017,2.768 -1.571,4.234 -0.554,1.469 -1.088,2.879 -1.601,4.235 H 67.775 L 75.563,0.123 z m 3.356,10.715 C 78.715,10.243 78.508,9.679 78.303,9.145 78.098,8.612 77.893,8.079 77.688,7.543 V 7.574 C 77.565,7.246 77.451,6.943 77.35,6.666 77.246,6.389 77.145,6.117 77.04,5.85 76.937,5.584 76.835,5.301 76.731,5.004 76.63,4.706 76.507,4.372 76.362,4.002 76.198,4.475 76.034,4.926 75.87,5.358 75.706,5.789 75.542,6.23 75.378,6.681 75.09,7.4 74.833,8.077 74.608,8.713 c -0.226,0.636 -0.484,1.345 -0.771,2.124 h 5.082 z"
     id="path4671"
     style="fill:#ffffff" />
  <path
     d="m 101.952,0.123 h 1.94 V 21.4 h -2.093 L 101.767,4.495 c -0.923,1.54 -1.873,3.151 -2.847,4.835 -0.978,1.684 -1.896,3.295 -2.756,4.834 H 94.869 L 89.174,4.525 c 0,1.294 0.004,2.618 0.015,3.973 0.01,1.355 0.015,2.689 0.015,4.004 V 21.4 H 87.141 L 87.11,0.123 h 1.879 l 6.56,10.992 6.403,-10.992 z"
     id="path4673"
     style="fill:#ffffff" />
  <path
     d="m 108.91,17.059 c 0.515,0.78 1.156,1.396 1.927,1.848 0.769,0.451 1.637,0.678 2.601,0.678 0.575,0 1.123,-0.093 1.647,-0.277 0.522,-0.185 0.985,-0.436 1.387,-0.754 0.399,-0.318 0.718,-0.698 0.955,-1.14 0.233,-0.441 0.353,-0.918 0.353,-1.433 0,-0.472 -0.112,-0.928 -0.34,-1.37 -0.224,-0.44 -0.527,-0.847 -0.908,-1.216 -0.379,-0.369 -0.826,-0.683 -1.338,-0.939 -0.513,-0.256 -1.047,-0.436 -1.601,-0.539 -0.864,-0.123 -1.674,-0.364 -2.435,-0.724 -0.76,-0.358 -1.422,-0.806 -1.985,-1.339 -0.565,-0.534 -1.011,-1.145 -1.338,-1.832 -0.33,-0.688 -0.494,-1.401 -0.494,-2.141 0,-0.842 0.174,-1.617 0.522,-2.324 0.351,-0.709 0.826,-1.324 1.433,-1.848 0.604,-0.523 1.313,-0.935 2.125,-1.232 0.81,-0.297 1.677,-0.446 2.601,-0.446 1.233,0 2.33,0.231 3.295,0.692 0.965,0.463 1.838,1.125 2.617,1.986 l -1.662,1.355 c -0.533,-0.637 -1.16,-1.135 -1.879,-1.494 -0.718,-0.359 -1.507,-0.539 -2.371,-0.539 -0.595,0 -1.164,0.098 -1.709,0.293 -0.543,0.195 -1.025,0.463 -1.447,0.801 -0.42,0.338 -0.76,0.734 -1.016,1.186 -0.255,0.451 -0.384,0.935 -0.384,1.447 0,0.514 0.106,1.006 0.323,1.479 0.216,0.472 0.518,0.897 0.908,1.277 0.39,0.38 0.853,0.688 1.386,0.924 0.532,0.236 1.108,0.385 1.724,0.446 0.864,0.103 1.668,0.339 2.418,0.708 0.749,0.369 1.395,0.822 1.939,1.355 0.544,0.533 0.972,1.139 1.277,1.816 0.31,0.678 0.463,1.386 0.463,2.125 0,0.801 -0.17,1.555 -0.508,2.264 -0.34,0.707 -0.806,1.324 -1.402,1.848 -0.596,0.523 -1.286,0.934 -2.077,1.23 -0.791,0.298 -1.638,0.447 -2.541,0.447 -1.313,0 -2.498,-0.297 -3.558,-0.892 -1.056,-0.597 -1.914,-1.388 -2.57,-2.372 l 1.662,-1.354 z"
     id="path4675"
     style="fill:#ffffff" />
  <path
     d="m 129.758,21.4 h -6.406 l -0.03,-21.277 h 6.928 c 0.802,0.02 1.556,0.18 2.265,0.477 0.707,0.298 1.324,0.693 1.847,1.187 0.524,0.491 0.94,1.062 1.246,1.707 0.309,0.647 0.463,1.331 0.463,2.049 0,0.966 -0.226,1.837 -0.677,2.619 -0.452,0.778 -1.047,1.425 -1.788,1.938 0.864,0.555 1.561,1.283 2.096,2.187 0.533,0.903 0.799,1.868 0.799,2.894 0,0.843 -0.157,1.633 -0.477,2.371 -0.318,0.74 -0.753,1.387 -1.308,1.94 -0.556,0.554 -1.211,0.996 -1.972,1.324 -0.76,0.329 -1.58,0.503 -2.463,0.523 h 0.031 L 129.758,21.4 z M 125.385,2.154 v 6.898 h 4.864 c 0.533,-0.021 1.025,-0.118 1.479,-0.293 0.451,-0.174 0.845,-0.416 1.185,-0.724 0.338,-0.308 0.606,-0.677 0.802,-1.108 0.192,-0.432 0.291,-0.892 0.291,-1.386 0,-0.431 -0.099,-0.84 -0.291,-1.231 -0.195,-0.391 -0.464,-0.739 -0.802,-1.047 -0.34,-0.309 -0.733,-0.56 -1.185,-0.755 -0.454,-0.194 -0.946,-0.313 -1.479,-0.354 h -4.864 z m 4.864,17.153 c 0.574,-0.021 1.119,-0.148 1.634,-0.385 0.512,-0.236 0.953,-0.539 1.321,-0.908 0.371,-0.37 0.662,-0.796 0.879,-1.278 0.216,-0.481 0.322,-1.001 0.322,-1.556 0,-0.512 -0.106,-1.005 -0.322,-1.477 -0.217,-0.473 -0.508,-0.895 -0.879,-1.264 -0.368,-0.369 -0.81,-0.666 -1.321,-0.893 -0.515,-0.227 -1.06,-0.359 -1.634,-0.4 h -4.864 v 8.16 h 4.864 z"
     id="path4677"
     style="fill:#ffffff" />
  <path
     d="m 141.735,15.857 c 0.081,0.473 0.293,0.93 0.633,1.371 0.338,0.44 0.769,0.836 1.293,1.186 0.522,0.349 1.123,0.626 1.801,0.831 0.677,0.205 1.396,0.308 2.156,0.308 0.717,0 1.403,-0.103 2.062,-0.308 0.657,-0.205 1.243,-0.482 1.756,-0.831 0.513,-0.35 0.938,-0.745 1.278,-1.186 0.337,-0.441 0.548,-0.898 0.63,-1.371 V 0.123 h 2.094 v 15.766 c -0.041,0.801 -0.276,1.55 -0.707,2.248 -0.432,0.697 -1.002,1.309 -1.709,1.832 -0.709,0.523 -1.53,0.939 -2.465,1.247 -0.933,0.308 -1.914,0.462 -2.938,0.462 -1.09,0 -2.11,-0.154 -3.065,-0.462 -0.955,-0.308 -1.797,-0.724 -2.524,-1.247 -0.729,-0.523 -1.31,-1.135 -1.74,-1.832 -0.431,-0.698 -0.676,-1.447 -0.739,-2.248 V 0.123 h 2.187 v 15.734 z"
     id="path4679"
     style="fill:#ffffff" />
  <path
     d="M 160.827,11.793 V 21.4 h -2.063 L 158.733,0.123 h 6.281 c 0.864,0 1.668,0.139 2.418,0.415 0.749,0.277 1.407,0.662 1.971,1.155 0.565,0.493 1.011,1.072 1.34,1.739 0.328,0.667 0.492,1.381 0.492,2.14 0,0.78 -0.164,1.505 -0.492,2.172 -0.329,0.667 -0.774,1.258 -1.34,1.77 -0.563,0.514 -1.222,0.914 -1.971,1.201 -0.75,0.288 -1.554,0.432 -2.418,0.432 h -2.031 c 0.554,0.637 1.123,1.277 1.709,1.924 0.584,0.647 1.174,1.299 1.771,1.956 0.883,1.006 1.821,2.083 2.817,3.233 0.994,1.15 1.914,2.197 2.757,3.141 h -2.681 l -8.529,-9.608 z m 0,-9.669 v 6.929 h 4.187 c 0.555,0 1.084,-0.088 1.586,-0.262 0.504,-0.174 0.94,-0.421 1.309,-0.739 0.369,-0.317 0.669,-0.688 0.894,-1.108 0.226,-0.421 0.339,-0.878 0.339,-1.371 0,-0.451 -0.113,-0.886 -0.339,-1.309 -0.225,-0.42 -0.528,-0.789 -0.909,-1.107 -0.379,-0.318 -0.82,-0.57 -1.324,-0.755 -0.502,-0.185 -1.041,-0.277 -1.614,-0.277 h -4.129 z"
     id="path4681"
     style="fill:#ffffff" />
  <path
     d="m 190.078,18.721 c -0.924,0.924 -1.954,1.648 -3.094,2.172 -1.138,0.523 -2.354,0.785 -3.647,0.785 -1.336,0 -2.593,-0.282 -3.774,-0.848 -1.179,-0.564 -2.211,-1.338 -3.093,-2.324 -0.883,-0.985 -1.58,-2.135 -2.094,-3.449 -0.515,-1.313 -0.771,-2.709 -0.771,-4.188 0,-1.498 0.256,-2.904 0.771,-4.219 0.514,-1.313 1.211,-2.463 2.094,-3.449 0.882,-0.984 1.914,-1.765 3.093,-2.34 C 180.745,0.287 182.001,0 183.337,0 c 1.293,0 2.534,0.287 3.724,0.861 1.192,0.575 2.28,1.376 3.266,2.402 l -1.446,1.447 c -0.781,-0.821 -1.649,-1.457 -2.604,-1.909 -0.953,-0.452 -1.933,-0.678 -2.938,-0.678 -1.047,0 -2.037,0.226 -2.974,0.678 -0.933,0.452 -1.75,1.073 -2.446,1.862 -0.697,0.791 -1.252,1.715 -1.662,2.771 -0.412,1.058 -0.617,2.202 -0.617,3.434 0,1.211 0.205,2.352 0.617,3.418 0.41,1.068 0.965,1.997 1.662,2.788 0.696,0.791 1.514,1.416 2.446,1.877 0.937,0.462 1.927,0.692 2.974,0.692 0.901,0 1.754,-0.164 2.555,-0.492 0.8,-0.327 1.519,-0.79 2.156,-1.386 v -5.233 h -5.636 v -2.033 h 7.729 v 7.944 l -0.065,0.278 z"
     id="path4683"
     style="fill:#ffffff" />
  <path
     d="m 11.812,31.493 c -0.341,-0.356 -0.715,-0.634 -1.125,-0.829 -0.409,-0.196 -0.834,-0.295 -1.271,-0.295 -0.446,0 -0.869,0.099 -1.271,0.295 -0.4,0.195 -0.754,0.463 -1.057,0.803 -0.303,0.338 -0.542,0.737 -0.715,1.196 -0.174,0.46 -0.261,0.952 -0.261,1.477 0,0.519 0.083,1.007 0.248,1.466 0.164,0.459 0.394,0.863 0.688,1.211 0.294,0.348 0.645,0.624 1.05,0.829 0.405,0.205 0.846,0.308 1.317,0.308 0.437,0 0.854,-0.098 1.251,-0.295 0.397,-0.195 0.77,-0.468 1.117,-0.815 l 0.629,0.615 c -0.419,0.437 -0.883,0.782 -1.393,1.036 -0.508,0.254 -1.043,0.382 -1.604,0.382 -0.552,0 -1.083,-0.125 -1.591,-0.374 C 7.316,38.253 6.868,37.913 6.48,37.485 6.091,37.056 5.782,36.555 5.549,35.981 5.318,35.406 5.202,34.793 5.202,34.14 c 0,-0.622 0.109,-1.218 0.327,-1.784 0.218,-0.566 0.519,-1.063 0.902,-1.491 0.384,-0.428 0.829,-0.769 1.337,-1.022 0.51,-0.255 1.058,-0.382 1.646,-0.382 0.562,0 1.106,0.127 1.632,0.382 0.526,0.254 0.99,0.6 1.392,1.036 l -0.626,0.614 z"
     id="path4685"
     style="fill:#ffffff" />
  <path
     d="m 26.068,37.578 c -0.384,0.42 -0.822,0.74 -1.316,0.963 -0.495,0.223 -1.027,0.335 -1.6,0.335 -0.57,0 -1.108,-0.12 -1.618,-0.361 -0.508,-0.241 -0.956,-0.573 -1.344,-0.996 -0.387,-0.424 -0.695,-0.925 -0.923,-1.505 -0.227,-0.58 -0.34,-1.202 -0.34,-1.873 0,-0.65 0.111,-1.259 0.334,-1.825 0.222,-0.565 0.522,-1.062 0.902,-1.484 0.379,-0.423 0.824,-0.758 1.338,-1.003 0.513,-0.246 1.063,-0.368 1.65,-0.368 0.599,0 1.153,0.122 1.665,0.368 0.513,0.245 0.957,0.577 1.331,0.996 0.375,0.42 0.669,0.914 0.883,1.484 0.214,0.57 0.321,1.182 0.321,1.832 0,0.695 -0.111,1.337 -0.335,1.919 -0.221,0.585 -0.538,1.09 -0.948,1.518 m -0.654,-6.205 c -0.285,-0.321 -0.625,-0.566 -1.018,-0.736 -0.392,-0.169 -0.806,-0.254 -1.244,-0.254 -0.463,0 -0.895,0.098 -1.297,0.295 -0.401,0.195 -0.751,0.463 -1.049,0.802 -0.299,0.339 -0.534,0.735 -0.703,1.19 -0.169,0.455 -0.253,0.945 -0.253,1.471 0,0.535 0.084,1.035 0.253,1.498 0.169,0.465 0.404,0.867 0.703,1.211 0.298,0.344 0.647,0.613 1.049,0.809 0.402,0.197 0.834,0.295 1.297,0.295 0.474,0 0.912,-0.098 1.318,-0.295 0.406,-0.195 0.757,-0.465 1.056,-0.809 0.299,-0.344 0.533,-0.746 0.702,-1.211 0.17,-0.463 0.255,-0.963 0.255,-1.498 0,-0.553 -0.093,-1.066 -0.281,-1.545 -0.187,-0.477 -0.45,-0.885 -0.788,-1.223"
     id="path4687"
     style="fill:#ffffff" />
  <path
     d="m 39.001,34.302 h -3.905 v 2.14 c 0,0.375 0.002,0.763 0.007,1.164 0.003,0.4 0.006,0.784 0.006,1.15 h -0.896 l -0.015,-9.242 h 5.472 v 0.869 h -4.574 v 3.01 h 3.905 v 0.909 z"
     id="path4689"
     style="fill:#ffffff" />
  <path
     d="m 51.332,34.302 h -3.904 v 2.14 c 0,0.375 0.002,0.763 0.007,1.164 0.003,0.4 0.006,0.784 0.006,1.15 H 46.545 L 46.53,29.514 h 5.472 v 0.869 h -4.574 v 3.01 h 3.904 v 0.909 z"
     id="path4691"
     style="fill:#ffffff" />
  <polygon
     points="631.333,788.924 627.414,788.924 627.414,792.468 631.988,792.468 632.001,793.378 626.531,793.378 626.519,784.136 631.988,784.136 631.988,785.019 627.414,785.019 627.414,788.015 631.333,788.015 "
     transform="translate(-567.709,-754.622)"
     id="polygon4693"
     style="fill:#ffffff" />
  <polygon
     points="643.636,788.924 639.717,788.924 639.717,792.468 644.292,792.468 644.306,793.378 638.834,793.378 638.823,784.136 644.292,784.136 644.292,785.019 639.717,785.019 639.717,788.015 643.636,788.015 "
     transform="translate(-567.709,-754.622)"
     id="polygon4695"
     style="fill:#ffffff" />
  <path
     d="m 94.238,34.582 v 4.174 h -0.896 l -0.013,-9.242 h 2.728 c 0.374,0 0.725,0.061 1.05,0.182 0.325,0.119 0.61,0.286 0.856,0.501 0.245,0.214 0.438,0.466 0.582,0.755 0.142,0.29 0.214,0.6 0.214,0.93 0,0.339 -0.072,0.653 -0.214,0.943 -0.144,0.289 -0.337,0.546 -0.582,0.769 -0.246,0.224 -0.531,0.397 -0.856,0.521 -0.325,0.125 -0.676,0.188 -1.05,0.188 h -0.882 c 0.24,0.276 0.488,0.556 0.742,0.836 0.254,0.28 0.51,0.563 0.769,0.85 0.383,0.437 0.791,0.905 1.225,1.403 0.432,0.5 0.831,0.955 1.195,1.365 h -1.163 l -3.705,-4.175 z m 0,-4.199 v 3.01 h 1.818 c 0.241,0 0.47,-0.038 0.689,-0.113 0.219,-0.076 0.407,-0.184 0.567,-0.322 0.161,-0.137 0.29,-0.299 0.389,-0.48 0.099,-0.184 0.146,-0.382 0.146,-0.596 0,-0.195 -0.048,-0.386 -0.146,-0.568 C 97.603,31.132 97.471,30.97 97.305,30.833 97.14,30.696 96.95,30.586 96.73,30.506 96.512,30.425 96.278,30.385 96.028,30.385 h -1.79 z"
     id="path4697"
     style="fill:#ffffff" />
  <path
     d="m 112.466,37.578 c -0.384,0.42 -0.822,0.74 -1.316,0.963 -0.495,0.223 -1.027,0.335 -1.6,0.335 -0.57,0 -1.108,-0.12 -1.618,-0.361 -0.508,-0.241 -0.956,-0.573 -1.344,-0.996 -0.387,-0.424 -0.695,-0.925 -0.923,-1.505 -0.227,-0.58 -0.34,-1.202 -0.34,-1.873 0,-0.65 0.111,-1.259 0.334,-1.825 0.222,-0.565 0.522,-1.062 0.902,-1.484 0.379,-0.423 0.824,-0.758 1.338,-1.003 0.513,-0.246 1.063,-0.368 1.65,-0.368 0.599,0 1.153,0.122 1.665,0.368 0.513,0.245 0.957,0.577 1.331,0.996 0.375,0.42 0.669,0.914 0.883,1.484 0.214,0.57 0.321,1.182 0.321,1.832 0,0.695 -0.111,1.337 -0.335,1.919 -0.22,0.585 -0.538,1.09 -0.948,1.518 m -0.654,-6.205 c -0.285,-0.321 -0.625,-0.566 -1.018,-0.736 -0.392,-0.169 -0.806,-0.254 -1.244,-0.254 -0.463,0 -0.895,0.098 -1.297,0.295 -0.401,0.195 -0.751,0.463 -1.049,0.802 -0.299,0.339 -0.534,0.735 -0.703,1.19 -0.169,0.455 -0.253,0.945 -0.253,1.471 0,0.535 0.084,1.035 0.253,1.498 0.169,0.465 0.404,0.867 0.703,1.211 0.298,0.344 0.647,0.613 1.049,0.809 0.402,0.197 0.834,0.295 1.297,0.295 0.474,0 0.912,-0.098 1.318,-0.295 0.406,-0.195 0.757,-0.465 1.056,-0.809 0.299,-0.344 0.533,-0.746 0.702,-1.211 0.17,-0.463 0.255,-0.963 0.255,-1.498 0,-0.553 -0.093,-1.066 -0.281,-1.545 -0.186,-0.477 -0.449,-0.885 -0.788,-1.223"
     id="path4699"
     style="fill:#ffffff" />
  <path
     d="m 123.714,29.514 h 0.709 l 3.41,9.242 h -0.936 l -1.391,-3.679 h -2.862 c -0.214,0.589 -0.442,1.202 -0.683,1.839 -0.24,0.639 -0.474,1.251 -0.695,1.84 h -0.937 l 3.385,-9.242 z m 1.458,4.654 c -0.09,-0.259 -0.179,-0.504 -0.269,-0.736 -0.088,-0.23 -0.177,-0.463 -0.267,-0.695 v 0.014 c -0.054,-0.143 -0.104,-0.273 -0.147,-0.394 -0.045,-0.121 -0.089,-0.239 -0.133,-0.354 -0.045,-0.117 -0.09,-0.239 -0.134,-0.369 -0.045,-0.129 -0.1,-0.273 -0.16,-0.434 -0.073,0.205 -0.145,0.4 -0.215,0.588 -0.072,0.188 -0.144,0.379 -0.214,0.575 -0.125,0.312 -0.236,0.606 -0.334,0.883 -0.1,0.276 -0.21,0.584 -0.334,0.923 h 2.207 z"
     id="path4701"
     style="fill:#ffffff" />
  <path
     d="m 135.015,36.869 c 0.224,0.34 0.502,0.607 0.837,0.803 0.334,0.196 0.711,0.295 1.13,0.295 0.25,0 0.487,-0.041 0.716,-0.121 0.227,-0.08 0.427,-0.189 0.601,-0.328 0.174,-0.138 0.313,-0.303 0.415,-0.494 0.104,-0.191 0.154,-0.398 0.154,-0.622 0,-0.205 -0.049,-0.403 -0.147,-0.594 -0.099,-0.192 -0.229,-0.369 -0.394,-0.53 -0.165,-0.16 -0.36,-0.296 -0.582,-0.407 -0.223,-0.111 -0.456,-0.189 -0.696,-0.233 -0.375,-0.055 -0.726,-0.158 -1.056,-0.314 -0.331,-0.156 -0.618,-0.351 -0.863,-0.582 -0.246,-0.232 -0.438,-0.497 -0.582,-0.796 -0.142,-0.299 -0.214,-0.608 -0.214,-0.929 0,-0.367 0.076,-0.703 0.228,-1.011 0.152,-0.308 0.358,-0.575 0.622,-0.803 0.264,-0.228 0.57,-0.405 0.923,-0.534 0.352,-0.13 0.729,-0.194 1.131,-0.194 0.534,0 1.011,0.101 1.43,0.301 0.419,0.2 0.798,0.488 1.137,0.862 l -0.722,0.589 c -0.232,-0.276 -0.503,-0.493 -0.816,-0.649 -0.312,-0.155 -0.654,-0.233 -1.028,-0.233 -0.259,0 -0.507,0.042 -0.743,0.127 -0.237,0.085 -0.446,0.2 -0.628,0.348 -0.183,0.147 -0.33,0.319 -0.442,0.515 -0.11,0.197 -0.167,0.406 -0.167,0.629 0,0.223 0.047,0.438 0.141,0.643 0.094,0.205 0.225,0.39 0.394,0.555 0.17,0.165 0.371,0.299 0.604,0.401 0.23,0.103 0.48,0.167 0.748,0.194 0.375,0.044 0.725,0.146 1.051,0.307 0.324,0.16 0.605,0.357 0.843,0.589 0.235,0.231 0.42,0.495 0.554,0.789 0.134,0.294 0.2,0.603 0.2,0.923 0,0.348 -0.073,0.676 -0.22,0.982 -0.147,0.309 -0.351,0.576 -0.609,0.803 -0.258,0.228 -0.559,0.406 -0.902,0.534 -0.344,0.13 -0.711,0.195 -1.104,0.195 -0.57,0 -1.085,-0.13 -1.544,-0.388 -0.459,-0.259 -0.832,-0.602 -1.117,-1.03 l 0.717,-0.592 z"
     id="path4703"
     style="fill:#ffffff" />
  <path
     d="m 150.422,30.397 v 4.079 c 0,0.704 0.003,1.42 0.008,2.146 0.005,0.728 0.007,1.438 0.007,2.134 h -0.896 l -0.014,-8.359 h -2.916 v -0.883 h 6.702 v 0.883 h -2.891 z"
     id="path4705"
     style="fill:#ffffff" />
  <polygon
     points="732.671,788.924 728.751,788.924 728.751,792.468 733.326,792.468 733.339,793.378 727.869,793.378 727.857,784.136 733.326,784.136 733.326,785.019 728.751,785.019 728.751,788.015 732.671,788.015 "
     transform="translate(-567.709,-754.622)"
     id="polygon4707"
     style="fill:#ffffff" />
  <path
     d="m 173.347,34.582 v 4.174 h -0.896 l -0.013,-9.242 h 2.728 c 0.374,0 0.726,0.061 1.05,0.182 0.325,0.119 0.61,0.286 0.856,0.501 0.245,0.214 0.438,0.466 0.582,0.755 0.142,0.29 0.214,0.6 0.214,0.93 0,0.339 -0.072,0.653 -0.214,0.943 -0.144,0.289 -0.337,0.546 -0.582,0.769 -0.246,0.224 -0.531,0.397 -0.856,0.521 -0.324,0.125 -0.676,0.188 -1.05,0.188 h -0.882 c 0.24,0.276 0.488,0.556 0.742,0.836 0.254,0.28 0.51,0.563 0.769,0.85 0.383,0.437 0.791,0.905 1.225,1.403 0.432,0.5 0.831,0.955 1.195,1.365 h -1.163 l -3.705,-4.175 z m 0,-4.199 v 3.01 h 1.818 c 0.241,0 0.47,-0.038 0.689,-0.113 0.219,-0.076 0.408,-0.184 0.567,-0.322 0.161,-0.137 0.29,-0.299 0.389,-0.48 0.099,-0.184 0.146,-0.382 0.146,-0.596 0,-0.195 -0.048,-0.386 -0.146,-0.568 -0.098,-0.182 -0.23,-0.344 -0.396,-0.481 -0.165,-0.137 -0.355,-0.247 -0.575,-0.327 -0.218,-0.081 -0.451,-0.121 -0.701,-0.121 h -1.791 z"
     id="path4709"
     style="fill:#ffffff" />
  <path
     d="m 185.291,36.869 c 0.223,0.34 0.502,0.607 0.836,0.803 0.334,0.196 0.711,0.295 1.13,0.295 0.25,0 0.487,-0.041 0.716,-0.121 0.227,-0.08 0.427,-0.189 0.601,-0.328 0.174,-0.138 0.313,-0.303 0.415,-0.494 0.104,-0.191 0.154,-0.398 0.154,-0.622 0,-0.205 -0.049,-0.403 -0.147,-0.594 -0.099,-0.192 -0.229,-0.369 -0.394,-0.53 -0.165,-0.16 -0.36,-0.296 -0.582,-0.407 -0.223,-0.111 -0.456,-0.189 -0.696,-0.233 -0.375,-0.055 -0.726,-0.158 -1.056,-0.314 -0.331,-0.156 -0.618,-0.351 -0.863,-0.582 -0.246,-0.232 -0.438,-0.497 -0.582,-0.796 -0.142,-0.299 -0.214,-0.608 -0.214,-0.929 0,-0.367 0.076,-0.703 0.228,-1.011 0.152,-0.308 0.358,-0.575 0.621,-0.803 0.265,-0.228 0.571,-0.405 0.924,-0.534 0.352,-0.13 0.729,-0.194 1.131,-0.194 0.534,0 1.011,0.101 1.43,0.301 0.419,0.2 0.798,0.488 1.137,0.862 l -0.722,0.589 c -0.231,-0.276 -0.503,-0.493 -0.815,-0.649 -0.313,-0.155 -0.655,-0.233 -1.029,-0.233 -0.259,0 -0.507,0.042 -0.743,0.127 -0.237,0.085 -0.446,0.2 -0.628,0.348 -0.184,0.147 -0.33,0.319 -0.442,0.515 -0.11,0.197 -0.167,0.406 -0.167,0.629 0,0.223 0.047,0.438 0.141,0.643 0.094,0.205 0.225,0.39 0.394,0.555 0.17,0.165 0.371,0.299 0.604,0.401 0.23,0.103 0.48,0.167 0.749,0.194 0.373,0.044 0.724,0.146 1.05,0.307 0.325,0.16 0.605,0.357 0.843,0.589 0.235,0.231 0.42,0.495 0.554,0.789 0.134,0.294 0.2,0.603 0.2,0.923 0,0.348 -0.073,0.676 -0.22,0.982 -0.147,0.309 -0.351,0.576 -0.609,0.803 -0.258,0.228 -0.559,0.406 -0.901,0.534 -0.345,0.13 -0.712,0.195 -1.104,0.195 -0.57,0 -1.085,-0.13 -1.544,-0.388 -0.459,-0.259 -0.832,-0.602 -1.117,-1.03 l 0.717,-0.592 z"
     id="path4711"
     style="fill:#ffffff" />
</svg>
