<?xml version="1.0" encoding="UTF-8" standalone="no"?>
<!-- Created with Inkscape (http://www.inkscape.org/) -->

<svg
   xmlns:dc="http://purl.org/dc/elements/1.1/"
   xmlns:cc="http://creativecommons.org/ns#"
   xmlns:rdf="http://www.w3.org/1999/02/22-rdf-syntax-ns#"
   xmlns:svg="http://www.w3.org/2000/svg"
   xmlns="http://www.w3.org/2000/svg"
   version="1.1"
   width="153.961"
   height="107.435"
   id="svg5960">
  <defs
     id="defs5962" />
  <metadata
     id="metadata5965">
    <rdf:RDF>
      <cc:Work
         rdf:about="">
        <dc:format>image/svg+xml</dc:format>
        <dc:type
           rdf:resource="http://purl.org/dc/dcmitype/StillImage" />
        <dc:title></dc:title>
      </cc:Work>
    </rdf:RDF>
  </metadata>
  <g
     transform="translate(-157.0195,23.7175)"
     id="layer1">
    <g
       transform="translate(21.2295,-176.9465)"
       id="g5273">
      <path
         d="m 149.988,246.118 h -1.569 l -2.391,-6.327 c -0.184,0.532 -0.374,1.058 -0.573,1.582 -0.199,0.523 -0.399,1.051 -0.598,1.582 -0.183,0.498 -0.374,1.029 -0.573,1.594 -0.199,0.564 -0.391,1.088 -0.573,1.569 h -1.544 l -6.377,-17.212 h 1.768 l 5.356,14.398 c 0.166,-0.449 0.337,-0.918 0.511,-1.408 0.174,-0.49 0.344,-0.96 0.51,-1.408 l 1.171,-3.238 c -0.232,-0.648 -0.473,-1.316 -0.722,-2.005 -0.25,-0.689 -0.499,-1.365 -0.748,-2.03 -0.249,-0.698 -0.51,-1.424 -0.785,-2.18 -0.273,-0.755 -0.527,-1.465 -0.759,-2.129 h 1.744 l 2.515,6.8 c 0.233,0.647 0.465,1.274 0.698,1.881 0.232,0.606 0.464,1.217 0.698,1.831 0.132,0.348 0.257,0.68 0.373,0.996 0.116,0.315 0.228,0.623 0.337,0.922 0.107,0.299 0.219,0.61 0.336,0.933 0.116,0.325 0.249,0.669 0.398,1.035 0.332,-0.93 0.668,-1.857 1.009,-2.778 0.34,-0.922 0.684,-1.856 1.034,-2.803 0.531,-1.46 1.074,-2.939 1.631,-4.433 0.557,-1.495 1.101,-2.956 1.632,-4.384 h 1.793 l -6.302,17.212 z"
         id="path5275"
         style="fill:#531200" />
      <rect
         width="1.694"
         height="17.212"
         x="158.495"
         y="228.90601"
         id="rect5277"
         style="fill:#531200" />
      <polygon
         points="163.165,246.118 163.139,228.906 164.784,228.906 164.784,244.425 172.879,244.425 172.904,246.118 "
         id="polygon5279"
         style="fill:#531200" />
      <polygon
         points="175.071,246.118 175.045,228.906 176.69,228.906 176.69,244.425 184.785,244.425 184.811,246.118 "
         id="polygon5281"
         style="fill:#531200" />
      <rect
         width="1.694"
         height="17.212"
         x="186.99001"
         y="228.90601"
         id="rect5283"
         style="fill:#531200" />
      <path
         d="m 196.915,228.906 h 1.32 l 6.353,17.212 h -1.744 l -2.591,-6.85 h -5.33 c -0.398,1.096 -0.822,2.238 -1.271,3.425 -0.448,1.188 -0.88,2.329 -1.294,3.425 h -1.745 l 6.302,-17.212 z m 2.716,8.668 c -0.167,-0.481 -0.333,-0.937 -0.498,-1.37 -0.167,-0.432 -0.333,-0.863 -0.499,-1.295 v 0.024 c -0.1,-0.265 -0.19,-0.51 -0.274,-0.734 -0.083,-0.225 -0.166,-0.444 -0.249,-0.66 -0.084,-0.216 -0.166,-0.444 -0.249,-0.686 -0.084,-0.24 -0.183,-0.509 -0.298,-0.809 -0.134,0.383 -0.267,0.748 -0.4,1.096 -0.133,0.349 -0.265,0.706 -0.398,1.072 -0.233,0.581 -0.44,1.129 -0.622,1.643 -0.184,0.515 -0.391,1.088 -0.623,1.719 h 4.11 z"
         id="path5285"
         style="fill:#531200" />
      <path
         d="m 218.263,228.906 h 1.569 v 17.212 h -1.694 l -0.024,-13.675 c -0.747,1.245 -1.516,2.549 -2.304,3.91 -0.789,1.363 -1.532,2.665 -2.23,3.911 h -1.046 l -4.608,-7.796 c 0,1.045 0.004,2.117 0.012,3.212 0.009,1.097 0.012,2.176 0.012,3.239 v 7.199 h -1.668 l -0.025,-17.212 h 1.52 l 5.305,8.893 5.181,-8.893 z"
         id="path5287"
         style="fill:#531200" />
      <path
         d="m 223.892,242.605 c 0.415,0.632 0.935,1.13 1.557,1.495 0.623,0.365 1.324,0.548 2.105,0.548 0.464,0 0.909,-0.074 1.332,-0.224 0.424,-0.15 0.797,-0.354 1.121,-0.61 0.324,-0.258 0.581,-0.564 0.773,-0.922 0.19,-0.357 0.286,-0.743 0.286,-1.158 0,-0.382 -0.092,-0.751 -0.274,-1.108 -0.183,-0.358 -0.427,-0.686 -0.735,-0.985 -0.308,-0.299 -0.669,-0.552 -1.083,-0.76 -0.416,-0.207 -0.848,-0.352 -1.296,-0.435 -0.697,-0.1 -1.353,-0.295 -1.968,-0.586 -0.614,-0.29 -1.15,-0.651 -1.606,-1.083 -0.457,-0.432 -0.818,-0.926 -1.084,-1.483 -0.266,-0.555 -0.399,-1.132 -0.399,-1.731 0,-0.681 0.142,-1.308 0.424,-1.88 0.283,-0.573 0.668,-1.071 1.159,-1.495 0.489,-0.423 1.062,-0.755 1.718,-0.996 0.656,-0.24 1.358,-0.361 2.105,-0.361 0.997,0 1.885,0.186 2.665,0.56 0.781,0.374 1.486,0.909 2.118,1.607 l -1.346,1.095 c -0.431,-0.513 -0.938,-0.917 -1.519,-1.208 -0.581,-0.29 -1.221,-0.435 -1.918,-0.435 -0.482,0 -0.943,0.079 -1.382,0.236 -0.44,0.158 -0.831,0.374 -1.171,0.648 -0.341,0.274 -0.615,0.594 -0.822,0.958 -0.208,0.367 -0.312,0.756 -0.312,1.171 0,0.416 0.087,0.815 0.262,1.197 0.175,0.382 0.419,0.726 0.734,1.033 0.316,0.308 0.69,0.557 1.121,0.747 0.432,0.191 0.898,0.311 1.396,0.361 0.697,0.084 1.349,0.275 1.955,0.574 0.606,0.298 1.129,0.664 1.569,1.095 0.44,0.433 0.785,0.922 1.034,1.47 0.25,0.548 0.374,1.121 0.374,1.719 0,0.647 -0.137,1.258 -0.412,1.831 -0.273,0.573 -0.651,1.071 -1.132,1.494 -0.483,0.424 -1.043,0.756 -1.682,0.997 -0.64,0.24 -1.324,0.361 -2.055,0.361 -1.063,0 -2.022,-0.241 -2.877,-0.722 -0.855,-0.482 -1.548,-1.121 -2.08,-1.918 l 1.345,-1.097 z"
         id="path5289"
         style="fill:#531200" />
      <path
         d="m 240.755,246.118 h -5.182 l -0.024,-17.212 h 5.604 c 0.647,0.017 1.258,0.146 1.831,0.386 0.572,0.241 1.07,0.561 1.494,0.959 0.424,0.399 0.76,0.86 1.009,1.383 0.249,0.522 0.374,1.075 0.374,1.656 0,0.781 -0.184,1.487 -0.548,2.117 -0.366,0.631 -0.847,1.155 -1.445,1.57 0.697,0.448 1.262,1.038 1.694,1.768 0.432,0.731 0.648,1.511 0.648,2.342 0,0.681 -0.129,1.319 -0.387,1.918 -0.257,0.598 -0.609,1.12 -1.059,1.569 -0.448,0.449 -0.979,0.806 -1.593,1.071 -0.615,0.266 -1.28,0.407 -1.994,0.424 h 0.026 l -0.448,0.049 z m -3.538,-15.568 v 5.58 h 3.936 c 0.432,-0.017 0.83,-0.096 1.195,-0.237 0.366,-0.141 0.686,-0.336 0.959,-0.585 0.275,-0.249 0.491,-0.548 0.648,-0.897 0.158,-0.348 0.237,-0.722 0.237,-1.121 0,-0.348 -0.079,-0.68 -0.237,-0.997 -0.157,-0.314 -0.373,-0.597 -0.648,-0.847 -0.273,-0.249 -0.593,-0.452 -0.959,-0.61 -0.365,-0.157 -0.763,-0.253 -1.195,-0.286 h -3.936 z m 3.936,13.875 c 0.465,-0.017 0.904,-0.121 1.32,-0.312 0.415,-0.191 0.772,-0.436 1.072,-0.735 0.298,-0.299 0.535,-0.643 0.709,-1.033 0.174,-0.391 0.261,-0.81 0.261,-1.258 0,-0.415 -0.087,-0.813 -0.261,-1.196 -0.174,-0.382 -0.411,-0.723 -0.709,-1.022 -0.3,-0.298 -0.657,-0.539 -1.072,-0.721 -0.416,-0.183 -0.855,-0.291 -1.32,-0.325 h -3.936 v 6.602 h 3.936 z"
         id="path5291"
         style="fill:#531200" />
      <path
         d="m 250.444,241.635 c 0.065,0.382 0.236,0.751 0.511,1.108 0.273,0.358 0.622,0.677 1.046,0.959 0.423,0.283 0.909,0.507 1.457,0.672 0.548,0.167 1.129,0.25 1.744,0.25 0.581,0 1.137,-0.083 1.669,-0.25 0.531,-0.165 1.004,-0.389 1.419,-0.672 0.415,-0.282 0.759,-0.601 1.034,-0.959 0.274,-0.357 0.444,-0.726 0.511,-1.108 v -12.729 h 1.693 v 12.753 c -0.033,0.648 -0.224,1.254 -0.572,1.819 -0.349,0.565 -0.81,1.058 -1.383,1.482 -0.573,0.424 -1.237,0.76 -1.993,1.009 -0.756,0.249 -1.548,0.374 -2.378,0.374 -0.881,0 -1.707,-0.125 -2.479,-0.374 -0.772,-0.249 -1.454,-0.585 -2.043,-1.009 -0.59,-0.424 -1.058,-0.917 -1.407,-1.482 -0.349,-0.565 -0.548,-1.171 -0.598,-1.819 v -12.753 h 1.769 v 12.729 z"
         id="path5293"
         style="fill:#531200" />
      <path
         d="m 265.888,238.347 v 7.772 h -1.669 l -0.024,-17.212 h 5.081 c 0.697,0 1.349,0.111 1.955,0.336 0.606,0.223 1.137,0.535 1.594,0.933 0.457,0.399 0.818,0.869 1.084,1.409 0.265,0.539 0.399,1.116 0.399,1.73 0,0.632 -0.134,1.217 -0.399,1.757 -0.266,0.539 -0.627,1.016 -1.084,1.432 -0.457,0.415 -0.988,0.739 -1.594,0.971 -0.606,0.233 -1.258,0.349 -1.955,0.349 h -1.644 c 0.448,0.514 0.909,1.034 1.382,1.556 0.474,0.524 0.951,1.051 1.433,1.583 0.713,0.813 1.473,1.685 2.279,2.615 0.805,0.93 1.548,1.777 2.229,2.541 h -2.167 l -6.9,-7.772 z m 0,-7.823 v 5.605 h 3.388 c 0.448,0 0.876,-0.071 1.283,-0.211 0.406,-0.141 0.76,-0.341 1.058,-0.598 0.299,-0.258 0.54,-0.557 0.723,-0.898 0.182,-0.339 0.274,-0.71 0.274,-1.108 0,-0.365 -0.092,-0.718 -0.274,-1.059 -0.183,-0.339 -0.428,-0.638 -0.735,-0.896 -0.308,-0.257 -0.664,-0.461 -1.071,-0.61 -0.408,-0.15 -0.843,-0.225 -1.308,-0.225 h -3.338 z"
         id="path5295"
         style="fill:#531200" />
      <path
         d="m 289.552,243.951 c -0.747,0.747 -1.582,1.333 -2.504,1.756 -0.921,0.424 -1.905,0.636 -2.951,0.636 -1.08,0 -2.097,-0.229 -3.052,-0.686 -0.955,-0.456 -1.789,-1.083 -2.503,-1.881 -0.715,-0.797 -1.279,-1.726 -1.694,-2.789 -0.415,-1.063 -0.622,-2.192 -0.622,-3.388 0,-1.212 0.207,-2.35 0.622,-3.413 0.415,-1.063 0.979,-1.993 1.694,-2.79 0.714,-0.797 1.548,-1.427 2.503,-1.892 0.955,-0.465 1.972,-0.699 3.052,-0.699 1.046,0 2.051,0.234 3.014,0.699 0.962,0.465 1.843,1.112 2.64,1.942 l -1.171,1.171 c -0.631,-0.664 -1.333,-1.179 -2.104,-1.544 -0.773,-0.365 -1.566,-0.549 -2.379,-0.549 -0.847,0 -1.649,0.184 -2.404,0.549 -0.756,0.365 -1.416,0.867 -1.98,1.507 -0.565,0.64 -1.014,1.387 -1.346,2.241 -0.332,0.856 -0.498,1.781 -0.498,2.778 0,0.98 0.166,1.902 0.498,2.765 0.332,0.863 0.781,1.615 1.346,2.254 0.564,0.64 1.224,1.146 1.98,1.52 0.755,0.374 1.557,0.56 2.404,0.56 0.73,0 1.42,-0.133 2.067,-0.398 0.648,-0.266 1.229,-0.639 1.743,-1.121 v -4.235 H 283.35 V 237.3 h 6.252 v 6.426 l -0.05,0.225 z"
         id="path5297"
         style="fill:#531200" />
      <path
         d="m 144.849,254.69 c -0.273,-0.288 -0.577,-0.512 -0.908,-0.671 -0.332,-0.158 -0.675,-0.237 -1.029,-0.237 -0.36,0 -0.703,0.079 -1.027,0.237 -0.324,0.159 -0.609,0.375 -0.854,0.65 -0.246,0.274 -0.439,0.596 -0.579,0.968 -0.141,0.371 -0.211,0.77 -0.211,1.196 0,0.418 0.066,0.813 0.2,1.184 0.133,0.371 0.319,0.698 0.556,0.98 0.239,0.281 0.522,0.505 0.85,0.67 0.328,0.166 0.684,0.249 1.065,0.249 0.354,0 0.691,-0.08 1.012,-0.238 0.321,-0.159 0.622,-0.379 0.904,-0.66 l 0.508,0.497 c -0.339,0.354 -0.714,0.633 -1.125,0.839 -0.411,0.205 -0.843,0.309 -1.299,0.309 -0.447,0 -0.876,-0.102 -1.287,-0.303 -0.411,-0.202 -0.773,-0.477 -1.087,-0.822 -0.314,-0.347 -0.564,-0.752 -0.751,-1.218 -0.189,-0.465 -0.282,-0.961 -0.282,-1.487 0,-0.505 0.088,-0.987 0.265,-1.445 0.177,-0.458 0.42,-0.86 0.73,-1.206 0.31,-0.346 0.671,-0.623 1.082,-0.828 0.412,-0.206 0.855,-0.309 1.33,-0.309 0.456,0 0.895,0.103 1.321,0.309 0.426,0.205 0.801,0.485 1.125,0.839 l -0.509,0.497 z"
         id="path5299"
         style="fill:#8e6d35" />
      <path
         d="m 156.382,259.614 c -0.31,0.338 -0.666,0.598 -1.066,0.779 -0.4,0.18 -0.831,0.27 -1.292,0.27 -0.462,0 -0.899,-0.097 -1.31,-0.292 -0.411,-0.195 -0.773,-0.464 -1.087,-0.806 -0.314,-0.343 -0.563,-0.748 -0.747,-1.217 -0.183,-0.469 -0.275,-0.974 -0.275,-1.515 0,-0.526 0.09,-1.018 0.27,-1.476 0.18,-0.458 0.423,-0.859 0.73,-1.201 0.307,-0.343 0.667,-0.614 1.082,-0.812 0.415,-0.198 0.86,-0.298 1.337,-0.298 0.482,0 0.932,0.1 1.347,0.298 0.414,0.198 0.773,0.467 1.076,0.806 0.302,0.34 0.541,0.739 0.714,1.201 0.173,0.462 0.259,0.956 0.259,1.482 0,0.563 -0.089,1.08 -0.27,1.553 -0.179,0.472 -0.437,0.882 -0.768,1.228 m -0.529,-5.02 c -0.231,-0.26 -0.505,-0.458 -0.822,-0.596 -0.318,-0.136 -0.654,-0.205 -1.006,-0.205 -0.376,0 -0.726,0.079 -1.05,0.238 -0.324,0.159 -0.607,0.376 -0.85,0.649 -0.241,0.274 -0.43,0.595 -0.567,0.963 -0.138,0.368 -0.206,0.764 -0.206,1.19 0,0.433 0.068,0.837 0.206,1.212 0.137,0.375 0.326,0.701 0.567,0.979 0.243,0.278 0.526,0.496 0.85,0.655 0.324,0.158 0.674,0.237 1.05,0.237 0.382,0 0.737,-0.079 1.065,-0.237 0.328,-0.159 0.613,-0.377 0.855,-0.655 0.241,-0.278 0.43,-0.604 0.568,-0.979 0.137,-0.375 0.205,-0.779 0.205,-1.212 0,-0.447 -0.075,-0.864 -0.227,-1.25 -0.153,-0.385 -0.366,-0.716 -0.638,-0.989"
         id="path5301"
         style="fill:#8e6d35" />
      <path
         d="m 166.844,256.963 h -3.159 v 1.73 c 0,0.304 0.002,0.618 0.006,0.942 0.003,0.325 0.005,0.635 0.005,0.931 h -0.725 l -0.011,-7.476 h 4.425 v 0.703 h -3.7 v 2.434 h 3.159 v 0.736 z"
         id="path5303"
         style="fill:#8e6d35" />
      <path
         d="m 176.818,256.963 h -3.159 v 1.73 c 0,0.304 0.002,0.618 0.006,0.942 0.003,0.325 0.005,0.635 0.005,0.931 h -0.725 l -0.011,-7.476 h 4.425 v 0.703 h -3.7 v 2.434 h 3.159 v 0.736 z"
         id="path5305"
         style="fill:#8e6d35" />
      <polygon
         points="183.592,253.804 183.592,256.227 186.762,256.227 186.762,256.963 183.592,256.963 183.592,259.83 187.292,259.83 187.303,260.566 182.878,260.566 182.867,253.09 187.292,253.09 187.292,253.804 "
         id="polygon5307"
         style="fill:#8e6d35" />
      <polygon
         points="193.545,253.804 193.545,256.227 196.715,256.227 196.715,256.963 193.545,256.963 193.545,259.83 197.245,259.83 197.256,260.566 192.831,260.566 192.82,253.09 197.245,253.09 197.245,253.804 "
         id="polygon5309"
         style="fill:#8e6d35" />
      <path
         d="m 211.526,257.189 v 3.376 h -0.725 l -0.01,-7.475 h 2.207 c 0.302,0 0.586,0.048 0.848,0.145 0.264,0.098 0.494,0.233 0.693,0.407 0.198,0.172 0.355,0.377 0.47,0.611 0.116,0.234 0.174,0.484 0.174,0.752 0,0.273 -0.058,0.528 -0.174,0.763 -0.115,0.234 -0.272,0.441 -0.47,0.622 -0.199,0.179 -0.429,0.32 -0.693,0.422 -0.262,0.1 -0.546,0.151 -0.848,0.151 h -0.715 c 0.195,0.224 0.395,0.449 0.6,0.676 0.206,0.227 0.414,0.456 0.622,0.687 0.311,0.354 0.641,0.732 0.991,1.136 0.349,0.404 0.673,0.771 0.968,1.103 h -0.941 l -2.997,-3.376 z m 0,-3.396 v 2.434 h 1.472 c 0.194,0 0.38,-0.031 0.556,-0.092 0.177,-0.061 0.33,-0.148 0.46,-0.26 0.13,-0.111 0.235,-0.241 0.314,-0.389 0.08,-0.148 0.119,-0.308 0.119,-0.481 0,-0.159 -0.039,-0.313 -0.119,-0.46 -0.079,-0.148 -0.186,-0.278 -0.319,-0.39 -0.133,-0.112 -0.289,-0.2 -0.465,-0.265 -0.177,-0.065 -0.367,-0.097 -0.569,-0.097 h -1.449 z"
         id="path5311"
         style="fill:#8e6d35" />
      <path
         d="m 226.272,259.614 c -0.31,0.338 -0.666,0.598 -1.066,0.779 -0.4,0.18 -0.831,0.27 -1.292,0.27 -0.462,0 -0.899,-0.097 -1.31,-0.292 -0.411,-0.195 -0.773,-0.464 -1.087,-0.806 -0.314,-0.343 -0.563,-0.748 -0.747,-1.217 -0.183,-0.469 -0.275,-0.974 -0.275,-1.515 0,-0.526 0.09,-1.018 0.27,-1.476 0.18,-0.458 0.423,-0.859 0.73,-1.201 0.307,-0.343 0.667,-0.614 1.082,-0.812 0.415,-0.198 0.86,-0.298 1.337,-0.298 0.482,0 0.932,0.1 1.347,0.298 0.414,0.198 0.773,0.467 1.076,0.806 0.302,0.34 0.541,0.739 0.714,1.201 0.173,0.462 0.259,0.956 0.259,1.482 0,0.563 -0.089,1.08 -0.27,1.553 -0.18,0.472 -0.437,0.882 -0.768,1.228 m -0.53,-5.02 c -0.231,-0.26 -0.505,-0.458 -0.822,-0.596 -0.318,-0.136 -0.654,-0.205 -1.006,-0.205 -0.376,0 -0.726,0.079 -1.05,0.238 -0.324,0.159 -0.607,0.376 -0.85,0.649 -0.241,0.274 -0.43,0.595 -0.567,0.963 -0.138,0.368 -0.206,0.764 -0.206,1.19 0,0.433 0.068,0.837 0.206,1.212 0.137,0.375 0.326,0.701 0.567,0.979 0.243,0.278 0.526,0.496 0.85,0.655 0.324,0.158 0.674,0.237 1.05,0.237 0.382,0 0.737,-0.079 1.065,-0.237 0.328,-0.159 0.613,-0.377 0.855,-0.655 0.241,-0.278 0.43,-0.604 0.568,-0.979 0.137,-0.375 0.205,-0.779 0.205,-1.212 0,-0.447 -0.075,-0.864 -0.227,-1.25 -0.152,-0.385 -0.365,-0.716 -0.638,-0.989"
         id="path5313"
         style="fill:#8e6d35" />
      <path
         d="m 235.371,253.089 h 0.574 l 2.759,7.476 h -0.757 l -1.125,-2.976 h -2.316 c -0.173,0.477 -0.357,0.973 -0.552,1.489 -0.194,0.515 -0.382,1.011 -0.562,1.487 h -0.758 l 2.737,-7.476 z m 1.18,3.765 c -0.072,-0.209 -0.145,-0.407 -0.217,-0.595 -0.072,-0.188 -0.144,-0.375 -0.216,-0.563 v 0.011 c -0.044,-0.116 -0.083,-0.222 -0.119,-0.32 -0.036,-0.097 -0.072,-0.193 -0.108,-0.287 -0.036,-0.094 -0.072,-0.192 -0.109,-0.297 -0.036,-0.104 -0.079,-0.222 -0.129,-0.352 -0.058,0.166 -0.116,0.325 -0.173,0.476 -0.058,0.152 -0.116,0.307 -0.173,0.465 -0.102,0.253 -0.192,0.491 -0.271,0.715 -0.079,0.224 -0.17,0.472 -0.27,0.746 h 1.785 z"
         id="path5315"
         style="fill:#8e6d35" />
      <path
         d="m 244.514,259.04 c 0.18,0.274 0.405,0.49 0.676,0.649 0.27,0.159 0.575,0.238 0.914,0.238 0.202,0 0.395,-0.033 0.579,-0.097 0.184,-0.065 0.346,-0.153 0.487,-0.266 0.141,-0.111 0.252,-0.245 0.335,-0.4 0.083,-0.154 0.124,-0.322 0.124,-0.503 0,-0.166 -0.039,-0.326 -0.119,-0.481 -0.079,-0.156 -0.185,-0.298 -0.318,-0.427 -0.134,-0.13 -0.291,-0.24 -0.471,-0.33 -0.181,-0.091 -0.368,-0.154 -0.562,-0.19 -0.304,-0.044 -0.588,-0.128 -0.856,-0.255 -0.267,-0.126 -0.499,-0.282 -0.697,-0.47 -0.198,-0.188 -0.356,-0.402 -0.471,-0.644 -0.115,-0.241 -0.173,-0.492 -0.173,-0.752 0,-0.295 0.061,-0.567 0.184,-0.816 0.123,-0.249 0.29,-0.466 0.503,-0.65 0.213,-0.183 0.462,-0.328 0.747,-0.432 0.284,-0.105 0.589,-0.157 0.914,-0.157 0.433,0 0.818,0.081 1.157,0.244 0.339,0.162 0.646,0.394 0.92,0.697 l -0.584,0.477 c -0.188,-0.224 -0.408,-0.399 -0.66,-0.526 -0.253,-0.126 -0.53,-0.189 -0.833,-0.189 -0.21,0 -0.41,0.035 -0.601,0.104 -0.191,0.069 -0.361,0.162 -0.508,0.281 -0.148,0.12 -0.267,0.258 -0.357,0.417 -0.091,0.159 -0.136,0.328 -0.136,0.508 0,0.181 0.038,0.354 0.114,0.52 0.076,0.166 0.182,0.315 0.319,0.449 0.137,0.133 0.3,0.241 0.487,0.324 0.188,0.083 0.39,0.135 0.606,0.157 0.302,0.037 0.586,0.119 0.849,0.249 0.263,0.129 0.491,0.289 0.682,0.476 0.19,0.188 0.341,0.4 0.449,0.638 0.108,0.238 0.162,0.487 0.162,0.747 0,0.281 -0.059,0.546 -0.178,0.795 -0.12,0.249 -0.284,0.466 -0.493,0.649 -0.209,0.184 -0.453,0.328 -0.73,0.433 -0.277,0.104 -0.575,0.157 -0.893,0.157 -0.462,0 -0.878,-0.104 -1.249,-0.314 -0.372,-0.209 -0.673,-0.487 -0.904,-0.833 l 0.585,-0.477 z"
         id="path5317"
         style="fill:#8e6d35" />
      <path
         d="m 256.977,253.804 v 3.3 c 0,0.569 0.002,1.148 0.005,1.736 0.004,0.588 0.006,1.163 0.006,1.726 h -0.725 l -0.011,-6.762 h -2.358 v -0.714 h 5.42 v 0.714 h -2.337 z"
         id="path5319"
         style="fill:#8e6d35" />
      <polygon
         points="265.566,253.804 265.566,256.227 268.736,256.227 268.736,256.963 265.566,256.963 265.566,259.83 269.266,259.83 269.277,260.566 264.852,260.566 264.841,253.09 269.266,253.09 269.266,253.804 "
         id="polygon5321"
         style="fill:#8e6d35" />
      <path
         d="m 275.52,257.189 v 3.376 h -0.725 l -0.01,-7.475 h 2.207 c 0.302,0 0.586,0.048 0.848,0.145 0.264,0.098 0.494,0.233 0.693,0.407 0.198,0.172 0.355,0.377 0.47,0.611 0.116,0.234 0.174,0.484 0.174,0.752 0,0.273 -0.058,0.528 -0.174,0.763 -0.115,0.234 -0.272,0.441 -0.47,0.622 -0.199,0.179 -0.429,0.32 -0.693,0.422 -0.262,0.1 -0.546,0.151 -0.848,0.151 h -0.715 c 0.195,0.224 0.395,0.449 0.6,0.676 0.206,0.227 0.414,0.456 0.622,0.687 0.311,0.354 0.641,0.732 0.991,1.136 0.349,0.404 0.673,0.771 0.968,1.103 h -0.941 l -2.997,-3.376 z m 0,-3.396 v 2.434 h 1.472 c 0.194,0 0.38,-0.031 0.556,-0.092 0.177,-0.061 0.33,-0.148 0.46,-0.26 0.13,-0.111 0.235,-0.241 0.314,-0.389 0.08,-0.148 0.119,-0.308 0.119,-0.481 0,-0.159 -0.039,-0.313 -0.119,-0.46 -0.079,-0.148 -0.186,-0.278 -0.319,-0.39 -0.133,-0.112 -0.289,-0.2 -0.465,-0.265 -0.177,-0.065 -0.367,-0.097 -0.569,-0.097 h -1.449 z"
         id="path5323"
         style="fill:#8e6d35" />
      <path
         d="m 285.182,259.04 c 0.18,0.274 0.405,0.49 0.676,0.649 0.27,0.159 0.575,0.238 0.914,0.238 0.202,0 0.395,-0.033 0.579,-0.097 0.184,-0.065 0.346,-0.153 0.487,-0.266 0.141,-0.111 0.252,-0.245 0.335,-0.4 0.083,-0.154 0.124,-0.322 0.124,-0.503 0,-0.166 -0.039,-0.326 -0.119,-0.481 -0.079,-0.156 -0.185,-0.298 -0.318,-0.427 -0.134,-0.13 -0.291,-0.24 -0.471,-0.33 -0.181,-0.091 -0.368,-0.154 -0.562,-0.19 -0.304,-0.044 -0.588,-0.128 -0.856,-0.255 -0.267,-0.126 -0.499,-0.282 -0.697,-0.47 -0.198,-0.188 -0.356,-0.402 -0.471,-0.644 -0.115,-0.241 -0.173,-0.492 -0.173,-0.752 0,-0.295 0.061,-0.567 0.184,-0.816 0.123,-0.249 0.29,-0.466 0.503,-0.65 0.213,-0.183 0.462,-0.328 0.747,-0.432 0.284,-0.105 0.589,-0.157 0.914,-0.157 0.433,0 0.818,0.081 1.157,0.244 0.339,0.162 0.646,0.394 0.92,0.697 l -0.584,0.477 c -0.188,-0.224 -0.408,-0.399 -0.66,-0.526 -0.253,-0.126 -0.53,-0.189 -0.833,-0.189 -0.21,0 -0.41,0.035 -0.601,0.104 -0.191,0.069 -0.361,0.162 -0.508,0.281 -0.148,0.12 -0.267,0.258 -0.357,0.417 -0.091,0.159 -0.136,0.328 -0.136,0.508 0,0.181 0.038,0.354 0.114,0.52 0.076,0.166 0.182,0.315 0.319,0.449 0.137,0.133 0.3,0.241 0.487,0.324 0.188,0.083 0.39,0.135 0.606,0.157 0.302,0.037 0.586,0.119 0.849,0.249 0.263,0.129 0.491,0.289 0.682,0.476 0.19,0.188 0.341,0.4 0.449,0.638 0.108,0.238 0.162,0.487 0.162,0.747 0,0.281 -0.059,0.546 -0.178,0.795 -0.12,0.249 -0.284,0.466 -0.493,0.649 -0.209,0.184 -0.453,0.328 -0.73,0.433 -0.277,0.104 -0.575,0.157 -0.893,0.157 -0.462,0 -0.878,-0.104 -1.249,-0.314 -0.372,-0.209 -0.673,-0.487 -0.904,-0.833 l 0.585,-0.477 z"
         id="path5325"
         style="fill:#8e6d35" />
      <polygon
         points="189.717,213.27 230.815,213.205 252.557,153.229 167.611,153.229 "
         id="polygon5327"
         style="fill:#3a110c" />
      <polygon
         points="214.593,166.563 210.863,177.356 214.558,166.628 "
         id="polygon5329"
         style="fill:#ffffff" />
      <polygon
         points="209.957,179.986 209.957,179.986 210.019,180.008 "
         id="polygon5331"
         style="fill:#ffffff" />
      <polygon
         points="193.61,198.471 197.817,213.257 203.152,198.459 "
         id="polygon5333"
         style="fill:#9a7b49" />
      <polygon
         points="193.61,198.471 203.152,198.459 209.957,179.986 205.076,166.648 "
         id="polygon5335"
         style="fill:#ac9166" />
      <path
         d="m 205.076,166.648 0,0 4.441,-13.419 h -9.161 c 0.301,0.837 3.508,10.016 4.72,13.419"
         id="path5337"
         style="fill:#d0c0a6" />
      <path
         d="M 205.076,166.648"
         id="path5339"
         style="fill:#ffffff" />
      <polygon
         points="184.206,198.486 189.718,213.27 193.61,198.471 "
         id="polygon5341"
         style="fill:#a38657" />
      <polygon
         points="176.848,153.229 167.611,153.229 184.207,198.486 193.61,198.471 "
         id="polygon5343"
         style="fill:#8e6d35" />
      <polygon
         points="193.61,198.471 189.717,213.269 197.817,213.257 "
         id="polygon5345"
         style="fill:#d0c0a6" />
      <polygon
         points="236.215,198.409 252.557,153.229 242.966,153.229 226.617,198.42 "
         id="polygon5347"
         style="fill:#ac9166" />
      <polygon
         points="226.617,198.42 230.815,213.205 236.215,198.409 "
         id="polygon5349"
         style="fill:#8e6d35" />
      <polygon
         points="216.956,198.432 222.572,213.213 226.617,198.42 "
         id="polygon5351"
         style="fill:#9a7b49" />
      <polygon
         points="226.617,198.42 222.572,213.213 230.815,213.205 "
         id="polygon5353"
         style="fill:#d0c0a6" />
      <path
         d="m 205.076,166.648 4.881,13.338 4.819,-13.367 c -0.984,-2.608 -4.99,-13.39 -4.99,-13.39 h -0.269 l -4.441,13.419 z"
         id="path5355"
         style="fill:#9a7b49" />
      <path
         d="M 214.593,166.541"
         id="path5357"
         style="fill:#ffffff" />
      <polygon
         points="214.78,166.665 209.957,179.986 209.957,179.986 216.956,198.432 226.617,198.42 "
         id="polygon5359"
         style="fill:#d0c0a6" />
      <path
         d="m 246.309,170.498 -1.288,3.553 c 0.784,0.73 1.46,1.619 1.988,2.655 1.308,2.529 1.617,5.567 0.904,8.571 -0.708,2.98 -2.38,5.558 -4.687,7.228 -1.638,1.182 -3.476,1.804 -5.307,1.804 -0.074,0 -0.147,-0.005 -0.22,-0.006 l -1.26,3.481 c 0.494,0.076 1.004,0.096 1.514,0.101 2.558,-0.005 5.118,-0.863 7.36,-2.492 3.004,-2.171 5.162,-5.466 6.07,-9.292 0.914,-3.825 0.486,-7.74 -1.203,-11.028 -0.975,-1.881 -2.296,-3.428 -3.871,-4.575"
         id="path5361"
         style="fill:#8e6d35" />
    </g>
  </g>
</svg>
