<?xml version="1.0" encoding="UTF-8" standalone="no"?>
<!-- Created with Inkscape (http://www.inkscape.org/) -->

<svg
   xmlns:dc="http://purl.org/dc/elements/1.1/"
   xmlns:cc="http://creativecommons.org/ns#"
   xmlns:rdf="http://www.w3.org/1999/02/22-rdf-syntax-ns#"
   xmlns:svg="http://www.w3.org/2000/svg"
   xmlns="http://www.w3.org/2000/svg"
   version="1.1"
   width="83.440002"
   height="58.685001"
   id="svg5581">
  <defs
     id="defs5583" />
  <metadata
     id="metadata5586">
    <rdf:RDF>
      <cc:Work
         rdf:about="">
        <dc:format>image/svg+xml</dc:format>
        <dc:type
           rdf:resource="http://purl.org/dc/dcmitype/StillImage" />
        <dc:title></dc:title>
      </cc:Work>
    </rdf:RDF>
  </metadata>
  <polygon
     points="198.729,368.901 193.8,368.908 197.063,380.373 201.202,368.898 "
     transform="translate(-167.785,-323.487)"
     id="polygon4885"
     style="fill:#ffffff" />
  <polygon
     points="204.287,338.608 204.257,338.521 193.88,367.32 199.236,367.314 201.776,367.312 208.319,349.555 204.299,338.576 "
     transform="translate(-167.785,-323.487)"
     id="polygon4887"
     style="fill:#ffffff" />
  <path
     d="m 32.860001,0.001003 c 0.278,0.795 0.684,1.949 1.143,3.255 0.78,2.226 1.716,4.895 2.449,6.976 l 1.403,-4.239 1.984,-5.992 h -6.979 z"
     id="path4889"
     style="fill:#ffffff" />
  <polygon
     points="204.257,338.521 204.287,338.608 204.299,338.576 204.267,338.489 "
     transform="translate(-167.785,-323.487)"
     id="polygon4891"
     style="fill:#ffffff" />
  <polygon
     points="189.493,368.913 184.452,368.92 188.714,380.35 191.724,368.91 "
     transform="translate(-167.785,-323.487)"
     id="polygon4893"
     style="fill:#ffffff" />
  <polygon
     points="189.032,367.328 191.613,367.326 175.374,323.489 167.785,323.489 183.863,367.336 "
     transform="translate(-167.785,-323.487)"
     id="polygon4895"
     style="fill:#ffffff" />
  <polygon
     points="195.927,382.172 192.781,371.117 189.872,382.172 "
     transform="translate(-167.785,-323.487)"
     id="polygon4897"
     style="fill:#ffffff" />
  <polygon
     points="234.967,367.262 250.798,323.487 242.857,323.487 227.019,367.27 231.905,367.264 "
     transform="translate(-167.785,-323.487)"
     id="polygon4899"
     style="fill:#ffffff" />
  <polygon
     points="230.197,380.335 234.389,368.849 231.492,368.852 226.937,368.856 228.543,374.516 "
     transform="translate(-167.785,-323.487)"
     id="polygon4901"
     style="fill:#ffffff" />
  <polygon
     points="221.704,380.359 224.849,368.858 224.756,368.858 217.336,368.867 "
     transform="translate(-167.785,-323.487)"
     id="polygon4903"
     style="fill:#ffffff" />
  <polygon
     points="227.465,376.523 225.901,371.02 222.866,382.119 229.052,382.119 "
     transform="translate(-167.785,-323.487)"
     id="polygon4905"
     style="fill:#ffffff" />
  <path
     d="m 41.372001,23.747003 3.998,-11.09 c -0.844,-2.241 -3.137,-8.406 -4.264,-11.441 l -3.792,11.45 4.058,11.081 z"
     id="path4907"
     style="fill:#ffffff" />
  <path
     d="m 36.451001,10.232003 1.403,-4.239 -1.403,4.239 z"
     id="path4909"
     style="fill:#ffffff" />
  <path
     d="m 36.514001,15.089003 -0.032,-0.087 0.032,0.087 z"
     id="path4911"
     style="fill:#ffffff" />
  <polygon
     points="216.733,367.281 219.797,367.278 224.746,367.272 214.016,338.483 210.083,349.341 210.008,349.552 "
     transform="translate(-167.785,-323.487)"
     id="polygon4913"
     style="fill:#ffffff" />
  <path
     d="m 81.758,21.140003 c -0.981,-1.889 -2.305,-3.444 -3.888,-4.596 l -1.293,3.567 c 0.786,0.735 1.465,1.627 1.997,2.667 1.313,2.539 1.622,5.591 0.907,8.603 -0.711,2.992 -2.389,5.581 -4.705,7.256 -1.644,1.187 -3.49,1.812 -5.327,1.812 -0.075,0 -0.149,-0.006 -0.222,-0.006 l -1.265,3.493 c 0.496,0.078 1.007,0.099 1.519,0.102 2.568,-0.003 5.137,-0.863 7.39,-2.502 3.016,-2.177 5.181,-5.488 6.091,-9.327 0.92,-3.838 0.49,-7.771 -1.204,-11.069"
     id="path4915"
     style="fill:#ffffff" />
</svg>
