<?xml version="1.0" encoding="UTF-8" standalone="no"?>
<!-- Created with Inkscape (http://www.inkscape.org/) -->

<svg
   xmlns:dc="http://purl.org/dc/elements/1.1/"
   xmlns:cc="http://creativecommons.org/ns#"
   xmlns:rdf="http://www.w3.org/1999/02/22-rdf-syntax-ns#"
   xmlns:svg="http://www.w3.org/2000/svg"
   xmlns="http://www.w3.org/2000/svg"
   version="1.1"
   width="57.744095"
   height="260.77908"
   id="svg5581">
  <defs
     id="defs5583" />
  <metadata
     id="metadata5586">
    <rdf:RDF>
      <cc:Work
         rdf:about="">
        <dc:format>image/svg+xml</dc:format>
        <dc:type
           rdf:resource="http://purl.org/dc/dcmitype/StillImage" />
        <dc:title></dc:title>
      </cc:Work>
    </rdf:RDF>
  </metadata>
  <g
     transform="translate(-1.0199165,-586.21627)"
     id="layer1">
    <path
       d="M 1.0199192,839.18053 58.764011,800.90615 v 7.98882 c 0,0 -34.63912,21.8234 -57.7440918,37.9667 v -7.68114 z"
       id="path4563"
       style="fill:#ee3124" />
    <polygon
       points="616.437,882.172 618.042,882.172 618.042,1101.276 616.437,1102.544 "
       transform="matrix(1.1833532,0,0,1.1833532,-728.44278,-457.70361)"
       id="polygon4565"
       style="fill:#ee3124" />
    <polygon
       points="663.627,882.171 665.231,882.171 665.231,1066.807 663.627,1068.077 "
       transform="matrix(1.1833532,0,0,1.1833532,-728.44278,-457.70361)"
       id="polygon4567"
       style="fill:#ee3124" />
    <path
       d="m 30.962306,789.87493 v 1.59161 l -6.413775,2.42469 c 0.538426,0.18579 1.072118,0.37868 1.604627,0.58103 0.528959,0.20235 1.061468,0.40352 1.602261,0.60469 0.505291,0.18697 1.043717,0.37986 1.61291,0.58221 0.573926,0.20236 1.105252,0.39524 1.592793,0.57984 v 1.56558 l -17.449726,6.46584 v -1.79396 l 14.595478,-5.42922 c -0.453224,-0.16922 -0.927748,-0.34081 -1.424757,-0.51831 -0.498192,-0.17632 -0.972716,-0.34909 -1.42594,-0.51831 l -3.284989,-1.18691 c -0.655578,0.23549 -1.333639,0.47926 -2.030634,0.73132 -0.700545,0.25323 -1.384523,0.50529 -2.060218,0.75853 -0.706462,0.25323 -1.441324,0.5183 -2.209321,0.79521 -0.764446,0.27809 -1.486291,0.53488 -2.158436,0.77036 v -1.76911 l 6.894216,-2.54894 c 0.657944,-0.23549 1.293405,-0.47098 1.906382,-0.70765 0.615344,-0.23549 1.231871,-0.47097 1.856681,-0.70764 0.353823,-0.13372 0.691079,-0.26152 1.009401,-0.37868 0.320688,-0.11715 0.630727,-0.23075 0.933665,-0.34199 0.302939,-0.10768 0.620077,-0.22247 0.947866,-0.33962 0.327789,-0.11715 0.676878,-0.25205 1.047268,-0.40352 -0.940766,-0.33726 -1.881532,-0.67806 -2.815198,-1.02242 -0.933665,-0.34554 -1.881531,-0.69463 -2.838864,-1.04845 -1.481558,-0.53843 -2.983233,-1.09105 -4.495559,-1.65433 -1.515875,-0.56446 -2.997434,-1.11472 -4.445858,-1.65314 v -1.81882 l 17.449727,6.39011 z"
       id="path4569"
       style="fill:#ffffff" />
    <rect
       width="17.449728"
       height="1.7170455"
       x="13.512589"
       y="779.53363"
       id="rect4571"
       style="fill:#ffffff" />
    <polygon
       points="626.994,1043.007 626.994,1041.599 640.29,1041.599 640.29,1034.661 641.74,1034.641 641.74,1042.985 "
       transform="matrix(1.1833532,0,0,1.1833532,-728.44278,-457.70361)"
       id="polygon4573"
       style="fill:#ffffff" />
    <polygon
       points="626.994,1032.806 626.994,1031.397 640.29,1031.397 640.29,1024.461 641.74,1024.439 641.74,1032.784 "
       transform="matrix(1.1833532,0,0,1.1833532,-728.44278,-457.70361)"
       id="polygon4575"
       style="fill:#ffffff" />
    <rect
       width="17.449728"
       height="1.7170455"
       x="13.512589"
       y="750.64319"
       id="rect4577"
       style="fill:#ffffff" />
    <path
       d="m 13.512579,742.29821 v -1.33955 l 17.449727,-6.43863 v 1.76675 l -6.9451,2.62704 v 5.40438 c 1.112352,0.40471 2.269671,0.83308 3.475508,1.28749 1.20347,0.45559 2.359606,0.89343 3.470775,1.31352 v 1.76793 l -17.45091,-6.38893 z m 8.786398,-2.75248 c -0.486358,0.16804 -0.950233,0.33608 -1.389257,0.5053 -0.436657,0.16803 -0.872131,0.33607 -1.311155,0.50647 h 0.02485 c -0.267438,0.0994 -0.517125,0.19171 -0.744329,0.27572 -0.228387,0.084 -0.449674,0.16922 -0.669778,0.25324 -0.217737,0.084 -0.450858,0.16804 -0.693445,0.25206 -0.244954,0.084 -0.517125,0.18578 -0.821247,0.30412 0.38814,0.13372 0.757346,0.2698 1.109985,0.40352 0.353823,0.13609 0.717112,0.2698 1.086318,0.40471 0.58931,0.23548 1.147853,0.44612 1.666162,0.63072 0.523042,0.18697 1.106435,0.39643 1.743079,0.63192 v -4.16778 z"
       id="path4579"
       style="fill:#ffffff" />
    <path
       d="m 13.512579,720.65468 v -1.59161 h 17.449727 v 1.71705 l -13.86535,0.0249 c 1.265005,0.75853 2.587993,1.53718 3.967783,2.33831 1.37979,0.79876 2.700412,1.55256 3.96305,2.25902 v 1.06028 l -7.903616,4.6707 c 1.060285,0 2.14542,0 3.258955,-0.0118 1.109985,-0.0118 2.203404,-0.013 3.280255,-0.013 h 7.298923 v 1.69219 l -17.449727,0.0249 v -1.54072 l 9.015968,-5.37953 -9.015968,-5.25054 z"
       id="path4581"
       style="fill:#ffffff" />
    <path
       d="m 27.402779,714.94737 c 0.637828,-0.41891 1.145486,-0.94668 1.513509,-1.57741 0.37039,-0.63191 0.554993,-1.3431 0.554993,-2.13477 0,-0.47097 -0.07455,-0.92183 -0.224837,-1.35139 -0.152653,-0.42955 -0.35619,-0.80941 -0.617711,-1.1372 -0.261521,-0.32779 -0.571559,-0.58813 -0.936032,-0.7822 -0.360923,-0.1917 -0.753796,-0.28992 -1.173887,-0.28992 -0.384589,0 -0.760896,0.0923 -1.121818,0.27691 -0.364473,0.1846 -0.695812,0.4331 -0.999934,0.74551 -0.302938,0.31122 -0.559726,0.67688 -0.767996,1.09815 -0.210637,0.42128 -0.358556,0.85912 -0.441391,1.31352 -0.101768,0.70765 -0.300572,1.37151 -0.594043,1.99514 -0.293472,0.62362 -0.662678,1.1656 -1.098152,1.62947 -0.439024,0.46388 -0.938399,0.82954 -1.505225,1.09816 -0.563277,0.27098 -1.147853,0.4047 -1.75373,0.4047 -0.691078,0 -1.325355,-0.14318 -1.905199,-0.42955 -0.581026,-0.28519 -1.086318,-0.67688 -1.517058,-1.17389 -0.427191,-0.49583 -0.764447,-1.07685 -1.009401,-1.74308 -0.242587,-0.66504 -0.366839,-1.37624 -0.366839,-2.13359 0,-1.01058 0.189336,-1.91111 0.569193,-2.70277 0.377489,-0.79048 0.920649,-1.50523 1.629477,-2.14542 l 1.108802,1.36322 c -0.518309,0.43784 -0.928932,0.95141 -1.224771,1.54072 -0.293471,0.5905 -0.44139,1.23779 -0.44139,1.94544 0,0.48754 0.08047,0.95615 0.24022,1.40227 0.160936,0.44731 0.378673,0.84255 0.657945,1.18809 0.275721,0.34435 0.60351,0.62126 0.971533,0.8319 0.370389,0.21063 0.765629,0.31595 1.18572,0.31595 0.422457,0 0.824797,-0.0876 1.212937,-0.26507 0.386956,-0.17632 0.737229,-0.42482 1.047267,-0.74551 0.313589,-0.32069 0.565643,-0.69818 0.759713,-1.13721 0.19407,-0.43665 0.315956,-0.90881 0.36684,-1.41292 0.08402,-0.70764 0.278088,-1.36796 0.581026,-1.9833 0.301755,-0.61534 0.672145,-1.1443 1.109985,-1.59161 0.436658,-0.44494 0.933666,-0.79521 1.489842,-1.04845 0.55736,-0.25205 1.137203,-0.37749 1.74308,-0.37749 0.655577,0 1.275654,0.13845 1.855497,0.41654 0.581027,0.27809 1.086319,0.66149 1.514693,1.15022 0.42719,0.48754 0.765629,1.05673 1.010583,1.70521 0.242588,0.6473 0.364473,1.34192 0.364473,2.0827 0,1.07685 -0.242587,2.04957 -0.732496,2.91697 -0.487541,0.8674 -1.137202,1.56913 -1.944249,2.10873 l -1.111169,-1.36677 z"
       id="path4583"
       style="fill:#ffffff" />
    <path
       d="m 30.962306,697.85028 v 5.25173 l -17.449727,0.0249 v -5.68247 c 0.01775,-0.65676 0.147919,-1.27447 0.390507,-1.85549 0.244954,-0.58103 0.569193,-1.08632 0.972716,-1.5147 0.404707,-0.42955 0.872131,-0.77036 1.40109,-1.02241 0.531326,-0.25324 1.092235,-0.37868 1.681545,-0.37868 0.79048,0 1.505225,0.18461 2.14542,0.55618 0.640194,0.37039 1.170336,0.85911 1.590426,1.46381 0.456775,-0.70765 1.053185,-1.27921 1.795147,-1.71705 0.739596,-0.43784 1.532443,-0.65676 2.373807,-0.65676 0.691078,0 1.337189,0.13017 1.943066,0.39169 0.609427,0.26152 1.137202,0.61771 1.59161,1.07212 0.455591,0.45559 0.816514,0.99402 1.086318,1.61646 0.269805,0.62244 0.414174,1.29695 0.428374,2.01998 v -0.0249 l 0.0497,0.45559 z m -15.783566,3.58556 h 5.658796 v -3.99026 c -0.01893,-0.43666 -0.09704,-0.84137 -0.241405,-1.21176 -0.143185,-0.37039 -0.341989,-0.69463 -0.594043,-0.97153 -0.250871,-0.27809 -0.553809,-0.49701 -0.907632,-0.65676 -0.355006,-0.16094 -0.732495,-0.24022 -1.137202,-0.24022 -0.355006,0 -0.691079,0.0793 -1.010584,0.24022 -0.320689,0.15975 -0.604693,0.37749 -0.859114,0.65676 -0.252055,0.2769 -0.459141,0.60233 -0.617711,0.97153 -0.160936,0.37039 -0.255604,0.7751 -0.291105,1.21176 v 3.99026 z m 14.067704,-3.99026 c -0.01775,-0.47098 -0.123069,-0.9171 -0.318322,-1.33838 -0.191704,-0.42009 -0.441391,-0.78338 -0.743146,-1.08631 -0.302939,-0.30294 -0.652028,-0.54316 -1.047268,-0.71948 -0.39524,-0.17632 -0.821247,-0.26507 -1.275655,-0.26507 -0.421273,0 -0.82598,0.0876 -1.21412,0.26507 -0.385773,0.17632 -0.730129,0.41772 -1.035434,0.71948 -0.302939,0.30293 -0.545526,0.66622 -0.730129,1.08631 -0.18342,0.42009 -0.295838,0.86622 -0.326606,1.33838 v 3.99026 h 6.69068 v -3.99026 z"
       id="path4585"
       style="fill:#ffffff" />
    <path
       d="m 26.415863,688.02609 c 0.38814,-0.0675 0.764446,-0.23904 1.125369,-0.51713 0.362106,-0.27809 0.686344,-0.63191 0.970349,-1.06147 0.287555,-0.42837 0.513576,-0.92065 0.682795,-1.47682 0.168036,-0.55618 0.252054,-1.14549 0.252054,-1.76793 0,-0.58931 -0.08402,-1.15377 -0.252054,-1.6922 -0.170403,-0.53842 -0.39524,-1.01768 -0.682795,-1.44014 -0.284005,-0.42009 -0.609427,-0.76918 -0.970349,-1.04845 -0.362106,-0.2769 -0.737229,-0.44967 -1.125369,-0.51831 H 13.513762 v -1.71704 h 12.928134 c 0.656761,0.0343 1.272105,0.2272 1.844848,0.58102 0.572743,0.35383 1.072118,0.82007 1.504042,1.40228 0.426007,0.57984 0.767996,1.25435 1.020051,2.01998 0.253237,0.76563 0.378673,1.57031 0.378673,2.41167 0,0.89344 -0.125436,1.73007 -0.378673,2.51345 -0.252055,0.78219 -0.594044,1.47327 -1.020051,2.07086 -0.43074,0.5976 -0.930116,1.07212 -1.504042,1.42595 -0.571559,0.35382 -1.188087,0.55617 -1.844848,0.60706 H 13.513762 v -1.79397 h 12.902101 z"
       id="path4587"
       style="fill:#ffffff" />
    <path
       d="m 23.08354,672.36914 h 7.878766 v 1.69219 l -17.449727,0.0249 v -5.15232 c 0,-0.70764 0.114785,-1.36795 0.339622,-1.9833 0.229571,-0.61534 0.54316,-1.15377 0.947866,-1.61646 0.405891,-0.46269 0.880415,-0.82834 1.425941,-1.09815 0.547893,-0.2698 1.132469,-0.4047 1.75728,-0.4047 0.640194,0 1.23187,0.1349 1.779763,0.4047 0.546709,0.26981 1.0307,0.63546 1.450791,1.09815 0.42364,0.46388 0.752613,1.0023 0.986916,1.61646 0.235488,0.61535 0.355006,1.27566 0.355006,1.9833 v 1.66617 c 0.518309,-0.45441 1.047268,-0.92184 1.576227,-1.40228 0.530142,-0.47926 1.063834,-0.96325 1.60226,-1.45197 0.825981,-0.72421 1.711129,-1.49458 2.654262,-2.31109 0.940765,-0.81651 1.79988,-1.56913 2.573793,-2.26021 v 2.19631 l -7.878766,6.99835 z m -7.92965,0 h 5.683646 v -3.43409 c 0,-0.45559 -0.07337,-0.8887 -0.216554,-1.30169 -0.142002,-0.41299 -0.346723,-0.76918 -0.608244,-1.0733 -0.257971,-0.30294 -0.563276,-0.54671 -0.907632,-0.73131 -0.344355,-0.18579 -0.719478,-0.27809 -1.123002,-0.27809 -0.370389,0 -0.728945,0.0923 -1.075668,0.27809 -0.344356,0.1846 -0.646111,0.4331 -0.907632,0.74432 -0.262704,0.31241 -0.468608,0.67333 -0.620077,1.08632 -0.150286,0.41299 -0.224837,0.85557 -0.224837,1.32536 v 3.38439 z"
       id="path4589"
       style="fill:#ffffff" />
    <path
       d="m 28.767186,648.37665 c 0.756162,0.75735 1.350206,1.60226 1.777396,2.53948 0.428374,0.93366 0.644928,1.93123 0.644928,2.99151 0,1.09461 -0.230754,2.12531 -0.693445,3.09329 -0.466242,0.96798 -1.101702,1.81408 -1.906382,2.53829 -0.810597,0.72422 -1.75018,1.29696 -2.829398,1.71705 -1.076851,0.42009 -2.222337,0.63073 -3.434091,0.63073 -1.227137,0 -2.383274,-0.21064 -3.460125,-0.63073 -1.076851,-0.42009 -2.019984,-0.99283 -2.830581,-1.71705 -0.805863,-0.72303 -1.446058,-1.56912 -1.918215,-2.53829 -0.469792,-0.96798 -0.707646,-1.99868 -0.707646,-3.09329 0,-1.06028 0.236671,-2.07915 0.707646,-3.0566 0.472157,-0.97508 1.127735,-1.86851 1.969099,-2.67674 l 1.188087,1.1869 c -0.670961,0.6402 -1.195187,1.35139 -1.565576,2.13477 -0.37039,0.7822 -0.556176,1.58688 -0.556176,2.41167 0,0.85912 0.184603,1.6709 0.556176,2.43771 0.371573,0.76682 0.880414,1.43541 1.527709,2.00697 0.649661,0.57156 1.405823,1.02715 2.274405,1.36322 0.865031,0.33726 1.80343,0.50529 2.815197,0.50529 0.992833,0 1.927682,-0.16803 2.803364,-0.50529 0.874498,-0.33607 1.638944,-0.79166 2.285055,-1.36322 0.649661,-0.57156 1.163236,-1.24134 1.539542,-2.00697 0.379857,-0.76563 0.569193,-1.57859 0.569193,-2.43771 0,-0.74077 -0.134902,-1.44014 -0.404707,-2.09571 -0.269804,-0.65558 -0.647294,-1.24607 -1.134835,-1.76793 h -4.294389 v 4.62099 h -1.666162 v -6.33804 h 6.515543 l 0.228388,0.0497 z"
       id="path4591"
       style="fill:#ffffff" />
    <path
       d="m 39.832722,792.67119 c -0.293472,0.27809 -0.518309,0.58458 -0.680428,0.92065 -0.160937,0.33608 -0.240221,0.68398 -0.240221,1.04254 0,0.36684 0.07928,0.71356 0.240221,1.04253 0.162119,0.32897 0.379856,0.61771 0.657944,0.86622 0.278088,0.2485 0.605877,0.44375 0.983366,0.58694 0.376307,0.142 0.781014,0.21419 1.209387,0.21419 0.424824,0 0.824798,-0.0686 1.203471,-0.20354 0.375123,-0.1349 0.706462,-0.32306 0.992833,-0.56564 0.285188,-0.24141 0.511209,-0.52778 0.680428,-0.86148 0.168036,-0.33253 0.252054,-0.69227 0.252054,-1.08041 0,-0.35855 -0.08165,-0.70054 -0.241404,-1.02478 -0.160936,-0.32542 -0.385773,-0.63073 -0.669778,-0.91591 l 0.505292,-0.51595 c 0.358556,0.34436 0.642561,0.72303 0.850831,1.14076 0.207087,0.41772 0.311222,0.85793 0.311222,1.31588 0,0.45441 -0.101768,0.8887 -0.305305,1.30643 -0.20472,0.41654 -0.482808,0.78338 -0.834264,1.10288 -0.351456,0.31832 -0.76208,0.57156 -1.234237,0.76208 -0.469792,0.19052 -0.975084,0.28519 -1.508776,0.28519 -0.511208,0 -0.99875,-0.0888 -1.461441,-0.26862 -0.466241,-0.17869 -0.874498,-0.42601 -1.223587,-0.74078 -0.350273,-0.31477 -0.630728,-0.68043 -0.838998,-1.09697 -0.209453,-0.41772 -0.313588,-0.86621 -0.313588,-1.35021 0,-0.45914 0.104135,-0.90644 0.313588,-1.33837 0.20827,-0.43074 0.491092,-0.81178 0.848464,-1.14075 l 0.502926,0.51712 z"
       id="path4593"
       style="fill:#ac9166" />
    <path
       d="m 44.824106,781.08853 c 0.344355,0.31478 0.60706,0.67451 0.79048,1.08041 0.181053,0.40589 0.270987,0.84254 0.270987,1.30997 0,0.46742 -0.09703,0.91118 -0.295838,1.32654 -0.196437,0.41772 -0.468608,0.78456 -0.814147,1.10406 -0.346722,0.31833 -0.759713,0.5692 -1.234237,0.75735 -0.476892,0.18579 -0.986917,0.27927 -1.53836,0.27927 -0.532509,0 -1.029517,-0.0911 -1.495758,-0.27454 -0.463875,-0.18223 -0.870948,-0.42837 -1.217671,-0.73959 -0.349089,-0.31122 -0.620077,-0.67688 -0.821247,-1.09815 -0.20117,-0.41891 -0.302938,-0.87095 -0.302938,-1.35494 0,-0.48991 0.101768,-0.9455 0.302938,-1.36559 0.20117,-0.41891 0.472158,-0.78338 0.814147,-1.09105 0.344356,-0.30768 0.75143,-0.54908 1.217671,-0.72303 0.468608,-0.17514 0.969166,-0.26389 1.502858,-0.26389 0.570377,0 1.096969,0.0911 1.57386,0.27335 0.480442,0.18342 0.894615,0.44258 1.247255,0.77983 m -5.090786,0.53725 c -0.263888,0.2343 -0.465058,0.51239 -0.60351,0.83308 -0.138453,0.32187 -0.20827,0.66267 -0.20827,1.02005 0,0.37985 0.08165,0.73486 0.241404,1.06383 0.160936,0.32897 0.381039,0.61653 0.657944,0.86148 0.278088,0.24496 0.60351,0.43666 0.975083,0.57511 0.375123,0.13964 0.777463,0.20946 1.20702,0.20946 0.439024,0 0.849648,-0.0698 1.229504,-0.20946 0.378673,-0.13845 0.713562,-0.33015 0.99165,-0.57511 0.281639,-0.24495 0.505292,-0.53132 0.666228,-0.86148 0.159753,-0.32897 0.241404,-0.68398 0.241404,-1.06383 0,-0.38696 -0.08165,-0.74788 -0.241404,-1.0804 -0.160936,-0.33253 -0.383406,-0.62126 -0.666228,-0.86622 -0.278088,-0.24495 -0.612977,-0.43666 -0.99165,-0.57511 -0.379856,-0.13845 -0.79048,-0.20827 -1.229504,-0.20827 -0.453224,0 -0.872131,0.0757 -1.265004,0.22957 -0.39169,0.15384 -0.727762,0.36921 -1.004667,0.6473"
       id="path4595"
       style="fill:#ac9166" />
    <path
       d="m 42.134344,770.59101 v 3.20215 h 1.756096 c 0.307672,0 0.62481,-10e-4 0.954966,0 0.327789,0 0.642561,-0.0118 0.943132,-0.0118 v 0.73486 l -7.579377,0.0118 v -4.48609 h 0.713562 v 3.75123 h 2.468475 v -3.20215 h 0.743146 z"
       id="path4597"
       style="fill:#ac9166" />
    <path
       d="m 42.134344,760.58694 v 3.20215 h 1.756096 c 0.307672,0 0.62481,-10e-4 0.954966,0 0.327789,0 0.642561,-0.0118 0.943132,-0.0118 v 0.73486 l -7.579377,0.0118 v -4.4861 h 0.713562 v 3.75123 h 2.468475 v -3.20215 h 0.743146 z"
       id="path4599"
       style="fill:#ac9166" />
    <polygon
       points="650.552,1023.813 650.552,1021.098 651.181,1021.098 651.181,1023.813 653.638,1023.813 653.638,1020.644 654.269,1020.635 654.269,1024.426 647.864,1024.435 647.864,1020.644 648.474,1020.644 648.474,1023.813 "
       transform="matrix(1.1833532,0,0,1.1833532,-728.44278,-457.70361)"
       id="polygon4601"
       style="fill:#ac9166" />
    <polygon
       points="650.552,1015.379 650.552,1012.663 651.181,1012.663 651.181,1015.379 653.638,1015.379 653.638,1012.209 654.269,1012.2 654.269,1015.991 647.864,1016 647.864,1012.209 648.474,1012.209 648.474,1015.379 "
       transform="matrix(1.1833532,0,0,1.1833532,-728.44278,-457.70361)"
       id="polygon4603"
       style="fill:#ac9166" />
    <path
       d="m 42.365098,725.83659 h 3.424624 v 0.73486 l -7.581744,0.0118 v -2.2389 c 0,-0.30649 0.05088,-0.59404 0.147919,-0.86148 0.0994,-0.26744 0.23667,-0.50056 0.411807,-0.70173 0.176319,-0.20117 0.383406,-0.36092 0.620077,-0.47689 0.237854,-0.11715 0.492275,-0.17514 0.762079,-0.17514 0.279272,0 0.536059,0.0592 0.773913,0.17514 0.239038,0.11715 0.448491,0.27572 0.631911,0.47689 0.182236,0.20117 0.324239,0.43429 0.42719,0.70173 0.101769,0.26744 0.152653,0.55499 0.152653,0.86148 v 0.72421 c 0.224837,-0.19762 0.455591,-0.40116 0.686345,-0.60943 0.22957,-0.20827 0.462691,-0.4189 0.695812,-0.63072 0.358556,-0.31477 0.741962,-0.64848 1.152586,-1.00349 0.40944,-0.355 0.782196,-0.68161 1.119452,-0.98218 v 0.95497 l -3.424624,3.03885 z m -3.443558,0 h 2.469658 v -1.49221 c 0,-0.19644 -0.03195,-0.38459 -0.09467,-0.56446 -0.0639,-0.17869 -0.150286,-0.33607 -0.265072,-0.46742 -0.113601,-0.13136 -0.244954,-0.23668 -0.39524,-0.31833 -0.147919,-0.0805 -0.311221,-0.12188 -0.487541,-0.12188 -0.159753,0 -0.315955,0.0402 -0.463875,0.12188 -0.150285,0.0805 -0.282821,0.18816 -0.39524,0.32306 -0.113601,0.1349 -0.203536,0.29229 -0.270987,0.47097 -0.06508,0.17869 -0.09703,0.37039 -0.09703,0.57511 v 1.47328 z"
       id="path4605"
       style="fill:#ac9166" />
    <path
       d="m 44.824106,710.99615 c 0.344355,0.31596 0.60706,0.67452 0.79048,1.08041 0.181053,0.40589 0.270987,0.84254 0.270987,1.30997 0,0.46742 -0.09703,0.91118 -0.295838,1.32772 -0.196437,0.41654 -0.468608,0.78338 -0.814147,1.10289 -0.346722,0.31832 -0.759713,0.56919 -1.234237,0.75734 -0.476892,0.18579 -0.986917,0.27927 -1.53836,0.27927 -0.532509,0 -1.029517,-0.0911 -1.495758,-0.27453 -0.463875,-0.18224 -0.870948,-0.42838 -1.217671,-0.7396 -0.349089,-0.31122 -0.620077,-0.67688 -0.821247,-1.09815 -0.20117,-0.41891 -0.302938,-0.87095 -0.302938,-1.35494 0,-0.48991 0.101768,-0.9455 0.302938,-1.36559 0.20117,-0.41891 0.472158,-0.78338 0.814147,-1.09105 0.344356,-0.30767 0.75143,-0.54908 1.217671,-0.72303 0.468608,-0.17514 0.969166,-0.26389 1.502858,-0.26389 0.570377,0 1.096969,0.0911 1.57386,0.27336 0.480442,0.18341 0.894615,0.44375 1.247255,0.77982 m -5.090786,0.53725 c -0.263888,0.2343 -0.465058,0.51239 -0.60351,0.83308 -0.138453,0.32187 -0.20827,0.66268 -0.20827,1.02005 0,0.37985 0.08165,0.73604 0.241404,1.06383 0.160936,0.32898 0.381039,0.61653 0.657944,0.86148 0.278088,0.24496 0.60351,0.43784 0.975083,0.57511 0.375123,0.13964 0.777463,0.20946 1.20702,0.20946 0.439024,0 0.849648,-0.0698 1.229504,-0.20946 0.378673,-0.13727 0.713562,-0.33015 0.99165,-0.57511 0.281639,-0.24495 0.505292,-0.53132 0.666228,-0.86148 0.159753,-0.32779 0.241404,-0.68398 0.241404,-1.06383 0,-0.38696 -0.08165,-0.74788 -0.241404,-1.0804 -0.160936,-0.33253 -0.383406,-0.62126 -0.666228,-0.86622 -0.278088,-0.24495 -0.612977,-0.43665 -0.99165,-0.57511 -0.379856,-0.13845 -0.79048,-0.20827 -1.229504,-0.20827 -0.453224,0 -0.872131,0.0757 -1.265004,0.22957 -0.39169,0.15384 -0.727762,0.37039 -1.004667,0.6473"
       id="path4607"
       style="fill:#ac9166" />
    <path
       d="m 38.207978,701.88078 v -0.58102 l 7.581744,-2.79745 v 0.768 l -3.016368,1.14075 v 2.34659 c 0.479258,0.17514 0.983367,0.36211 1.505226,0.55973 0.523042,0.19762 1.025967,0.38814 1.509958,0.57037 v 0.76681 l -7.58056,-2.77378 z m 3.817497,-1.19637 c -0.213003,0.0734 -0.414173,0.14674 -0.60351,0.22011 -0.189337,0.0734 -0.38104,0.14673 -0.569193,0.2201 h 0.01183 c -0.119519,0.0438 -0.227204,0.084 -0.324239,0.1207 -0.0994,0.0367 -0.196437,0.0734 -0.291105,0.11006 -0.09467,0.0367 -0.196437,0.0734 -0.302938,0.11005 -0.104136,0.0367 -0.222471,0.0805 -0.35619,0.13135 0.16922,0.0592 0.331339,0.11715 0.483992,0.17514 0.153836,0.058 0.311222,0.11715 0.469791,0.17513 0.257971,0.10177 0.497008,0.19171 0.723029,0.27336 0.227204,0.0805 0.481625,0.17277 0.758529,0.27335 v -1.80935 z"
       id="path4609"
       style="fill:#ac9166" />
    <path
       d="m 44.241896,692.72163 c 0.276904,-0.18224 0.498191,-0.41181 0.657944,-0.68516 0.160936,-0.27336 0.242588,-0.58339 0.242588,-0.92657 0,-0.20472 -0.0355,-0.40115 -0.0994,-0.58694 -0.06627,-0.18579 -0.155019,-0.35146 -0.269805,-0.49346 -0.112418,-0.14318 -0.249687,-0.25679 -0.407073,-0.3408 -0.156203,-0.0828 -0.325422,-0.12426 -0.510025,-0.12426 -0.168037,0 -0.330156,0.0391 -0.487542,0.12071 -0.157386,0.0816 -0.300572,0.18815 -0.433107,0.32305 -0.131352,0.1349 -0.242588,0.29466 -0.334889,0.47689 -0.08994,0.18224 -0.155019,0.37276 -0.191703,0.5692 -0.04378,0.30767 -0.127803,0.59641 -0.259155,0.86621 -0.126619,0.27099 -0.286371,0.50766 -0.475708,0.70883 -0.188153,0.20117 -0.407073,0.35974 -0.652027,0.47571 -0.244954,0.11833 -0.499375,0.17513 -0.76208,0.17513 -0.300572,0 -0.576293,-0.0615 -0.82953,-0.18578 -0.252055,-0.12425 -0.472158,-0.29466 -0.656762,-0.51003 -0.186969,-0.21655 -0.332522,-0.46861 -0.439024,-0.75734 -0.107685,-0.28874 -0.160936,-0.59878 -0.160936,-0.92657 0,-0.43902 0.08284,-0.83071 0.247321,-1.17389 0.16567,-0.34317 0.401157,-0.65439 0.708829,-0.93248 l 0.482808,0.59286 c -0.227204,0.18934 -0.40589,0.41299 -0.531326,0.6686 -0.130169,0.2556 -0.191703,0.53724 -0.191703,0.84491 0,0.21182 0.03432,0.41536 0.102952,0.60824 0.06982,0.19407 0.164486,0.36684 0.285188,0.51595 0.119519,0.15028 0.260338,0.27098 0.421274,0.36329 0.160936,0.0911 0.332522,0.13608 0.517125,0.13608 0.181053,0 0.357373,-0.0379 0.525409,-0.11478 0.168036,-0.0769 0.319505,-0.18461 0.456774,-0.32306 0.132536,-0.13845 0.244954,-0.30412 0.326606,-0.49346 0.08283,-0.19052 0.136085,-0.39524 0.160936,-0.61534 0.0355,-0.30767 0.119518,-0.59405 0.252054,-0.86148 0.130169,-0.26744 0.291105,-0.49701 0.482808,-0.69108 0.188153,-0.19407 0.404707,-0.34554 0.647294,-0.45559 0.240221,-0.11005 0.492275,-0.16449 0.75498,-0.16449 0.287555,0 0.554992,0.0604 0.807047,0.17987 0.252054,0.12189 0.472158,0.28756 0.660311,0.49938 0.183419,0.213 0.331339,0.45914 0.439024,0.74078 0.104135,0.28045 0.157386,0.58221 0.157386,0.90526 0,0.46861 -0.104135,0.88988 -0.318322,1.26619 -0.213004,0.37631 -0.494642,0.68161 -0.846098,0.91591 l -0.480441,-0.59049 z"
       id="path4611"
       style="fill:#ac9166" />
    <path
       d="m 38.931006,680.19584 h 3.346523 c 0.577477,0 1.165603,-10e-4 1.76083,-0.006 0.59641,-0.004 1.17862,-0.005 1.750179,-0.005 v 0.73486 l -6.858715,0.0107 v 2.39156 h -0.721845 v -5.4955 h 0.721845 v 2.36908 z"
       id="path4613"
       style="fill:#ac9166" />
    <polygon
       points="650.552,954.321 650.552,951.605 651.181,951.605 651.181,954.321 653.638,954.321 653.638,951.151 654.269,951.143 654.269,954.934 647.864,954.942 647.864,951.151 648.474,951.151 648.474,954.321 "
       transform="matrix(1.1833532,0,0,1.1833532,-728.44278,-457.70361)"
       id="polygon4615"
       style="fill:#ac9166" />
    <path
       d="m 42.365098,661.61364 h 3.424624 v 0.73486 l -7.581744,0.0118 v -2.23891 c 0,-0.30767 0.05088,-0.59404 0.147919,-0.86148 0.0994,-0.26744 0.23667,-0.50056 0.411807,-0.70173 0.176319,-0.20117 0.383406,-0.36092 0.620077,-0.47689 0.237854,-0.11715 0.492275,-0.17513 0.762079,-0.17513 0.279272,0 0.536059,0.0592 0.773913,0.17513 0.239038,0.11715 0.448491,0.27572 0.631911,0.47689 0.182236,0.20117 0.324239,0.43429 0.42719,0.70173 0.101769,0.26744 0.152653,0.55381 0.152653,0.86148 v 0.72421 c 0.224837,-0.19762 0.455591,-0.40115 0.686345,-0.60942 0.22957,-0.20827 0.462691,-0.41891 0.695812,-0.63073 0.358556,-0.31477 0.741962,-0.64848 1.152586,-1.00348 0.40944,-0.35501 0.782196,-0.68161 1.119452,-0.98219 v 0.95497 l -3.424624,3.03885 z m -3.443558,0 h 2.469658 v -1.49221 c 0,-0.19643 -0.03195,-0.38459 -0.09467,-0.56446 -0.0639,-0.17868 -0.150286,-0.33607 -0.265072,-0.46742 -0.113601,-0.13135 -0.244954,-0.23667 -0.39524,-0.31832 -0.147919,-0.0805 -0.311221,-0.12189 -0.487541,-0.12189 -0.159753,0 -0.315955,0.0402 -0.463875,0.12189 -0.150285,0.0805 -0.282821,0.18815 -0.39524,0.32305 -0.113601,0.1349 -0.203536,0.29229 -0.270987,0.46979 -0.06508,0.17987 -0.09703,0.37158 -0.09703,0.5763 v 1.47327 z"
       id="path4617"
       style="fill:#ac9166" />
    <path
       d="m 44.241896,651.92789 c 0.276904,-0.18223 0.498191,-0.4118 0.657944,-0.68516 0.160936,-0.27335 0.242588,-0.58339 0.242588,-0.92656 0,-0.20472 -0.0355,-0.40116 -0.0994,-0.58695 -0.06627,-0.18578 -0.155019,-0.35145 -0.269805,-0.49345 -0.112418,-0.14201 -0.249687,-0.25679 -0.407073,-0.33963 -0.156203,-0.084 -0.325422,-0.12543 -0.510025,-0.12543 -0.168037,0 -0.330156,0.039 -0.487542,0.1207 -0.157386,0.0817 -0.300572,0.18815 -0.433107,0.32306 -0.131352,0.1349 -0.242588,0.29465 -0.334889,0.47689 -0.08994,0.18223 -0.155019,0.37275 -0.191703,0.56919 -0.04378,0.30767 -0.127803,0.59641 -0.259155,0.86621 -0.126619,0.27099 -0.286371,0.50766 -0.475708,0.70883 -0.188153,0.20117 -0.407073,0.35974 -0.652027,0.47571 -0.244954,0.11834 -0.499375,0.17514 -0.76208,0.17514 -0.300572,0 -0.576293,-0.0615 -0.82953,-0.18579 -0.252055,-0.12425 -0.472158,-0.29465 -0.656762,-0.51002 -0.186969,-0.21656 -0.332522,-0.46861 -0.439024,-0.75735 -0.107685,-0.28874 -0.160936,-0.59878 -0.160936,-0.92657 0,-0.43902 0.08284,-0.83071 0.247321,-1.17388 0.16567,-0.34317 0.401157,-0.6544 0.708829,-0.93248 l 0.482808,0.59286 c -0.227204,0.18933 -0.40589,0.41299 -0.531326,0.66859 -0.130169,0.2556 -0.191703,0.53724 -0.191703,0.84491 0,0.21182 0.03432,0.41654 0.102952,0.60825 0.06982,0.19407 0.164486,0.36684 0.285188,0.51594 0.119519,0.15029 0.260338,0.27099 0.421274,0.36329 0.160936,0.0911 0.332522,0.13608 0.517125,0.13608 0.181053,0 0.357373,-0.0379 0.525409,-0.11478 0.168036,-0.0769 0.319505,-0.1846 0.456774,-0.32306 0.132536,-0.13845 0.244954,-0.30412 0.326606,-0.49345 0.08283,-0.19052 0.136085,-0.39524 0.160936,-0.61535 0.0355,-0.30767 0.119518,-0.59404 0.252054,-0.86148 0.130169,-0.26744 0.291105,-0.49701 0.482808,-0.69108 0.188153,-0.19407 0.404707,-0.34554 0.647294,-0.45559 0.240221,-0.11005 0.492275,-0.16448 0.75498,-0.16448 0.287555,0 0.554992,0.0604 0.807047,0.17987 0.252054,0.12188 0.472158,0.28755 0.660311,0.49937 0.183419,0.213 0.331339,0.45914 0.439024,0.74078 0.104135,0.28045 0.157386,0.58221 0.157386,0.90526 0,0.46861 -0.104135,0.88989 -0.318322,1.26619 -0.213004,0.37631 -0.494642,0.68161 -0.846098,0.91592 l -0.480441,-0.5905 z"
       id="path4619"
       style="fill:#ac9166" />
    <polygon
       points="648.626,924.313 657.397,900.125 623.139,900.125 632.055,924.34 "
       transform="matrix(1.1833532,0,0,1.1833532,-728.44278,-457.70361)"
       id="polygon4621"
       style="fill:#3a110c" />
    <polygon
       points="640.581,909.857 642.071,905.529 642.083,905.505 "
       transform="matrix(1.1833532,0,0,1.1833532,-728.44278,-457.70361)"
       id="polygon4623"
       style="fill:#ffffff" />
    <polygon
       points="640.214,910.916 640.239,910.925 640.214,910.916 "
       transform="matrix(1.1833532,0,0,1.1833532,-728.44278,-457.70361)"
       id="polygon4625"
       style="fill:#ffffff" />
    <polygon
       points="635.32,924.334 637.472,918.367 633.625,918.37 "
       transform="matrix(1.1833532,0,0,1.1833532,-728.44278,-457.70361)"
       id="polygon4627"
       style="fill:#9a7b49" />
    <polygon
       points="637.472,918.367 640.215,910.916 638.248,905.538 633.625,918.37 "
       transform="matrix(1.1833532,0,0,1.1833532,-728.44278,-457.70361)"
       id="polygon4629"
       style="fill:#ac9166" />
    <path
       d="m 26.830036,613.8677 0,0 2.121753,-6.40549 h -4.372491 c 0.140819,0.40116 1.670895,4.78193 2.250738,6.40549"
       id="path4631"
       style="fill:#d0c0a6" />
    <path
       d="M 26.830036,613.8677"
       id="path4633"
       style="fill:#ffffff" />
    <polygon
       points="632.056,924.34 633.625,918.37 629.832,918.376 "
       transform="matrix(1.1833532,0,0,1.1833532,-728.44278,-457.70361)"
       id="polygon4635"
       style="fill:#a38657" />
    <polygon
       points="623.14,900.125 629.831,918.376 633.625,918.37 626.861,900.125 "
       transform="matrix(1.1833532,0,0,1.1833532,-728.44278,-457.70361)"
       id="polygon4637"
       style="fill:#8e6d35" />
    <polygon
       points="632.056,924.34 635.32,924.334 633.625,918.37 "
       transform="matrix(1.1833532,0,0,1.1833532,-728.44278,-457.70361)"
       id="polygon4639"
       style="fill:#d0c0a6" />
    <polygon
       points="657.397,900.125 653.528,900.125 646.933,918.349 650.803,918.346 "
       transform="matrix(1.1833532,0,0,1.1833532,-728.44278,-457.70361)"
       id="polygon4641"
       style="fill:#ac9166" />
    <polygon
       points="648.626,924.313 650.803,918.346 646.933,918.349 "
       transform="matrix(1.1833532,0,0,1.1833532,-728.44278,-457.70361)"
       id="polygon4643"
       style="fill:#8e6d35" />
    <polygon
       points="645.304,924.315 646.933,918.349 643.039,918.355 "
       transform="matrix(1.1833532,0,0,1.1833532,-728.44278,-457.70361)"
       id="polygon4645"
       style="fill:#9a7b49" />
    <polygon
       points="645.303,924.315 648.626,924.313 646.933,918.349 "
       transform="matrix(1.1833532,0,0,1.1833532,-728.44278,-457.70361)"
       id="polygon4647"
       style="fill:#d0c0a6" />
    <path
       d="m 26.830036,613.8677 2.328839,6.36408 2.300439,-6.37828 c -0.470974,-1.2437 -2.380907,-6.39129 -2.380907,-6.39129 h -0.126618 l -2.121753,6.40549 z"
       id="path4649"
       style="fill:#9a7b49" />
    <path
       d="M 31.368196,613.81564"
       id="path4651"
       style="fill:#ffffff" />
    <polygon
       points="643.038,918.355 646.933,918.349 642.16,905.544 640.214,910.916 640.214,910.916 "
       transform="matrix(1.1833532,0,0,1.1833532,-728.44278,-457.70361)"
       id="polygon4653"
       style="fill:#d0c0a6" />
    <path
       d="m 46.50565,615.70427 -0.615343,1.69574 c 0.375123,0.34909 0.695812,0.77392 0.950232,1.26619 0.623628,1.20821 0.77273,2.659 0.429558,4.09085 -0.337256,1.42121 -1.133653,2.6519 -2.236538,3.44948 -0.781013,0.56564 -1.657878,0.86266 -2.532376,0.86266 -0.03432,0 -0.071,-0.004 -0.106502,-0.004 l -0.59996,1.65906 c 0.237854,0.0379 0.478075,0.0473 0.721846,0.0509 1.22122,-0.004 2.441257,-0.41417 3.512192,-1.19045 1.434224,-1.03544 2.462558,-2.6093 2.898032,-4.43403 0.435474,-1.82355 0.229571,-3.69443 -0.573926,-5.26237 -0.466241,-0.89817 -1.094602,-1.63539 -1.847215,-2.18447"
       id="path4655"
       style="fill:#8e6d35" />
  </g>
</svg>
