<?xml version="1.0" encoding="UTF-8" standalone="no"?>
<!-- Created with Inkscape (http://www.inkscape.org/) -->

<svg
   xmlns:dc="http://purl.org/dc/elements/1.1/"
   xmlns:cc="http://creativecommons.org/ns#"
   xmlns:rdf="http://www.w3.org/1999/02/22-rdf-syntax-ns#"
   xmlns:svg="http://www.w3.org/2000/svg"
   xmlns="http://www.w3.org/2000/svg"
   version="1.1"
   width="254.994"
   height="39.323002"
   id="svg5819">
  <defs
     id="defs5821" />
  <metadata
     id="metadata5824">
    <rdf:RDF>
      <cc:Work
         rdf:about="">
        <dc:format>image/svg+xml</dc:format>
        <dc:type
           rdf:resource="http://purl.org/dc/dcmitype/StillImage" />
        <dc:title></dc:title>
      </cc:Work>
    </rdf:RDF>
  </metadata>
  <g
     transform="translate(-106.66967,-5.3385)"
     id="layer1">
    <g
       transform="translate(-396.37233,-637.6625)"
       id="g4473">
      <path
         d="m 585.261,664.847 h -1.938 l -2.957,-7.822 c -0.228,0.658 -0.461,1.309 -0.709,1.955 -0.247,0.647 -0.493,1.299 -0.739,1.956 -0.226,0.616 -0.461,1.272 -0.709,1.971 -0.246,0.698 -0.481,1.345 -0.707,1.94 h -1.91 l -7.883,-21.278 h 2.188 l 6.619,17.799 c 0.204,-0.555 0.416,-1.135 0.631,-1.74 0.217,-0.605 0.428,-1.186 0.633,-1.739 l 1.447,-4.004 c -0.289,-0.801 -0.586,-1.627 -0.896,-2.479 -0.306,-0.852 -0.615,-1.688 -0.922,-2.51 -0.308,-0.862 -0.632,-1.76 -0.97,-2.694 -0.34,-0.935 -0.653,-1.812 -0.94,-2.633 h 2.157 l 3.109,8.406 c 0.286,0.801 0.573,1.575 0.86,2.325 0.287,0.75 0.576,1.504 0.864,2.264 0.164,0.431 0.318,0.842 0.46,1.23 0.145,0.391 0.284,0.771 0.416,1.141 0.133,0.369 0.271,0.754 0.416,1.154 0.143,0.4 0.309,0.826 0.493,1.278 0.41,-1.149 0.826,-2.293 1.248,-3.435 0.42,-1.139 0.845,-2.293 1.276,-3.463 0.656,-1.807 1.328,-3.635 2.019,-5.482 0.687,-1.848 1.358,-3.653 2.015,-5.419 h 2.219 l -7.79,21.279 z"
         id="path4475"
         style="fill:#ffffff" />
      <polygon
         points="595.762,643.568 597.856,643.568 597.885,664.847 595.791,664.847 "
         id="polygon4477"
         style="fill:#ffffff" />
      <polygon
         points="601.52,643.568 603.55,643.568 603.55,662.753 613.559,662.753 613.589,664.847 601.55,664.847 "
         id="polygon4479"
         style="fill:#ffffff" />
      <polygon
         points="616.239,643.568 618.269,643.568 618.269,662.753 628.278,662.753 628.308,664.847 616.269,664.847 "
         id="polygon4481"
         style="fill:#ffffff" />
      <polygon
         points="630.986,643.568 633.081,643.568 633.111,664.847 631.017,664.847 "
         id="polygon4483"
         style="fill:#ffffff" />
      <path
         d="m 643.272,643.568 h 1.632 l 7.852,21.279 h -2.153 l -3.203,-8.47 h -6.59 c -0.492,1.355 -1.017,2.767 -1.571,4.234 -0.554,1.468 -1.088,2.879 -1.601,4.235 h -2.154 l 7.788,-21.278 z m 3.356,10.716 c -0.204,-0.596 -0.411,-1.16 -0.616,-1.693 -0.205,-0.533 -0.41,-1.067 -0.615,-1.602 v 0.031 c -0.123,-0.328 -0.237,-0.631 -0.338,-0.908 -0.104,-0.277 -0.205,-0.549 -0.31,-0.816 -0.103,-0.267 -0.205,-0.549 -0.309,-0.847 -0.101,-0.298 -0.224,-0.632 -0.369,-1.001 -0.164,0.473 -0.328,0.924 -0.492,1.356 -0.164,0.43 -0.328,0.871 -0.492,1.323 -0.288,0.718 -0.545,1.396 -0.77,2.031 -0.226,0.637 -0.484,1.346 -0.771,2.125 h 5.082 z"
         id="path4485"
         style="fill:#ffffff" />
      <path
         d="m 669.661,643.568 h 1.94 v 21.278 h -2.093 l -0.032,-16.906 c -0.923,1.54 -1.873,3.152 -2.847,4.835 -0.978,1.684 -1.896,3.295 -2.756,4.835 h -1.295 l -5.695,-9.639 c 0,1.293 0.004,2.618 0.015,3.973 0.01,1.354 0.015,2.689 0.015,4.003 v 8.899 h -2.063 l -0.031,-21.278 h 1.879 l 6.56,10.993 6.403,-10.993 z"
         id="path4487"
         style="fill:#ffffff" />
      <path
         d="m 676.619,660.505 c 0.515,0.779 1.156,1.396 1.927,1.848 0.769,0.451 1.637,0.677 2.601,0.677 0.575,0 1.123,-0.093 1.647,-0.276 0.522,-0.185 0.985,-0.437 1.387,-0.755 0.399,-0.318 0.718,-0.698 0.955,-1.139 0.233,-0.442 0.353,-0.918 0.353,-1.433 0,-0.473 -0.112,-0.929 -0.34,-1.371 -0.224,-0.44 -0.527,-0.846 -0.908,-1.216 -0.379,-0.369 -0.826,-0.683 -1.338,-0.938 -0.513,-0.257 -1.047,-0.437 -1.601,-0.539 -0.864,-0.123 -1.674,-0.365 -2.435,-0.725 -0.76,-0.358 -1.422,-0.805 -1.985,-1.339 -0.565,-0.534 -1.011,-1.144 -1.338,-1.832 -0.33,-0.688 -0.494,-1.4 -0.494,-2.14 0,-0.842 0.174,-1.617 0.522,-2.325 0.351,-0.708 0.826,-1.324 1.433,-1.848 0.604,-0.523 1.313,-0.935 2.125,-1.231 0.81,-0.298 1.677,-0.447 2.601,-0.447 1.233,0 2.33,0.231 3.295,0.693 0.965,0.462 1.838,1.124 2.617,1.986 l -1.662,1.354 c -0.533,-0.636 -1.16,-1.134 -1.879,-1.493 -0.718,-0.359 -1.507,-0.539 -2.371,-0.539 -0.595,0 -1.164,0.098 -1.709,0.293 -0.543,0.195 -1.025,0.462 -1.447,0.801 -0.42,0.338 -0.76,0.733 -1.016,1.186 -0.255,0.451 -0.384,0.935 -0.384,1.447 0,0.512 0.106,1.006 0.323,1.478 0.216,0.472 0.518,0.897 0.908,1.278 0.39,0.379 0.853,0.688 1.386,0.924 0.532,0.236 1.108,0.385 1.724,0.445 0.864,0.104 1.668,0.34 2.418,0.709 0.749,0.369 1.395,0.821 1.939,1.354 0.544,0.534 0.972,1.14 1.277,1.817 0.31,0.678 0.463,1.385 0.463,2.125 0,0.8 -0.17,1.555 -0.508,2.263 -0.34,0.708 -0.806,1.324 -1.402,1.848 -0.596,0.523 -1.286,0.935 -2.077,1.231 -0.791,0.296 -1.638,0.447 -2.541,0.447 -1.313,0 -2.498,-0.298 -3.558,-0.894 -1.056,-0.595 -1.914,-1.386 -2.57,-2.371 l 1.662,-1.353 z"
         id="path4489"
         style="fill:#ffffff" />
      <path
         d="m 697.467,664.847 h -6.406 l -0.03,-21.278 h 6.928 c 0.802,0.021 1.556,0.18 2.265,0.478 0.707,0.297 1.324,0.692 1.847,1.187 0.524,0.491 0.94,1.062 1.246,1.707 0.309,0.647 0.463,1.33 0.463,2.048 0,0.966 -0.226,1.838 -0.677,2.618 -0.452,0.78 -1.047,1.427 -1.788,1.94 0.864,0.554 1.561,1.283 2.096,2.187 0.533,0.903 0.799,1.867 0.799,2.894 0,0.842 -0.157,1.633 -0.477,2.371 -0.318,0.739 -0.753,1.386 -1.308,1.939 -0.556,0.555 -1.211,0.996 -1.972,1.324 -0.76,0.329 -1.58,0.504 -2.463,0.523 h 0.031 l -0.554,0.062 z m -4.373,-19.246 v 6.897 h 4.864 c 0.533,-0.021 1.025,-0.118 1.479,-0.292 0.451,-0.174 0.845,-0.416 1.185,-0.724 0.338,-0.308 0.606,-0.678 0.802,-1.108 0.192,-0.432 0.291,-0.894 0.291,-1.387 0,-0.431 -0.099,-0.841 -0.291,-1.23 -0.195,-0.391 -0.464,-0.74 -0.802,-1.048 -0.34,-0.308 -0.733,-0.56 -1.185,-0.755 -0.454,-0.194 -0.946,-0.313 -1.479,-0.354 h -4.864 z m 4.864,17.152 c 0.574,-0.021 1.119,-0.149 1.634,-0.386 0.512,-0.235 0.953,-0.538 1.321,-0.908 0.371,-0.37 0.662,-0.796 0.879,-1.278 0.216,-0.481 0.322,-1 0.322,-1.555 0,-0.513 -0.106,-1.006 -0.322,-1.478 -0.217,-0.473 -0.508,-0.894 -0.879,-1.263 -0.368,-0.369 -0.81,-0.667 -1.321,-0.893 -0.515,-0.227 -1.06,-0.359 -1.634,-0.4 h -4.864 v 8.16 h 4.864 z"
         id="path4491"
         style="fill:#ffffff" />
      <path
         d="m 709.444,659.304 c 0.081,0.473 0.293,0.929 0.633,1.37 0.338,0.441 0.769,0.837 1.293,1.186 0.522,0.349 1.123,0.626 1.801,0.831 0.677,0.205 1.396,0.309 2.156,0.309 0.717,0 1.403,-0.104 2.062,-0.309 0.657,-0.205 1.243,-0.482 1.756,-0.831 0.513,-0.349 0.938,-0.744 1.278,-1.186 0.337,-0.441 0.548,-0.897 0.63,-1.37 v -15.735 h 2.094 v 15.767 c -0.041,0.8 -0.276,1.549 -0.707,2.247 -0.432,0.699 -1.002,1.309 -1.709,1.833 -0.709,0.523 -1.53,0.938 -2.465,1.246 -0.933,0.309 -1.914,0.463 -2.938,0.463 -1.09,0 -2.11,-0.154 -3.065,-0.463 -0.955,-0.308 -1.797,-0.723 -2.524,-1.246 -0.729,-0.524 -1.31,-1.134 -1.74,-1.833 -0.431,-0.698 -0.676,-1.447 -0.739,-2.247 v -15.767 h 2.187 v 15.735 z"
         id="path4493"
         style="fill:#ffffff" />
      <path
         d="m 728.536,655.239 v 9.607 h -2.063 l -0.031,-21.278 h 6.281 c 0.864,0 1.668,0.139 2.418,0.415 0.749,0.277 1.407,0.662 1.971,1.155 0.565,0.492 1.011,1.073 1.34,1.739 0.328,0.668 0.492,1.38 0.492,2.141 0,0.78 -0.164,1.504 -0.492,2.171 -0.329,0.667 -0.774,1.258 -1.34,1.771 -0.563,0.514 -1.222,0.914 -1.971,1.201 -0.75,0.287 -1.554,0.431 -2.418,0.431 h -2.031 c 0.554,0.637 1.123,1.278 1.709,1.925 0.584,0.646 1.174,1.299 1.771,1.955 0.883,1.006 1.821,2.084 2.817,3.233 0.994,1.15 1.914,2.197 2.757,3.142 h -2.681 l -8.529,-9.608 z m 0,-9.67 v 6.929 h 4.187 c 0.555,0 1.084,-0.087 1.586,-0.262 0.504,-0.174 0.94,-0.421 1.309,-0.739 0.369,-0.317 0.669,-0.688 0.894,-1.107 0.226,-0.423 0.339,-0.879 0.339,-1.371 0,-0.451 -0.113,-0.888 -0.339,-1.309 -0.225,-0.42 -0.528,-0.79 -0.909,-1.108 -0.379,-0.318 -0.82,-0.569 -1.324,-0.755 -0.502,-0.185 -1.041,-0.277 -1.614,-0.277 h -4.129 z"
         id="path4495"
         style="fill:#ffffff" />
      <path
         d="m 757.787,662.167 c -0.924,0.924 -1.954,1.647 -3.094,2.171 -1.138,0.524 -2.354,0.786 -3.647,0.786 -1.336,0 -2.593,-0.283 -3.774,-0.848 -1.179,-0.564 -2.211,-1.339 -3.093,-2.324 -0.883,-0.986 -1.58,-2.135 -2.094,-3.449 -0.515,-1.313 -0.771,-2.71 -0.771,-4.188 0,-1.498 0.256,-2.904 0.771,-4.219 0.514,-1.314 1.211,-2.464 2.094,-3.449 0.882,-0.985 1.914,-1.766 3.093,-2.34 1.182,-0.574 2.438,-0.862 3.774,-0.862 1.293,0 2.534,0.288 3.724,0.862 1.192,0.574 2.28,1.375 3.266,2.401 l -1.446,1.447 c -0.781,-0.821 -1.649,-1.457 -2.604,-1.909 -0.953,-0.451 -1.933,-0.678 -2.938,-0.678 -1.047,0 -2.037,0.227 -2.974,0.678 -0.933,0.452 -1.75,1.073 -2.446,1.863 -0.697,0.791 -1.252,1.715 -1.662,2.771 -0.412,1.057 -0.617,2.201 -0.617,3.434 0,1.211 0.205,2.351 0.617,3.418 0.41,1.067 0.965,1.995 1.662,2.788 0.696,0.789 1.514,1.416 2.446,1.876 0.937,0.463 1.927,0.693 2.974,0.693 0.901,0 1.754,-0.164 2.555,-0.492 0.8,-0.327 1.519,-0.791 2.156,-1.387 v -5.233 h -5.636 v -2.033 h 7.729 v 7.944 l -0.065,0.279 z"
         id="path4497"
         style="fill:#ffffff" />
      <path
         d="m 579.521,674.938 c -0.34,-0.354 -0.715,-0.633 -1.125,-0.829 -0.409,-0.196 -0.834,-0.294 -1.27,-0.294 -0.447,0 -0.869,0.098 -1.271,0.294 -0.399,0.196 -0.754,0.464 -1.057,0.803 -0.302,0.338 -0.541,0.737 -0.714,1.196 -0.174,0.46 -0.262,0.953 -0.262,1.479 0,0.518 0.084,1.006 0.248,1.465 0.164,0.459 0.394,0.862 0.688,1.21 0.293,0.348 0.644,0.624 1.049,0.829 0.406,0.205 0.847,0.309 1.318,0.309 0.436,0 0.854,-0.099 1.25,-0.295 0.396,-0.196 0.77,-0.469 1.118,-0.816 l 0.629,0.615 c -0.42,0.438 -0.883,0.783 -1.394,1.037 -0.508,0.254 -1.043,0.381 -1.604,0.381 -0.552,0 -1.084,-0.125 -1.591,-0.374 -0.508,-0.249 -0.957,-0.589 -1.344,-1.017 -0.39,-0.428 -0.699,-0.931 -0.931,-1.505 -0.231,-0.575 -0.347,-1.188 -0.347,-1.839 0,-0.624 0.108,-1.219 0.326,-1.785 0.219,-0.566 0.519,-1.063 0.903,-1.492 0.384,-0.428 0.828,-0.769 1.336,-1.022 0.511,-0.255 1.058,-0.382 1.646,-0.382 0.561,0 1.106,0.127 1.631,0.382 0.526,0.254 0.991,0.6 1.391,1.036 l -0.623,0.614 z"
         id="path4499"
         style="fill:#ac9166" />
      <path
         d="m 593.777,681.024 c -0.383,0.419 -0.822,0.74 -1.316,0.963 -0.495,0.224 -1.026,0.334 -1.6,0.334 -0.57,0 -1.109,-0.12 -1.617,-0.36 -0.508,-0.241 -0.957,-0.573 -1.344,-0.996 -0.388,-0.425 -0.695,-0.926 -0.923,-1.504 -0.228,-0.58 -0.34,-1.204 -0.34,-1.873 0,-0.651 0.11,-1.261 0.334,-1.827 0.222,-0.565 0.522,-1.061 0.901,-1.484 0.379,-0.423 0.824,-0.758 1.338,-1.003 0.513,-0.245 1.063,-0.368 1.65,-0.368 0.598,0 1.153,0.123 1.666,0.368 0.512,0.245 0.957,0.577 1.33,0.997 0.375,0.419 0.67,0.914 0.883,1.485 0.215,0.569 0.322,1.181 0.322,1.832 0,0.694 -0.111,1.335 -0.335,1.919 -0.222,0.584 -0.539,1.09 -0.949,1.517 m -0.654,-6.206 c -0.284,-0.321 -0.625,-0.564 -1.018,-0.735 -0.392,-0.17 -0.806,-0.254 -1.244,-0.254 -0.463,0 -0.894,0.098 -1.297,0.294 -0.4,0.196 -0.75,0.465 -1.048,0.802 -0.299,0.34 -0.534,0.736 -0.704,1.191 -0.169,0.454 -0.253,0.945 -0.253,1.472 0,0.534 0.084,1.034 0.253,1.498 0.17,0.463 0.405,0.866 0.704,1.211 0.298,0.342 0.647,0.611 1.048,0.808 0.403,0.196 0.834,0.295 1.297,0.295 0.473,0 0.912,-0.099 1.319,-0.295 0.405,-0.196 0.757,-0.466 1.056,-0.808 0.299,-0.345 0.533,-0.748 0.701,-1.211 0.17,-0.464 0.256,-0.964 0.256,-1.498 0,-0.554 -0.093,-1.068 -0.281,-1.545 -0.187,-0.478 -0.452,-0.886 -0.789,-1.225"
         id="path4501"
         style="fill:#ac9166" />
      <path
         d="m 606.71,677.747 h -3.905 v 2.141 c 0,0.374 0.002,0.762 0.008,1.163 0.003,0.401 0.005,0.784 0.005,1.15 h -0.896 l -0.014,-9.241 h 5.471 v 0.869 h -4.573 v 3.009 h 3.905 v 0.909 z"
         id="path4503"
         style="fill:#ac9166" />
      <path
         d="m 619.041,677.747 h -3.903 v 2.141 c 0,0.374 0.002,0.762 0.006,1.163 0.003,0.401 0.007,0.784 0.007,1.15 h -0.896 l -0.015,-9.241 h 5.472 v 0.869 h -4.574 v 3.009 h 3.903 v 0.909 z"
         id="path4505"
         style="fill:#ac9166" />
      <polygon
         points="627.414,676.838 631.333,676.838 631.333,677.747 627.414,677.747 627.414,681.292 631.988,681.292 632.001,682.201 626.531,682.201 626.52,672.96 631.988,672.96 631.988,673.843 627.414,673.843 "
         id="polygon4507"
         style="fill:#ac9166" />
      <polygon
         points="639.718,676.838 643.636,676.838 643.636,677.747 639.718,677.747 639.718,681.292 644.292,681.292 644.307,682.201 638.835,682.201 638.823,672.96 644.292,672.96 644.292,673.843 639.718,673.843 "
         id="polygon4509"
         style="fill:#ac9166" />
      <path
         d="m 661.948,678.028 v 4.173 h -0.896 l -0.014,-9.241 h 2.728 c 0.375,0 0.726,0.06 1.051,0.181 0.324,0.12 0.61,0.286 0.856,0.502 0.244,0.213 0.438,0.465 0.582,0.755 0.142,0.289 0.213,0.6 0.213,0.93 0,0.338 -0.071,0.652 -0.213,0.942 -0.144,0.29 -0.338,0.546 -0.582,0.769 -0.246,0.224 -0.532,0.397 -0.856,0.521 -0.325,0.125 -0.676,0.188 -1.051,0.188 h -0.882 c 0.24,0.277 0.488,0.556 0.742,0.836 0.254,0.281 0.511,0.564 0.769,0.851 0.383,0.437 0.791,0.904 1.226,1.403 0.432,0.5 0.83,0.954 1.194,1.364 h -1.162 l -3.705,-4.174 z m 0,-4.199 v 3.009 h 1.817 c 0.241,0 0.471,-0.038 0.69,-0.113 0.219,-0.076 0.407,-0.183 0.567,-0.321 0.16,-0.138 0.289,-0.299 0.388,-0.481 0.1,-0.183 0.147,-0.382 0.147,-0.595 0,-0.196 -0.048,-0.387 -0.147,-0.568 -0.099,-0.184 -0.229,-0.344 -0.396,-0.482 -0.164,-0.138 -0.354,-0.247 -0.574,-0.327 -0.219,-0.081 -0.453,-0.12 -0.703,-0.12 h -1.789 z"
         id="path4511"
         style="fill:#ac9166" />
      <path
         d="m 680.175,681.024 c -0.383,0.419 -0.822,0.74 -1.315,0.963 -0.496,0.224 -1.027,0.334 -1.601,0.334 -0.57,0 -1.108,-0.12 -1.617,-0.36 -0.508,-0.241 -0.957,-0.573 -1.344,-0.996 -0.388,-0.425 -0.695,-0.926 -0.923,-1.504 -0.228,-0.58 -0.34,-1.204 -0.34,-1.873 0,-0.651 0.11,-1.261 0.334,-1.827 0.222,-0.565 0.522,-1.061 0.901,-1.484 0.38,-0.423 0.824,-0.758 1.339,-1.003 0.512,-0.245 1.062,-0.368 1.649,-0.368 0.599,0 1.153,0.123 1.666,0.368 0.512,0.245 0.957,0.577 1.33,0.997 0.375,0.419 0.67,0.914 0.883,1.485 0.215,0.569 0.322,1.181 0.322,1.832 0,0.694 -0.111,1.335 -0.335,1.919 -0.221,0.584 -0.539,1.09 -0.949,1.517 m -0.654,-6.206 c -0.284,-0.321 -0.625,-0.564 -1.018,-0.735 -0.392,-0.17 -0.806,-0.254 -1.244,-0.254 -0.463,0 -0.894,0.098 -1.297,0.294 -0.4,0.196 -0.75,0.465 -1.048,0.802 -0.299,0.34 -0.534,0.736 -0.704,1.191 -0.169,0.454 -0.253,0.945 -0.253,1.472 0,0.534 0.084,1.034 0.253,1.498 0.17,0.463 0.405,0.866 0.704,1.211 0.298,0.342 0.647,0.611 1.048,0.808 0.403,0.196 0.834,0.295 1.297,0.295 0.474,0 0.912,-0.099 1.319,-0.295 0.406,-0.196 0.757,-0.466 1.056,-0.808 0.299,-0.345 0.533,-0.748 0.701,-1.211 0.17,-0.464 0.256,-0.964 0.256,-1.498 0,-0.554 -0.093,-1.068 -0.281,-1.545 -0.186,-0.478 -0.45,-0.886 -0.789,-1.225"
         id="path4513"
         style="fill:#ac9166" />
      <path
         d="m 691.424,672.96 h 0.709 l 3.409,9.241 h -0.935 l -1.391,-3.679 h -2.863 c -0.213,0.59 -0.442,1.202 -0.683,1.84 -0.239,0.638 -0.473,1.25 -0.694,1.839 h -0.937 l 3.385,-9.241 z m 1.457,4.654 c -0.089,-0.26 -0.179,-0.504 -0.269,-0.736 -0.087,-0.231 -0.177,-0.463 -0.267,-0.695 v 0.014 c -0.054,-0.143 -0.103,-0.274 -0.147,-0.394 -0.045,-0.122 -0.089,-0.239 -0.132,-0.355 -0.045,-0.116 -0.09,-0.239 -0.135,-0.368 -0.045,-0.129 -0.099,-0.273 -0.16,-0.435 -0.073,0.205 -0.144,0.401 -0.215,0.589 -0.071,0.188 -0.144,0.379 -0.213,0.574 -0.125,0.313 -0.236,0.607 -0.334,0.883 -0.101,0.278 -0.211,0.584 -0.334,0.924 h 2.206 z"
         id="path4515"
         style="fill:#ac9166" />
      <path
         d="m 702.724,680.315 c 0.224,0.339 0.502,0.606 0.837,0.803 0.334,0.195 0.711,0.294 1.131,0.294 0.25,0 0.487,-0.04 0.715,-0.12 0.228,-0.081 0.427,-0.189 0.601,-0.328 0.174,-0.139 0.313,-0.303 0.416,-0.494 0.103,-0.192 0.153,-0.399 0.153,-0.623 0,-0.205 -0.049,-0.402 -0.147,-0.595 -0.098,-0.191 -0.228,-0.368 -0.394,-0.528 -0.165,-0.16 -0.36,-0.297 -0.582,-0.408 -0.223,-0.111 -0.456,-0.189 -0.696,-0.233 -0.375,-0.054 -0.726,-0.158 -1.056,-0.314 -0.331,-0.155 -0.618,-0.351 -0.862,-0.582 -0.246,-0.231 -0.438,-0.497 -0.582,-0.796 -0.142,-0.299 -0.215,-0.608 -0.215,-0.929 0,-0.366 0.077,-0.702 0.228,-1.011 0.151,-0.307 0.358,-0.574 0.622,-0.803 0.265,-0.228 0.57,-0.404 0.923,-0.534 0.353,-0.13 0.729,-0.193 1.131,-0.193 0.535,0 1.011,0.1 1.431,0.3 0.418,0.2 0.797,0.488 1.137,0.863 l -0.723,0.587 c -0.232,-0.274 -0.503,-0.491 -0.816,-0.647 -0.312,-0.156 -0.653,-0.234 -1.028,-0.234 -0.258,0 -0.506,0.043 -0.742,0.127 -0.237,0.086 -0.446,0.201 -0.629,0.348 -0.183,0.148 -0.33,0.32 -0.442,0.516 -0.11,0.196 -0.166,0.406 -0.166,0.629 0,0.223 0.047,0.437 0.14,0.642 0.094,0.205 0.226,0.39 0.394,0.556 0.17,0.164 0.371,0.299 0.604,0.4 0.229,0.104 0.479,0.168 0.747,0.194 0.375,0.044 0.726,0.147 1.052,0.308 0.323,0.16 0.604,0.356 0.842,0.588 0.236,0.232 0.421,0.495 0.554,0.789 0.135,0.295 0.201,0.603 0.201,0.924 0,0.348 -0.074,0.675 -0.22,0.982 -0.147,0.308 -0.351,0.575 -0.61,0.803 -0.257,0.227 -0.558,0.406 -0.902,0.534 -0.344,0.13 -0.711,0.194 -1.104,0.194 -0.57,0 -1.085,-0.129 -1.544,-0.388 -0.459,-0.259 -0.831,-0.602 -1.116,-1.03 l 0.717,-0.591 z"
         id="path4517"
         style="fill:#ac9166" />
      <path
         d="m 718.132,673.843 v 4.078 c 0,0.705 0.002,1.42 0.007,2.146 0.006,0.728 0.008,1.438 0.008,2.134 h -0.897 l -0.013,-8.358 h -2.917 v -0.883 h 6.702 v 0.883 h -2.89 z"
         id="path4519"
         style="fill:#ac9166" />
      <polygon
         points="728.751,676.838 732.671,676.838 732.671,677.747 728.751,677.747 728.751,681.292 733.326,681.292 733.339,682.201 727.869,682.201 727.858,672.96 733.326,672.96 733.326,673.843 728.751,673.843 "
         id="polygon4521"
         style="fill:#ac9166" />
      <path
         d="m 741.056,678.028 v 4.173 h -0.896 l -0.014,-9.241 h 2.728 c 0.375,0 0.725,0.06 1.051,0.181 0.324,0.12 0.61,0.286 0.856,0.502 0.244,0.213 0.438,0.465 0.582,0.755 0.142,0.289 0.213,0.6 0.213,0.93 0,0.338 -0.071,0.652 -0.213,0.942 -0.144,0.29 -0.338,0.546 -0.582,0.769 -0.246,0.224 -0.532,0.397 -0.856,0.521 -0.326,0.125 -0.676,0.188 -1.051,0.188 h -0.882 c 0.24,0.277 0.488,0.556 0.742,0.836 0.254,0.281 0.511,0.564 0.769,0.851 0.383,0.437 0.791,0.904 1.226,1.403 0.432,0.5 0.829,0.954 1.194,1.364 h -1.162 l -3.705,-4.174 z m 0,-4.199 v 3.009 h 1.818 c 0.241,0 0.471,-0.038 0.69,-0.113 0.219,-0.076 0.407,-0.183 0.567,-0.321 0.16,-0.138 0.289,-0.299 0.387,-0.481 0.101,-0.183 0.148,-0.382 0.148,-0.595 0,-0.196 -0.048,-0.387 -0.148,-0.568 -0.098,-0.184 -0.229,-0.344 -0.395,-0.482 -0.164,-0.138 -0.355,-0.247 -0.574,-0.327 -0.219,-0.081 -0.453,-0.12 -0.703,-0.12 h -1.79 z"
         id="path4523"
         style="fill:#ac9166" />
      <path
         d="m 753,680.315 c 0.224,0.339 0.502,0.606 0.837,0.803 0.334,0.195 0.711,0.294 1.129,0.294 0.25,0 0.487,-0.04 0.717,-0.12 0.226,-0.081 0.427,-0.189 0.601,-0.328 0.174,-0.139 0.313,-0.303 0.414,-0.494 0.104,-0.192 0.155,-0.399 0.155,-0.623 0,-0.205 -0.049,-0.402 -0.147,-0.595 -0.1,-0.191 -0.229,-0.368 -0.394,-0.528 -0.166,-0.16 -0.36,-0.297 -0.582,-0.408 -0.223,-0.111 -0.456,-0.189 -0.696,-0.233 -0.375,-0.054 -0.726,-0.158 -1.056,-0.314 -0.331,-0.155 -0.618,-0.351 -0.864,-0.582 -0.246,-0.231 -0.438,-0.497 -0.582,-0.796 -0.142,-0.299 -0.213,-0.608 -0.213,-0.929 0,-0.366 0.075,-0.702 0.228,-1.011 0.151,-0.307 0.358,-0.574 0.62,-0.803 0.265,-0.228 0.572,-0.404 0.925,-0.534 0.351,-0.13 0.728,-0.193 1.131,-0.193 0.533,0 1.011,0.1 1.429,0.3 0.42,0.2 0.799,0.488 1.137,0.863 l -0.721,0.587 c -0.232,-0.274 -0.503,-0.491 -0.816,-0.647 -0.312,-0.156 -0.655,-0.234 -1.028,-0.234 -0.26,0 -0.508,0.043 -0.744,0.127 -0.237,0.086 -0.446,0.201 -0.627,0.348 -0.185,0.148 -0.33,0.32 -0.442,0.516 -0.11,0.196 -0.168,0.406 -0.168,0.629 0,0.223 0.047,0.437 0.142,0.642 0.094,0.205 0.224,0.39 0.394,0.556 0.17,0.164 0.37,0.299 0.602,0.4 0.232,0.104 0.482,0.168 0.75,0.194 0.373,0.044 0.724,0.147 1.05,0.308 0.325,0.16 0.606,0.356 0.844,0.588 0.234,0.232 0.419,0.495 0.554,0.789 0.133,0.295 0.199,0.603 0.199,0.924 0,0.348 -0.072,0.675 -0.22,0.982 -0.148,0.307 -0.351,0.575 -0.608,0.803 -0.259,0.227 -0.56,0.406 -0.902,0.534 -0.344,0.13 -0.711,0.194 -1.104,0.194 -0.57,0 -1.085,-0.129 -1.544,-0.388 -0.459,-0.259 -0.832,-0.602 -1.118,-1.03 L 753,680.315 z"
         id="path4525"
         style="fill:#ac9166" />
      <polygon
         points="543.059,680.975 556.823,643.002 503.042,643.002 517.038,681.016 "
         id="polygon4527"
         style="fill:#3a110c" />
      <polygon
         points="530.426,658.278 532.766,651.486 532.787,651.445 "
         id="polygon4529"
         style="fill:#ffffff" />
      <polygon
         points="529.852,659.942 529.891,659.957 529.852,659.942 "
         id="polygon4531"
         style="fill:#ffffff" />
      <polygon
         points="522.167,681.008 525.543,671.639 519.503,671.646 "
         id="polygon4533"
         style="fill:#9a7b49" />
      <polygon
         points="525.543,671.639 529.853,659.942 526.761,651.498 519.502,671.646 "
         id="polygon4535"
         style="fill:#ac9166" />
      <path
         d="m 526.761,651.498 0,0 2.813,-8.496 h -5.801 c 0.191,0.53 2.222,6.342 2.988,8.496"
         id="path4537"
         style="fill:#d0c0a6" />
      <path
         d="M 526.761,651.498"
         id="path4539"
         style="fill:#ffffff" />
      <polygon
         points="517.038,681.016 519.502,671.646 513.548,671.655 "
         id="polygon4541"
         style="fill:#a38657" />
      <polygon
         points="503.042,643.002 513.549,671.655 519.503,671.646 508.891,643.002 "
         id="polygon4543"
         style="fill:#8e6d35" />
      <polygon
         points="517.038,681.016 522.167,681.008 519.503,671.646 "
         id="polygon4545"
         style="fill:#d0c0a6" />
      <polygon
         points="556.824,643.002 550.751,643.002 540.4,671.614 546.476,671.607 "
         id="polygon4547"
         style="fill:#ac9166" />
      <polygon
         points="543.058,680.975 546.476,671.607 540.4,671.614 "
         id="polygon4549"
         style="fill:#8e6d35" />
      <polygon
         points="537.84,680.979 540.4,671.614 534.283,671.621 "
         id="polygon4551"
         style="fill:#9a7b49" />
      <polygon
         points="537.839,680.979 543.058,680.975 540.4,671.614 "
         id="polygon4553"
         style="fill:#d0c0a6" />
      <path
         d="m 526.761,651.498 3.092,8.444 3.052,-8.462 c -0.624,-1.651 -3.161,-8.479 -3.161,-8.479 h -0.169 l -2.814,8.497 z"
         id="path4555"
         style="fill:#9a7b49" />
      <path
         d="M 532.787,651.43"
         id="path4557"
         style="fill:#ffffff" />
      <polygon
         points="529.852,659.942 529.852,659.942 534.284,671.621 540.401,671.614 532.907,651.509 "
         id="polygon4559"
         style="fill:#d0c0a6" />
      <path
         d="m 552.867,653.936 -0.814,2.25 c 0.496,0.462 0.923,1.025 1.258,1.681 0.828,1.602 1.024,3.525 0.573,5.425 -0.449,1.889 -1.507,3.521 -2.968,4.578 -1.036,0.748 -2.2,1.143 -3.36,1.143 -0.046,-0.001 -0.093,-0.004 -0.139,-0.005 l -0.798,2.204 c 0.313,0.048 0.636,0.062 0.957,0.064 1.62,-0.003 3.24,-0.546 4.66,-1.578 1.902,-1.374 3.27,-3.461 3.844,-5.883 0.578,-2.421 0.309,-4.9 -0.762,-6.982 -0.618,-1.191 -1.453,-2.171 -2.451,-2.897"
         id="path4561"
         style="fill:#8e6d35" />
    </g>
  </g>
</svg>
