<?xml version="1.0" encoding="UTF-8" standalone="no"?>
<!-- Created with Inkscape (http://www.inkscape.org/) -->

<svg
   xmlns:dc="http://purl.org/dc/elements/1.1/"
   xmlns:cc="http://creativecommons.org/ns#"
   xmlns:rdf="http://www.w3.org/1999/02/22-rdf-syntax-ns#"
   xmlns:svg="http://www.w3.org/2000/svg"
   xmlns="http://www.w3.org/2000/svg"
   version="1.1"
   width="48.797001"
   height="220.373"
   id="svg8122">
  <defs
     id="defs8124" />
  <metadata
     id="metadata8127">
    <rdf:RDF>
      <cc:Work
         rdf:about="">
        <dc:format>image/svg+xml</dc:format>
        <dc:type
           rdf:resource="http://purl.org/dc/dcmitype/StillImage" />
        <dc:title></dc:title>
      </cc:Work>
    </rdf:RDF>
  </metadata>
  <g
     transform="translate(-589.88721,-527.88997)"
     id="layer1">
    <path
       d="m 589.88721,741.65897 48.797,-32.344 v 6.751 c 0,0 -29.272,18.442 -48.797,32.084 v -6.491 z"
       id="path5093"
       style="fill:#ffffff" />
    <polygon
       points="235.711,1102.555 235.711,882.182 237.316,882.182 237.316,1101.287 "
       transform="translate(354.17621,-354.29203)"
       id="polygon5095"
       style="fill:#ffffff" />
    <polygon
       points="282.902,1068.089 282.902,882.182 284.506,882.182 284.506,1066.817 "
       transform="translate(354.17621,-354.29203)"
       id="polygon5097"
       style="fill:#ffffff" />
    <path
       d="m 615.42021,699.98997 v 1.415 l -5.706,2.157 c 0.479,0.164 0.955,0.337 1.427,0.517 0.471,0.18 0.947,0.359 1.426,0.539 0.45,0.165 0.929,0.337 1.438,0.517 0.509,0.18 0.98,0.352 1.415,0.517 v 1.393 l -15.522,5.751 v -1.595 l 12.984,-4.83 c -0.404,-0.149 -0.828,-0.304 -1.27,-0.461 -0.441,-0.157 -0.865,-0.311 -1.269,-0.46 l -2.92,-1.056 c -0.584,0.21 -1.187,0.427 -1.809,0.651 -0.621,0.225 -1.231,0.449 -1.831,0.674 -0.629,0.225 -1.283,0.46 -1.965,0.707 -0.681,0.247 -1.322,0.476 -1.92,0.686 v -1.572 l 6.132,-2.27 c 0.584,-0.209 1.15,-0.419 1.696,-0.629 0.547,-0.209 1.097,-0.419 1.651,-0.63 0.314,-0.118 0.614,-0.23 0.898,-0.336 0.286,-0.104 0.562,-0.206 0.832,-0.303 0.269,-0.098 0.55,-0.198 0.842,-0.304 0.292,-0.104 0.604,-0.225 0.933,-0.359 -0.839,-0.299 -1.674,-0.603 -2.505,-0.91 -0.831,-0.307 -1.674,-0.617 -2.527,-0.932 -1.318,-0.479 -2.651,-0.97 -3.999,-1.472 -1.348,-0.502 -2.665,-0.992 -3.953,-1.472 v -1.617 l 15.522,5.684 z"
       id="path5099"
       style="fill:#ffffff" />
    <rect
       width="15.522"
       height="1.527"
       x="599.89819"
       y="690.79095"
       id="rect5101"
       style="fill:#ffffff" />
    <polygon
       points="261.244,1042.399 245.722,1042.422 245.722,1040.939 259.717,1040.939 259.717,1033.639 261.244,1033.616 "
       transform="translate(354.17621,-354.29203)"
       id="polygon5103"
       style="fill:#ffffff" />
    <polygon
       points="261.244,1031.662 245.722,1031.685 245.722,1030.202 259.717,1030.202 259.717,1022.901 261.244,1022.879 "
       transform="translate(354.17621,-354.29203)"
       id="polygon5105"
       style="fill:#ffffff" />
    <rect
       width="15.522"
       height="1.527"
       x="599.89819"
       y="665.09296"
       id="rect5107"
       style="fill:#ffffff" />
    <path
       d="m 599.89821,657.66897 v -1.19 l 15.522,-5.729 v 1.572 l -6.178,2.337 v 4.807 c 0.989,0.359 2.019,0.741 3.089,1.146 1.071,0.404 2.101,0.794 3.089,1.168 v 1.572 l -15.522,-5.683 z m 7.817,-2.448 c -0.435,0.149 -0.846,0.3 -1.235,0.449 -0.39,0.149 -0.779,0.3 -1.168,0.449 h 0.022 c -0.24,0.09 -0.461,0.172 -0.663,0.248 -0.202,0.074 -0.4,0.148 -0.596,0.224 -0.194,0.075 -0.4,0.15 -0.617,0.225 -0.217,0.075 -0.461,0.165 -0.73,0.27 0.344,0.12 0.674,0.24 0.988,0.359 0.314,0.12 0.637,0.24 0.967,0.359 0.523,0.21 1.018,0.397 1.482,0.563 0.464,0.164 0.981,0.352 1.55,0.561 v -3.707 z"
       id="path5109"
       style="fill:#ffffff" />
    <path
       d="m 599.89821,638.41697 v -1.415 h 15.522 v 1.527 l -12.333,0.022 c 1.123,0.674 2.3,1.367 3.528,2.078 1.227,0.712 2.403,1.382 3.526,2.011 v 0.943 l -7.031,4.156 c 0.943,0 1.91,0 2.898,-0.011 0.989,-0.01 1.962,-0.012 2.92,-0.012 h 6.492 v 1.505 l -15.522,0.022 v -1.37 l 8.02,-4.785 -8.02,-4.671 z"
       id="path5111"
       style="fill:#ffffff" />
    <path
       d="m 612.25321,633.34097 c 0.569,-0.374 1.019,-0.843 1.348,-1.404 0.329,-0.562 0.494,-1.194 0.494,-1.898 0,-0.419 -0.068,-0.819 -0.202,-1.201 -0.135,-0.383 -0.319,-0.72 -0.551,-1.012 -0.232,-0.292 -0.509,-0.523 -0.831,-0.696 -0.321,-0.172 -0.67,-0.258 -1.045,-0.258 -0.344,0 -0.677,0.082 -0.999,0.247 -0.322,0.165 -0.618,0.386 -0.888,0.662 -0.269,0.277 -0.497,0.604 -0.684,0.978 -0.188,0.375 -0.319,0.764 -0.394,1.168 -0.09,0.629 -0.266,1.221 -0.528,1.774 -0.262,0.555 -0.587,1.038 -0.977,1.449 -0.389,0.412 -0.835,0.738 -1.337,0.978 -0.501,0.239 -1.021,0.36 -1.561,0.36 -0.614,0 -1.179,-0.128 -1.696,-0.383 -0.516,-0.255 -0.965,-0.603 -1.347,-1.045 -0.383,-0.441 -0.682,-0.958 -0.9,-1.55 -0.216,-0.592 -0.325,-1.225 -0.325,-1.897 0,-0.899 0.168,-1.7 0.505,-2.404 0.337,-0.704 0.82,-1.34 1.449,-1.909 l 0.989,1.213 c -0.464,0.39 -0.828,0.846 -1.089,1.37 -0.263,0.524 -0.394,1.101 -0.394,1.73 0,0.434 0.071,0.85 0.214,1.246 0.143,0.396 0.337,0.749 0.584,1.056 0.247,0.308 0.535,0.555 0.864,0.741 0.33,0.188 0.682,0.281 1.056,0.281 0.375,0 0.734,-0.079 1.079,-0.236 0.345,-0.157 0.655,-0.378 0.932,-0.662 0.277,-0.285 0.502,-0.622 0.673,-1.012 0.173,-0.389 0.282,-0.809 0.327,-1.258 0.075,-0.629 0.247,-1.217 0.516,-1.764 0.27,-0.546 0.599,-1.018 0.989,-1.415 0.389,-0.396 0.831,-0.707 1.325,-0.932 0.494,-0.225 1.01,-0.337 1.55,-0.337 0.584,0 1.134,0.123 1.651,0.37 0.516,0.247 0.966,0.587 1.348,1.022 0.381,0.435 0.681,0.939 0.898,1.516 0.218,0.577 0.326,1.195 0.326,1.854 0,0.959 -0.217,1.823 -0.651,2.595 -0.435,0.771 -1.011,1.396 -1.73,1.876 l -0.988,-1.213 z"
       id="path5113"
       style="fill:#ffffff" />
    <path
       d="m 615.42021,618.13297 v 4.673 l -15.522,0.022 v -5.055 c 0.015,-0.584 0.131,-1.135 0.348,-1.651 0.217,-0.516 0.505,-0.966 0.865,-1.348 0.359,-0.382 0.775,-0.685 1.247,-0.909 0.472,-0.226 0.97,-0.338 1.493,-0.338 0.704,0 1.341,0.165 1.91,0.495 0.57,0.329 1.041,0.764 1.415,1.303 0.405,-0.629 0.936,-1.139 1.595,-1.527 0.659,-0.39 1.363,-0.585 2.111,-0.585 0.615,0 1.192,0.116 1.731,0.349 0.539,0.232 1.01,0.551 1.415,0.955 0.404,0.404 0.726,0.884 0.966,1.438 0.239,0.554 0.367,1.153 0.381,1.797 v -0.022 l 0.045,0.403 z m -14.04,3.19 h 5.033 v -3.55 c -0.015,-0.389 -0.086,-0.749 -0.214,-1.078 -0.127,-0.329 -0.303,-0.618 -0.528,-0.865 -0.224,-0.247 -0.494,-0.441 -0.808,-0.584 -0.315,-0.142 -0.653,-0.213 -1.012,-0.213 -0.314,0 -0.613,0.071 -0.898,0.213 -0.285,0.143 -0.539,0.337 -0.764,0.584 -0.225,0.247 -0.407,0.536 -0.55,0.865 -0.142,0.329 -0.228,0.689 -0.259,1.078 v 3.55 z m 12.513,-3.55 c -0.015,-0.419 -0.108,-0.816 -0.281,-1.19 -0.172,-0.374 -0.393,-0.696 -0.662,-0.966 -0.27,-0.27 -0.58,-0.483 -0.933,-0.641 -0.352,-0.157 -0.73,-0.235 -1.135,-0.235 -0.374,0 -0.733,0.078 -1.078,0.235 -0.344,0.157 -0.651,0.371 -0.921,0.641 -0.269,0.27 -0.486,0.592 -0.651,0.966 -0.165,0.374 -0.262,0.771 -0.292,1.19 v 3.55 h 5.953 v -3.55 z"
       id="path5115"
       style="fill:#ffffff" />
    <path
       d="m 611.37621,609.39497 c 0.345,-0.06 0.678,-0.214 1,-0.461 0.322,-0.247 0.61,-0.562 0.865,-0.943 0.255,-0.382 0.457,-0.82 0.607,-1.314 0.149,-0.494 0.224,-1.018 0.224,-1.572 0,-0.524 -0.075,-1.025 -0.224,-1.505 -0.15,-0.479 -0.352,-0.906 -0.607,-1.28 -0.255,-0.375 -0.543,-0.686 -0.865,-0.933 -0.322,-0.247 -0.655,-0.4 -1,-0.461 h -11.479 v -1.527 h 11.501 c 0.585,0.03 1.132,0.202 1.641,0.517 0.509,0.314 0.954,0.73 1.336,1.247 0.382,0.517 0.686,1.116 0.91,1.797 0.225,0.682 0.337,1.396 0.337,2.146 0,0.794 -0.112,1.539 -0.337,2.235 -0.224,0.696 -0.528,1.311 -0.91,1.842 -0.382,0.532 -0.827,0.955 -1.336,1.27 -0.509,0.314 -1.056,0.494 -1.641,0.539 h -11.501 v -1.595 h 11.479 z"
       id="path5117"
       style="fill:#ffffff" />
    <path
       d="m 608.41121,595.46697 h 7.009 v 1.505 l -15.523,0.022 v -4.583 c 0,-0.629 0.101,-1.217 0.303,-1.764 0.202,-0.546 0.483,-1.025 0.843,-1.438 0.359,-0.411 0.783,-0.737 1.269,-0.977 0.486,-0.24 1.007,-0.359 1.561,-0.359 0.569,0 1.097,0.119 1.584,0.359 0.487,0.239 0.918,0.565 1.292,0.977 0.374,0.412 0.666,0.892 0.876,1.438 0.21,0.547 0.314,1.135 0.314,1.764 v 1.482 c 0.464,-0.404 0.933,-0.819 1.404,-1.246 0.472,-0.427 0.948,-0.857 1.426,-1.292 0.734,-0.644 1.521,-1.329 2.359,-2.056 0.839,-0.726 1.603,-1.396 2.292,-2.011 v 1.955 l -7.009,6.224 z m -7.053,0 h 5.055 v -3.056 c 0,-0.404 -0.064,-0.789 -0.192,-1.156 -0.127,-0.367 -0.306,-0.686 -0.539,-0.955 -0.231,-0.27 -0.501,-0.486 -0.808,-0.651 -0.307,-0.165 -0.641,-0.247 -1,-0.247 -0.329,0 -0.648,0.082 -0.954,0.247 -0.307,0.165 -0.577,0.386 -0.809,0.662 -0.232,0.277 -0.416,0.6 -0.551,0.967 -0.135,0.367 -0.202,0.76 -0.202,1.179 v 3.01 z"
       id="path5119"
       style="fill:#ffffff" />
    <path
       d="m 613.46621,574.12597 c 0.674,0.674 1.201,1.427 1.583,2.258 0.383,0.831 0.573,1.719 0.573,2.662 0,0.975 -0.206,1.891 -0.618,2.752 -0.411,0.861 -0.976,1.613 -1.695,2.258 -0.719,0.644 -1.558,1.153 -2.517,1.527 -0.958,0.374 -1.976,0.563 -3.055,0.563 -1.092,0 -2.119,-0.188 -3.077,-0.563 -0.959,-0.374 -1.798,-0.884 -2.516,-1.527 -0.719,-0.645 -1.288,-1.396 -1.707,-2.258 -0.419,-0.861 -0.629,-1.777 -0.629,-2.752 0,-0.943 0.21,-1.85 0.629,-2.719 0.419,-0.868 1.004,-1.662 1.752,-2.381 l 1.055,1.056 c -0.598,0.569 -1.062,1.202 -1.392,1.898 -0.329,0.696 -0.494,1.413 -0.494,2.146 0,0.764 0.165,1.486 0.494,2.168 0.33,0.683 0.783,1.276 1.359,1.785 0.576,0.51 1.25,0.914 2.022,1.214 0.771,0.3 1.606,0.449 2.504,0.449 0.884,0 1.715,-0.149 2.494,-0.449 0.779,-0.3 1.457,-0.704 2.033,-1.214 0.577,-0.509 1.033,-1.103 1.37,-1.785 0.337,-0.682 0.506,-1.404 0.506,-2.168 0,-0.659 -0.12,-1.28 -0.36,-1.864 -0.239,-0.584 -0.576,-1.108 -1.01,-1.573 h -3.82 v 4.111 h -1.482 v -5.639 h 5.796 l 0.202,0.045 z"
       id="path5121"
       style="fill:#ffffff" />
    <path
       d="m 623.31021,702.99097 c -0.261,0.248 -0.462,0.521 -0.605,0.82 -0.143,0.299 -0.214,0.608 -0.214,0.927 0,0.325 0.071,0.634 0.214,0.927 0.143,0.293 0.338,0.55 0.585,0.771 0.248,0.222 0.539,0.396 0.874,0.522 0.334,0.127 0.694,0.19 1.078,0.19 0.377,0 0.733,-0.061 1.068,-0.181 0.335,-0.12 0.63,-0.288 0.883,-0.503 0.254,-0.214 0.456,-0.47 0.605,-0.766 0.15,-0.296 0.225,-0.616 0.225,-0.961 0,-0.318 -0.072,-0.623 -0.215,-0.912 -0.144,-0.29 -0.342,-0.562 -0.596,-0.815 l 0.45,-0.457 c 0.318,0.305 0.57,0.643 0.755,1.014 0.186,0.371 0.279,0.761 0.279,1.171 0,0.403 -0.091,0.79 -0.274,1.161 -0.181,0.371 -0.428,0.697 -0.741,0.98 -0.312,0.283 -0.679,0.509 -1.098,0.678 -0.419,0.17 -0.867,0.254 -1.341,0.254 -0.455,0 -0.89,-0.079 -1.303,-0.239 -0.413,-0.159 -0.775,-0.379 -1.088,-0.658 -0.312,-0.279 -0.561,-0.604 -0.746,-0.976 -0.186,-0.371 -0.278,-0.771 -0.278,-1.2 0,-0.41 0.092,-0.807 0.278,-1.19 0.185,-0.384 0.437,-0.722 0.756,-1.015 l 0.449,0.458 z"
       id="path5123"
       style="fill:#ffffff" />
    <path
       d="m 627.74921,692.68797 c 0.306,0.279 0.54,0.6 0.702,0.961 0.164,0.361 0.245,0.75 0.245,1.166 0,0.416 -0.088,0.81 -0.264,1.181 -0.176,0.371 -0.418,0.697 -0.727,0.98 -0.308,0.283 -0.674,0.508 -1.097,0.673 -0.423,0.166 -0.878,0.249 -1.366,0.249 -0.475,0 -0.919,-0.081 -1.333,-0.244 -0.413,-0.162 -0.773,-0.382 -1.083,-0.658 -0.308,-0.276 -0.552,-0.601 -0.731,-0.976 -0.179,-0.374 -0.269,-0.775 -0.269,-1.205 0,-0.436 0.09,-0.841 0.269,-1.215 0.179,-0.374 0.421,-0.697 0.727,-0.971 0.305,-0.273 0.667,-0.488 1.083,-0.645 0.417,-0.155 0.862,-0.233 1.337,-0.233 0.507,0 0.974,0.081 1.4,0.243 0.426,0.164 0.795,0.396 1.107,0.694 m -4.527,0.478 c -0.234,0.209 -0.413,0.456 -0.537,0.742 -0.123,0.286 -0.185,0.589 -0.185,0.907 0,0.338 0.072,0.653 0.214,0.946 0.144,0.293 0.339,0.548 0.586,0.766 0.247,0.219 0.536,0.39 0.868,0.513 0.332,0.124 0.69,0.186 1.074,0.186 0.39,0 0.754,-0.062 1.092,-0.186 0.338,-0.123 0.633,-0.294 0.883,-0.513 0.251,-0.218 0.447,-0.473 0.591,-0.766 0.143,-0.293 0.215,-0.608 0.215,-0.946 0,-0.345 -0.072,-0.665 -0.215,-0.961 -0.144,-0.296 -0.34,-0.553 -0.591,-0.771 -0.25,-0.219 -0.545,-0.389 -0.883,-0.513 -0.338,-0.123 -0.702,-0.186 -1.092,-0.186 -0.404,0 -0.78,0.068 -1.127,0.205 -0.348,0.139 -0.646,0.33 -0.893,0.577"
       id="path5125"
       style="fill:#ffffff" />
    <path
       d="m 625.35921,683.35097 v 2.85 h 1.562 c 0.272,0 0.555,0 0.848,0 0.292,0 0.572,-0.01 0.839,-0.01 v 0.653 l -6.742,0.01 v -3.99 h 0.635 v 3.337 h 2.195 v -2.85 h 0.663 z"
       id="path5127"
       style="fill:#ffffff" />
    <path
       d="m 625.35921,674.45197 v 2.85 h 1.562 c 0.272,0 0.555,0 0.848,-0.01 0.292,0 0.572,0 0.839,0 v 0.653 l -6.742,0.01 v -3.99 h 0.635 v 3.337 h 2.195 v -2.85 h 0.663 z"
       id="path5129"
       style="fill:#ffffff" />
    <polygon
       points="268.333,1022.734 270.52,1022.734 270.52,1019.875 271.183,1019.875 271.183,1022.734 273.769,1022.734 273.769,1019.397 274.432,1019.388 274.432,1023.378 267.689,1023.388 267.689,1019.397 268.333,1019.397 "
       transform="translate(354.17621,-354.29203)"
       id="polygon5131"
       style="fill:#ffffff" />
    <polygon
       points="268.333,1013.855 270.52,1013.855 270.52,1010.996 271.183,1010.996 271.183,1013.855 273.769,1013.855 273.769,1010.519 274.432,1010.509 274.432,1014.499 267.689,1014.509 267.689,1010.519 268.333,1010.519 "
       transform="translate(354.17621,-354.29203)"
       id="polygon5133"
       style="fill:#ffffff" />
    <path
       d="m 625.56321,643.54297 h 3.044 v 0.653 l -6.742,0.01 v -1.99 c 0,-0.273 0.044,-0.527 0.132,-0.766 0.088,-0.237 0.21,-0.445 0.366,-0.625 0.157,-0.178 0.34,-0.32 0.551,-0.424 0.212,-0.104 0.438,-0.156 0.679,-0.156 0.247,0 0.476,0.052 0.687,0.156 0.211,0.104 0.399,0.246 0.561,0.424 0.163,0.18 0.29,0.388 0.381,0.625 0.091,0.238 0.136,0.492 0.136,0.766 v 0.644 c 0.202,-0.175 0.406,-0.355 0.61,-0.541 0.205,-0.186 0.412,-0.372 0.62,-0.562 0.318,-0.279 0.66,-0.577 1.024,-0.893 0.365,-0.315 0.697,-0.606 0.995,-0.873 v 0.849 l -3.044,2.703 z m -3.063,0 h 2.195 v -1.327 c 0,-0.176 -0.028,-0.343 -0.083,-0.502 -0.055,-0.16 -0.133,-0.298 -0.234,-0.415 -0.101,-0.117 -0.218,-0.211 -0.352,-0.283 -0.132,-0.071 -0.278,-0.107 -0.433,-0.107 -0.144,0 -0.281,0.036 -0.415,0.107 -0.134,0.072 -0.25,0.168 -0.352,0.288 -0.1,0.12 -0.18,0.261 -0.239,0.42 -0.058,0.159 -0.087,0.33 -0.087,0.512 v 1.307 z"
       id="path5135"
       style="fill:#ffffff" />
    <path
       d="m 627.74921,630.33997 c 0.306,0.28 0.54,0.601 0.702,0.962 0.164,0.361 0.245,0.75 0.245,1.166 0,0.416 -0.088,0.81 -0.264,1.181 -0.176,0.371 -0.418,0.697 -0.727,0.98 -0.308,0.283 -0.674,0.508 -1.097,0.673 -0.423,0.166 -0.878,0.249 -1.366,0.249 -0.475,0 -0.919,-0.081 -1.333,-0.244 -0.413,-0.162 -0.773,-0.382 -1.083,-0.658 -0.308,-0.276 -0.552,-0.602 -0.731,-0.977 -0.179,-0.374 -0.269,-0.774 -0.269,-1.204 0,-0.436 0.09,-0.841 0.269,-1.215 0.179,-0.374 0.421,-0.697 0.727,-0.971 0.305,-0.273 0.667,-0.488 1.083,-0.645 0.417,-0.155 0.862,-0.233 1.337,-0.233 0.507,0 0.974,0.081 1.4,0.243 0.426,0.164 0.795,0.395 1.107,0.693 m -4.527,0.478 c -0.234,0.209 -0.413,0.456 -0.537,0.742 -0.123,0.286 -0.185,0.589 -0.185,0.907 0,0.338 0.072,0.653 0.214,0.946 0.144,0.293 0.339,0.548 0.586,0.766 0.247,0.219 0.536,0.39 0.868,0.513 0.332,0.124 0.69,0.186 1.074,0.186 0.39,0 0.754,-0.062 1.092,-0.186 0.338,-0.123 0.633,-0.294 0.883,-0.513 0.251,-0.218 0.447,-0.473 0.591,-0.766 0.143,-0.293 0.215,-0.608 0.215,-0.946 0,-0.345 -0.072,-0.665 -0.215,-0.962 -0.144,-0.295 -0.34,-0.552 -0.591,-0.77 -0.25,-0.219 -0.545,-0.389 -0.883,-0.513 -0.338,-0.123 -0.702,-0.186 -1.092,-0.186 -0.404,0 -0.78,0.068 -1.127,0.205 -0.348,0.139 -0.646,0.33 -0.893,0.577"
       id="path5137"
       style="fill:#ffffff" />
    <path
       d="m 621.86521,622.23097 v -0.516 l 6.743,-2.488 v 0.683 l -2.684,1.016 v 2.088 c 0.43,0.156 0.877,0.321 1.342,0.497 0.466,0.176 0.912,0.345 1.342,0.508 v 0.683 l -6.743,-2.471 z m 3.396,-1.062 c -0.188,0.065 -0.367,0.131 -0.536,0.195 -0.17,0.065 -0.339,0.13 -0.508,0.195 h 0.01 c -0.104,0.039 -0.2,0.075 -0.288,0.107 -0.088,0.032 -0.174,0.064 -0.259,0.098 -0.084,0.032 -0.174,0.064 -0.268,0.098 -0.094,0.032 -0.2,0.071 -0.317,0.117 0.149,0.052 0.293,0.104 0.43,0.155 0.135,0.053 0.276,0.104 0.419,0.156 0.227,0.092 0.442,0.173 0.644,0.244 0.201,0.07 0.426,0.153 0.673,0.244 v -1.609 z"
       id="path5139"
       style="fill:#ffffff" />
    <path
       d="m 627.23221,614.08597 c 0.247,-0.163 0.442,-0.366 0.586,-0.61 0.143,-0.244 0.215,-0.519 0.215,-0.824 0,-0.182 -0.03,-0.356 -0.088,-0.522 -0.059,-0.165 -0.139,-0.312 -0.239,-0.439 -0.101,-0.126 -0.222,-0.227 -0.362,-0.302 -0.139,-0.074 -0.291,-0.112 -0.453,-0.112 -0.15,0 -0.295,0.036 -0.434,0.107 -0.14,0.072 -0.269,0.168 -0.386,0.288 -0.117,0.12 -0.216,0.262 -0.297,0.425 -0.082,0.162 -0.139,0.331 -0.171,0.507 -0.039,0.273 -0.115,0.53 -0.229,0.771 -0.115,0.241 -0.255,0.451 -0.425,0.63 -0.169,0.179 -0.363,0.32 -0.58,0.424 -0.218,0.104 -0.445,0.156 -0.679,0.156 -0.267,0 -0.512,-0.055 -0.736,-0.166 -0.225,-0.11 -0.419,-0.262 -0.585,-0.453 -0.166,-0.192 -0.296,-0.416 -0.391,-0.674 -0.094,-0.257 -0.142,-0.531 -0.142,-0.824 0,-0.39 0.074,-0.738 0.22,-1.044 0.147,-0.306 0.357,-0.582 0.629,-0.829 l 0.43,0.526 c -0.201,0.17 -0.36,0.368 -0.474,0.596 -0.113,0.228 -0.17,0.478 -0.17,0.751 0,0.188 0.031,0.369 0.092,0.542 0.063,0.172 0.147,0.325 0.254,0.458 0.107,0.134 0.232,0.241 0.376,0.322 0.143,0.081 0.296,0.122 0.458,0.122 0.163,0 0.319,-0.034 0.469,-0.103 0.149,-0.068 0.285,-0.164 0.405,-0.288 0.12,-0.123 0.218,-0.27 0.292,-0.438 0.075,-0.169 0.122,-0.352 0.142,-0.547 0.033,-0.273 0.107,-0.528 0.224,-0.766 0.117,-0.237 0.261,-0.442 0.43,-0.615 0.169,-0.172 0.36,-0.307 0.575,-0.404 0.215,-0.097 0.44,-0.146 0.674,-0.146 0.253,0 0.492,0.054 0.717,0.161 0.224,0.107 0.42,0.255 0.585,0.443 0.166,0.189 0.297,0.408 0.39,0.659 0.095,0.25 0.142,0.519 0.142,0.805 0,0.416 -0.095,0.792 -0.283,1.127 -0.189,0.335 -0.439,0.606 -0.751,0.814 l -0.43,-0.528 z"
       id="path5141"
       style="fill:#ffffff" />
    <path
       d="m 622.51021,602.94297 h 2.976 c 0.513,0 1.036,-0.002 1.565,-0.005 0.53,-0.003 1.049,-0.005 1.557,-0.005 v 0.653 l -6.098,0.01 v 2.127 h -0.645 v -4.888 h 0.645 v 2.108 z"
       id="path5143"
       style="fill:#ffffff" />
    <polygon
       points="268.333,949.586 270.52,949.586 270.52,946.727 271.183,946.727 271.183,949.586 273.769,949.586 273.769,946.249 274.432,946.239 274.432,950.229 267.689,950.239 267.689,946.249 268.333,946.249 "
       transform="translate(354.17621,-354.29203)"
       id="polygon5145"
       style="fill:#ffffff" />
    <path
       d="m 625.56321,586.41497 h 3.044 v 0.653 l -6.742,0.01 v -1.99 c 0,-0.273 0.044,-0.528 0.132,-0.766 0.088,-0.238 0.21,-0.445 0.366,-0.625 0.157,-0.179 0.34,-0.32 0.551,-0.424 0.212,-0.104 0.438,-0.156 0.679,-0.156 0.247,0 0.476,0.052 0.687,0.156 0.211,0.104 0.399,0.245 0.561,0.424 0.163,0.18 0.29,0.388 0.381,0.625 0.091,0.237 0.136,0.492 0.136,0.766 v 0.644 c 0.202,-0.175 0.406,-0.355 0.61,-0.541 0.205,-0.186 0.412,-0.372 0.62,-0.562 0.318,-0.279 0.66,-0.577 1.024,-0.893 0.365,-0.315 0.697,-0.606 0.995,-0.873 v 0.849 l -3.044,2.703 z m -3.063,0 h 2.195 v -1.327 c 0,-0.176 -0.028,-0.343 -0.083,-0.502 -0.055,-0.16 -0.133,-0.298 -0.234,-0.415 -0.101,-0.117 -0.218,-0.211 -0.352,-0.283 -0.132,-0.071 -0.278,-0.107 -0.433,-0.107 -0.144,0 -0.281,0.036 -0.415,0.107 -0.134,0.072 -0.25,0.168 -0.352,0.288 -0.1,0.12 -0.18,0.26 -0.239,0.42 -0.058,0.159 -0.087,0.33 -0.087,0.512 v 1.307 z"
       id="path5147"
       style="fill:#ffffff" />
    <path
       d="m 627.23221,577.79997 c 0.247,-0.163 0.442,-0.366 0.586,-0.61 0.143,-0.243 0.215,-0.519 0.215,-0.824 0,-0.182 -0.03,-0.356 -0.088,-0.522 -0.059,-0.165 -0.139,-0.312 -0.239,-0.439 -0.101,-0.125 -0.222,-0.227 -0.362,-0.302 -0.139,-0.073 -0.291,-0.112 -0.453,-0.112 -0.15,0 -0.295,0.036 -0.434,0.107 -0.14,0.072 -0.269,0.168 -0.386,0.288 -0.117,0.12 -0.216,0.262 -0.297,0.425 -0.082,0.162 -0.139,0.331 -0.171,0.507 -0.039,0.273 -0.115,0.53 -0.229,0.771 -0.115,0.241 -0.255,0.451 -0.425,0.63 -0.169,0.179 -0.363,0.32 -0.58,0.424 -0.218,0.104 -0.445,0.156 -0.679,0.156 -0.267,0 -0.512,-0.055 -0.736,-0.166 -0.225,-0.11 -0.419,-0.262 -0.585,-0.453 -0.166,-0.192 -0.296,-0.416 -0.391,-0.674 -0.094,-0.257 -0.142,-0.531 -0.142,-0.824 0,-0.39 0.074,-0.738 0.22,-1.044 0.147,-0.306 0.357,-0.582 0.629,-0.829 l 0.43,0.526 c -0.201,0.17 -0.36,0.368 -0.474,0.596 -0.113,0.228 -0.17,0.478 -0.17,0.751 0,0.188 0.031,0.369 0.092,0.542 0.063,0.172 0.147,0.325 0.254,0.458 0.107,0.134 0.232,0.241 0.376,0.322 0.143,0.081 0.296,0.122 0.458,0.122 0.163,0 0.319,-0.034 0.469,-0.103 0.149,-0.068 0.285,-0.164 0.405,-0.288 0.12,-0.123 0.218,-0.27 0.292,-0.438 0.075,-0.169 0.122,-0.352 0.142,-0.547 0.033,-0.273 0.107,-0.528 0.224,-0.766 0.117,-0.237 0.261,-0.442 0.43,-0.615 0.169,-0.171 0.36,-0.307 0.575,-0.404 0.215,-0.097 0.44,-0.146 0.674,-0.146 0.253,0 0.492,0.054 0.717,0.161 0.224,0.107 0.42,0.255 0.585,0.443 0.166,0.189 0.297,0.408 0.39,0.659 0.095,0.25 0.142,0.519 0.142,0.805 0,0.416 -0.095,0.792 -0.283,1.127 -0.189,0.335 -0.439,0.606 -0.751,0.814 l -0.43,-0.528 z"
       id="path5149"
       style="fill:#ffffff" />
    <polygon
       points="256.385,913.313 255.345,913.314 253.271,913.319 254.644,918.237 "
       transform="translate(354.17621,-354.29203)"
       id="polygon5151"
       style="fill:#ffffff" />
    <polygon
       points="253.304,912.639 255.557,912.634 256.627,912.634 259.38,905.016 257.689,900.305 257.686,900.317 257.671,900.28 "
       transform="translate(354.17621,-354.29203)"
       id="polygon5153"
       style="fill:#ffffff" />
    <path
       d="m 610.32621,539.53997 c 0.117,0.339 0.288,0.836 0.482,1.396 0.328,0.954 0.722,2.099 1.029,2.992 l 0.591,-1.82 0.836,-2.568 h -2.938 z"
       id="path5155"
       style="fill:#ffffff" />
    <polygon
       points="257.675,900.267 257.671,900.28 257.686,900.317 257.689,900.305 "
       transform="translate(354.17621,-354.29203)"
       id="polygon5157"
       style="fill:#ffffff" />
    <polygon
       points="252.396,913.319 251.457,913.32 248.977,913.324 250.769,918.228 "
       transform="translate(354.17621,-354.29203)"
       id="polygon5159"
       style="fill:#ffffff" />
    <polygon
       points="251.264,912.641 252.352,912.639 245.518,893.832 241.962,893.832 248.729,912.645 "
       transform="translate(354.17621,-354.29203)"
       id="polygon5161"
       style="fill:#ffffff" />
    <polygon
       points="252.778,914.265 251.257,919.01 254.167,919.01 "
       transform="translate(354.17621,-354.29203)"
       id="polygon5163"
       style="fill:#ffffff" />
    <polygon
       points="270.787,912.613 277.449,893.832 273.914,893.832 267.249,912.616 269.305,912.614 "
       transform="translate(354.17621,-354.29203)"
       id="polygon5165"
       style="fill:#ffffff" />
    <polygon
       points="268.781,918.223 270.545,913.293 269.132,913.294 267.216,913.297 267.89,915.723 "
       transform="translate(354.17621,-354.29203)"
       id="polygon5167"
       style="fill:#ffffff" />
    <polygon
       points="263.176,913.301 265.013,918.232 266.336,913.297 266.299,913.297 "
       transform="translate(354.17621,-354.29203)"
       id="polygon5169"
       style="fill:#ffffff" />
    <polygon
       points="265.502,918.985 268.299,918.985 266.844,914.224 "
       transform="translate(354.17621,-354.29203)"
       id="polygon5171"
       style="fill:#ffffff" />
    <path
       d="m 613.90821,549.72697 1.683,-4.757 c -0.355,-0.962 -1.32,-3.606 -1.794,-4.91 l -1.595,4.914 1.706,4.753 z"
       id="path5173"
       style="fill:#ffffff" />
    <path
       d="m 611.83721,543.92897 0.591,-1.82 -0.591,1.82 z"
       id="path5175"
       style="fill:#ffffff" />
    <path
       d="m 611.86521,546.01297 -0.014,-0.038 0.014,0.038 z"
       id="path5177"
       style="fill:#ffffff" />
    <polygon
       points="264.21,912.617 266.294,912.616 261.778,900.265 260.123,904.924 260.092,905.013 262.922,912.619 "
       transform="translate(354.17621,-354.29203)"
       id="polygon5179"
       style="fill:#ffffff" />
    <path
       d="m 625.55321,558.35297 0.627,-1.735 0.092,0.002 0.093,0.005 c 0.763,0 1.526,-0.261 2.21,-0.754 0.97,-0.702 1.67,-1.783 1.969,-3.039 0.302,-1.268 0.167,-2.548 -0.38,-3.603 -0.216,-0.426 -0.496,-0.799 -0.828,-1.107 l -0.063,-0.059 0.642,-1.773 0.14,0.102 c 0.703,0.514 1.277,1.19 1.705,2.017 0.742,1.444 0.931,3.164 0.528,4.838 -0.396,1.676 -1.348,3.116 -2.663,4.079 -1.716,1.255 -4.072,1.027 -4.072,1.027"
       id="path5181"
       style="fill:#ffffff" />
  </g>
</svg>
