<?xml version="1.0" encoding="UTF-8" standalone="no"?>
<!-- Created with Inkscape (http://www.inkscape.org/) -->

<svg
   xmlns:dc="http://purl.org/dc/elements/1.1/"
   xmlns:cc="http://creativecommons.org/ns#"
   xmlns:rdf="http://www.w3.org/1999/02/22-rdf-syntax-ns#"
   xmlns:svg="http://www.w3.org/2000/svg"
   xmlns="http://www.w3.org/2000/svg"
   version="1.1"
   width="257.22632"
   height="185.27866"
   id="svg2">
  <defs
     id="defs4" />
  <metadata
     id="metadata7">
    <rdf:RDF>
      <cc:Work
         rdf:about="">
        <dc:format>image/svg+xml</dc:format>
        <dc:type
           rdf:resource="http://purl.org/dc/dcmitype/StillImage" />
        <dc:title></dc:title>
      </cc:Work>
    </rdf:RDF>
  </metadata>
  <g
     transform="translate(-173.70322,-471.23677)"
     id="layer1">
    <text
       x="168.79121"
       y="473.47086"
       id="text2985"
       xml:space="preserve"
       style="font-size:40px;font-style:normal;font-weight:normal;line-height:125%;letter-spacing:0px;word-spacing:0px;fill:#000000;fill-opacity:1;stroke:none;font-family:Sans"><tspan
         x="168.79121"
         y="473.47086"
         id="tspan2987" /></text>
    <g
       transform="matrix(0.98890609,-0.14854208,0.14854208,0.98890609,-74.801721,50.408722)"
       id="g3127">
      <path
         d="m 195.15826,455.80915 c -44.96973,12.03046 46.1702,30.20169 -16.52204,30.20169"
         id="path3069"
         style="fill:none;stroke:#000000;stroke-width:0.68513644px;stroke-linecap:butt;stroke-linejoin:miter;stroke-opacity:1" />
      <path
         d="m 214.15862,468.24514 c -12.55922,-7.15024 -3.60005,35.8493 9.08712,22.20713 10.58185,-11.37836 -7.94874,-18.65399 -11.56543,-18.65399"
         id="path3077"
         style="fill:none;stroke:#000000;stroke-width:0.68513644px;stroke-linecap:butt;stroke-linejoin:miter;stroke-opacity:1" />
      <path
         d="m 229.02846,474.46314 c -0.22164,29.00441 -0.2152,8.88285 4.95661,8.88285 8.66907,0 8.68064,15.10084 8.26103,15.10084 -5.68677,0 8.09062,-24.1948 11.56543,-1.77657"
         id="path3079"
         style="fill:none;stroke:#000000;stroke-width:0.68513644px;stroke-linecap:butt;stroke-linejoin:miter;stroke-opacity:1" />
      <path
         d="m 264.55086,488.6757 c 10.28177,-3.00143 -7.98628,4.32325 4.13051,-0.88829 2.23554,-0.96152 -0.66376,-15.27539 -5.78272,-9.77113 -3.44937,3.70902 -5.13966,27.29962 8.26103,18.65398"
         id="path3081"
         style="fill:none;stroke:#000000;stroke-width:0.68513644px;stroke-linecap:butt;stroke-linejoin:miter;stroke-opacity:1" />
      <path
         d="m 305.02987,478.90456 c -17.89332,7.10827 15.50589,29.31341 -10.73933,29.31341"
         id="path3087"
         style="fill:none;stroke:#000000;stroke-width:0.68513644px;stroke-linecap:butt;stroke-linejoin:miter;stroke-opacity:1" />
      <path
         d="m 317.42141,473.57485 c -3.23557,9.18699 1.538,32.10107 -4.13052,38.19626 -3.40053,3.65651 -0.99696,-12.78827 3.30442,-15.10085 11.26301,-6.0554 10.73932,11.47063 10.73932,18.65399"
         id="path3089"
         style="fill:none;stroke:#000000;stroke-width:0.68513644px;stroke-linecap:butt;stroke-linejoin:miter;stroke-opacity:1" />
      <path
         d="m 338.07397,500.2234 c 0.93743,6.34205 -0.91038,11.20311 -1.65221,15.98913"
         id="path3091"
         style="fill:none;stroke:#000000;stroke-width:0.68513644px;stroke-linecap:butt;stroke-linejoin:miter;stroke-opacity:1" />
      <path
         d="m 339.72617,486.89913 c 0,6.87428 0,6.87428 0,0 z"
         id="path3093"
         style="fill:none;stroke:#000000;stroke-width:0.68513644px;stroke-linecap:butt;stroke-linejoin:miter;stroke-opacity:1" />
      <path
         d="m 352.94381,494.00541 c -0.92268,13.84393 0.66177,25.68863 11.56543,18.65398"
         id="path3095"
         style="fill:none;stroke:#000000;stroke-width:0.68513644px;stroke-linecap:butt;stroke-linejoin:miter;stroke-opacity:1" />
      <path
         d="m 344.68278,502.88826 c 6.60883,0 13.21764,0 19.82646,0"
         id="path3097"
         style="fill:none;stroke:#000000;stroke-width:0.68513644px;stroke-linecap:butt;stroke-linejoin:miter;stroke-opacity:1" />
      <path
         d="m 187.72335,505.55311 c 1.24075,31.41572 0.71597,19.66069 12.39153,7.10628 1.75636,-1.88856 1.22964,16.42305 3.30441,18.65399 1.67453,1.80058 8.90668,-15.53639 9.08712,-15.98913"
         id="path3099"
         style="fill:none;stroke:#000000;stroke-width:0.68513644px;stroke-linecap:butt;stroke-linejoin:miter;stroke-opacity:1" />
      <path
         d="m 216.63693,523.31882 c 3.56542,2.04618 6.01065,2.66485 9.91322,2.66485 6.32137,0 -9.91322,-25.02824 -9.91322,2.66486 0,12.15888 4.14984,14.37359 11.56543,7.99457"
         id="path3101"
         style="fill:none;stroke:#000000;stroke-width:0.68513644px;stroke-linecap:butt;stroke-linejoin:miter;stroke-opacity:1" />
      <path
         d="m 259.59424,514.43596 c -15.94722,45.67028 8.26103,2.46502 8.26103,32.86656"
         id="path3109"
         style="fill:none;stroke:#000000;stroke-width:0.68513644px;stroke-linecap:butt;stroke-linejoin:miter;stroke-opacity:1" />
      <path
         d="m 280.2468,537.53138 c -5.11688,-1.91187 -5.21752,0.28054 -7.43491,2.66486 -1.71699,1.84621 -3.94797,15.0027 2.4783,11.5477 4.20871,-2.26276 0.25113,-14.21256 4.95661,-14.21256 6.72258,0 5.80088,14.04662 11.56544,17.76571"
         id="path3111"
         style="fill:none;stroke:#000000;stroke-width:0.68513644px;stroke-linecap:butt;stroke-linejoin:miter;stroke-opacity:1" />
      <path
         d="m 294.29054,537.53138 c 6.31961,12.68092 3.64072,22.37216 10.73933,7.10628"
         id="path3113"
         style="fill:none;stroke:#000000;stroke-width:0.68513644px;stroke-linecap:butt;stroke-linejoin:miter;stroke-opacity:1" />
      <path
         d="m 314.9431,549.96737 c 27.1021,-21.28018 -19.36989,14.21257 16.52205,14.21257"
         id="path3115"
         style="fill:none;stroke:#000000;stroke-width:0.68513644px;stroke-linecap:butt;stroke-linejoin:miter;stroke-opacity:1" />
      <path
         d="m 368.63976,527.76024 c -3.59162,57.06814 -11.01348,15.6904 -22.30477,39.97284 -5.57135,11.98143 12.77055,10.32504 15.69594,0.88828"
         id="path3119"
         style="fill:none;stroke:#000000;stroke-width:0.68513644px;stroke-linecap:butt;stroke-linejoin:miter;stroke-opacity:1" />
      <path
         d="m 377.72688,562.40337 c -31.21037,9.4748 18.75559,33.61229 0,0 z"
         id="path3121"
         style="fill:none;stroke:#000000;stroke-width:0.68513644px;stroke-linecap:butt;stroke-linejoin:miter;stroke-opacity:1" />
      <path
         d="m 386.814,565.06822 c -6.52201,33.55267 12.39154,-8.44915 12.39154,19.54227"
         id="path3123"
         style="fill:none;stroke:#000000;stroke-width:0.68513644px;stroke-linecap:butt;stroke-linejoin:miter;stroke-opacity:1" />
      <path
         d="m 409.94487,584.61049 c 24.1365,2.46483 0,-38.22621 0,0 0,10.35747 0.96622,11.54771 11.56543,11.54771"
         id="path3125"
         style="fill:none;stroke:#000000;stroke-width:0.68513644px;stroke-linecap:butt;stroke-linejoin:miter;stroke-opacity:1" />
    </g>
    <path
       d="m 253.81197,580.9971 c -3.59441,30.97696 12.24995,71.2674 37.50915,71.2674"
       id="path3153"
       style="fill:none;stroke:#000000;stroke-width:1px;stroke-linecap:butt;stroke-linejoin:miter;stroke-opacity:1" />
    <path
       d="m 287.57021,624.75779 c -0.29655,10.8329 -0.62691,21.87507 2.50061,31.25763 -10.83598,0 -21.67196,0 -32.50794,0"
       id="path3159"
       style="fill:none;stroke:#000000;stroke-width:1px;stroke-linecap:butt;stroke-linejoin:miter;stroke-opacity:1" />
  </g>
</svg>
