<?xml version="1.0" encoding="UTF-8" standalone="no"?>
<!-- Created with Inkscape (http://www.inkscape.org/) -->

<svg
   xmlns:dc="http://purl.org/dc/elements/1.1/"
   xmlns:cc="http://creativecommons.org/ns#"
   xmlns:rdf="http://www.w3.org/1999/02/22-rdf-syntax-ns#"
   xmlns:svg="http://www.w3.org/2000/svg"
   xmlns="http://www.w3.org/2000/svg"
   version="1.1"
   width="256.74335"
   height="185"
   id="svg3180">
  <defs
     id="defs3182" />
  <metadata
     id="metadata3185">
    <rdf:RDF>
      <cc:Work
         rdf:about="">
        <dc:format>image/svg+xml</dc:format>
        <dc:type
           rdf:resource="http://purl.org/dc/dcmitype/StillImage" />
        <dc:title></dc:title>
      </cc:Work>
    </rdf:RDF>
  </metadata>
  <g
     transform="translate(-203.00666,-385.71875)"
     id="layer1">
    <path
       d="m 215.01051,386.37233 c -42.68381,18.57689 50.14421,23.00842 -11.85252,32.32085"
       id="path3069"
       style="fill:none;stroke:#fa9c0c;stroke-width:0.68513644px;stroke-linecap:butt;stroke-linejoin:miter;stroke-opacity:1" />
    <path
       d="m 235.64735,395.848 c -13.482,-5.20534 1.76502,35.98635 12.285,20.61095 8.77429,-12.82398 -10.63146,-17.26632 -14.20802,-16.72909"
       id="path3077"
       style="fill:none;stroke:#fa9c0c;stroke-width:0.68513644px;stroke-linecap:butt;stroke-linejoin:miter;stroke-opacity:1" />
    <path
       d="m 251.27586,399.78822 c 4.08919,28.71556 1.10666,8.81627 6.2211,8.04804 8.5729,-1.28772 10.82745,13.64387 10.41249,13.7062 -5.62368,0.84473 4.40692,-25.12818 11.17323,-3.47481"
       id="path3079"
       style="fill:none;stroke:#fa9c0c;stroke-width:0.68513644px;stroke-linecap:butt;stroke-linejoin:miter;stroke-opacity:1" />
    <path
       d="m 288.51534,408.56654 c 9.72187,-4.49541 -7.2555,5.46159 3.95274,-1.49199 2.06791,-1.28293 -2.92544,-15.00733 -7.16999,-8.80375 -2.86016,4.18025 -1.0275,27.76021 10.94028,17.21992"
       id="path3081"
       style="fill:none;stroke:#fa9c0c;stroke-width:0.68513644px;stroke-linecap:butt;stroke-linejoin:miter;stroke-opacity:1" />
    <path
       d="m 327.09386,392.89096 c -16.63894,9.68732 19.68814,26.68494 -6.26592,30.58345"
       id="path3087"
       style="fill:none;stroke:#fa9c0c;stroke-width:0.68513644px;stroke-linecap:butt;stroke-linejoin:miter;stroke-opacity:1" />
    <path
       d="m 215.04715,436.66883 c 5.89355,30.88289 3.62847,19.33622 13.30965,5.18678 1.45634,-2.1285 3.65551,16.0582 6.03865,17.9562 1.92341,1.53187 6.50006,-16.68705 6.61125,-17.16157"
       id="path3099"
       style="fill:none;stroke:#fa9c0c;stroke-width:0.68513644px;stroke-linecap:butt;stroke-linejoin:miter;stroke-opacity:1" />
    <path
       d="m 246.27893,449.94257 c 3.8298,1.49386 6.33981,1.74245 10.19908,1.16275 6.25124,-0.93899 -13.52099,-23.27805 -9.4074,4.10783 1.80611,12.02399 6.23889,13.5977 12.62466,6.18792"
       id="path3101"
       style="fill:none;stroke:#fa9c0c;stroke-width:0.68513644px;stroke-linecap:butt;stroke-linejoin:miter;stroke-opacity:1" />
    <path
       d="m 287.44019,434.77728 c -8.98634,47.53245 8.53554,1.21057 13.05145,31.27483"
       id="path3109"
       style="fill:none;stroke:#fa9c0c;stroke-width:0.68513644px;stroke-linecap:butt;stroke-linejoin:miter;stroke-opacity:1" />
    <path
       d="m 311.29428,454.54871 c -5.34411,-1.13059 -5.11797,1.05245 -6.95659,3.73969 -1.4237,2.08078 -1.67564,15.4227 4.16613,11.05146 3.8259,-2.86282 -1.86282,-14.09219 2.79046,-14.79115 6.648,-0.99859 7.82304,13.02911 14.07609,15.85066"
       id="path3111"
       style="fill:none;stroke:#fa9c0c;stroke-width:0.68513644px;stroke-linecap:butt;stroke-linejoin:miter;stroke-opacity:1" />
    <path
       d="m 325.18222,452.46262 c 8.13315,11.60152 6.92354,21.58317 11.67577,5.43221"
       id="path3113"
       style="fill:none;stroke:#fa9c0c;stroke-width:0.68513644px;stroke-linecap:butt;stroke-linejoin:miter;stroke-opacity:1" />
    <path
       d="m 347.45293,461.69288 c 23.64043,-25.06991 -17.04384,16.93214 18.44992,11.60067"
       id="path3115"
       style="fill:none;stroke:#fa9c0c;stroke-width:0.68513644px;stroke-linecap:butt;stroke-linejoin:miter;stroke-opacity:1" />
    <path
       d="m 397.25519,431.7559 c 4.92524,56.96854 -8.56061,17.15229 -16.11968,42.84258 -3.72979,12.67609 14.16258,8.31353 15.65376,-1.45308"
       id="path3119"
       style="fill:none;stroke:#fa9c0c;stroke-width:0.68513644px;stroke-linecap:butt;stroke-linejoin:miter;stroke-opacity:1" />
    <path
       d="m 411.38746,464.66488 c -29.45672,14.00574 23.54036,30.45341 0,0 z"
       id="path3121"
       style="fill:none;stroke:#fa9c0c;stroke-width:0.68513644px;stroke-linecap:butt;stroke-linejoin:miter;stroke-opacity:1" />
    <path
       d="m 420.76961,465.95035 c -1.46567,34.14923 10.99902,-10.19609 15.15692,17.4848"
       id="path3123"
       style="fill:none;stroke:#fa9c0c;stroke-width:0.68513644px;stroke-linecap:butt;stroke-linejoin:miter;stroke-opacity:1" />
    <path
       d="m 446.54672,481.83991 c 24.23486,-1.1478 -5.6782,-37.80213 0,0 1.53852,10.24257 2.67082,11.27608 13.15244,9.70165"
       id="path3125"
       style="fill:none;stroke:#fa9c0c;stroke-width:0.68513644px;stroke-linecap:butt;stroke-linejoin:miter;stroke-opacity:1" />
    <path
       d="m 282.92417,495.19748 c -3.59441,30.97696 12.24995,71.2674 37.50915,71.2674"
       id="path3153"
       style="fill:none;stroke:#fa9c0c;stroke-width:1px;stroke-linecap:butt;stroke-linejoin:miter;stroke-opacity:1" />
    <path
       d="m 316.68241,538.95817 c -0.29655,10.8329 -0.62691,21.87507 2.50061,31.25763 -10.83598,0 -21.67196,0 -32.50794,0"
       id="path3159"
       style="fill:none;stroke:#fa9c0c;stroke-width:1px;stroke-linecap:butt;stroke-linejoin:miter;stroke-opacity:1" />
    <path
       d="m 136.37232,20.336501 c 0,1.694524 0,3.389048 0,5.083571 0,1.30226 -0.9431,8.339939 0,9.283043 1.77002,1.770018 6.1887,1.856367 6.1887,-1.326149"
       transform="translate(203.00666,385.71875)"
       id="path3269"
       style="fill:none;stroke:#fa9c0c;stroke-width:1px;stroke-linecap:butt;stroke-linejoin:miter;stroke-opacity:1" />
    <path
       d="m 132.6149,25.420072 c 3.14719,-0.660995 6.27886,-0.884099 9.50407,-0.884099"
       transform="translate(203.00666,385.71875)"
       id="path3271"
       style="fill:none;stroke:#fa9c0c;stroke-width:1px;stroke-linecap:butt;stroke-linejoin:miter;stroke-opacity:1" />
    <path
       d="m 146.09741,25.862122 c -0.23481,2.136917 -0.1226,14.869964 5.3046,12.156366 3.50936,-1.754682 1.9646,-11.125119 1.98922,-11.051242 1.17944,3.538302 0.36365,9.55161 4.19947,10.830217"
       transform="translate(203.00666,385.71875)"
       id="path3273"
       style="fill:none;stroke:#fa9c0c;stroke-width:1px;stroke-linecap:butt;stroke-linejoin:miter;stroke-opacity:1" />
    <path
       d="m 167.97887,25.199048 c -0.0289,-0.282169 0.57071,-2.081589 0.22103,-2.431274 -7.78327,-7.783264 -5.08358,18.578402 -5.08358,20.776334"
       transform="translate(203.00666,385.71875)"
       id="path3275"
       style="fill:none;stroke:#fa9c0c;stroke-width:1px;stroke-linecap:butt;stroke-linejoin:miter;stroke-opacity:1" />
    <path
       d="m 159.80095,29.398519 c 1.43869,-0.09489 4.56712,-0.221025 5.3046,-0.221025"
       transform="translate(203.00666,385.71875)"
       id="path3277"
       style="fill:none;stroke:#fa9c0c;stroke-width:1px;stroke-linecap:butt;stroke-linejoin:miter;stroke-opacity:1" />
    <path
       d="m 181.24036,27.188271 c -0.29882,-1.619084 0.39859,-3.489221 0,-5.083571 -0.64175,-2.566993 -6.18869,-1.450882 -6.18869,1.547174 0,6.999119 0,13.998239 0,20.997359"
       transform="translate(203.00666,385.71875)"
       id="path3279"
       style="fill:none;stroke:#fa9c0c;stroke-width:1px;stroke-linecap:butt;stroke-linejoin:miter;stroke-opacity:1" />
    <path
       d="m 169.96809,29.398519 c 3.084,0.08191 5.43842,-0.323769 7.73587,0.44205"
       transform="translate(203.00666,385.71875)"
       id="path3281"
       style="fill:none;stroke:#fa9c0c;stroke-width:1px;stroke-linecap:butt;stroke-linejoin:miter;stroke-opacity:1" />
  </g>
</svg>
