<?xml version="1.0" encoding="UTF-8" standalone="no"?>
<!-- Created with Inkscape (http://www.inkscape.org/) -->

<svg
   xmlns:dc="http://purl.org/dc/elements/1.1/"
   xmlns:cc="http://creativecommons.org/ns#"
   xmlns:rdf="http://www.w3.org/1999/02/22-rdf-syntax-ns#"
   xmlns:svg="http://www.w3.org/2000/svg"
   xmlns="http://www.w3.org/2000/svg"
   xmlns:sodipodi="http://sodipodi.sourceforge.net/DTD/sodipodi-0.dtd"
   xmlns:inkscape="http://www.inkscape.org/namespaces/inkscape"
   width="396.65665"
   height="133.31198"
   id="svg4124"
   version="1.1"
   inkscape:version="0.48.3.1 r9886"
   sodipodi:docname="somelove.svg">
  <defs
     id="defs4126" />
  <sodipodi:namedview
     id="base"
     pagecolor="#ffffff"
     bordercolor="#666666"
     borderopacity="1.0"
     inkscape:pageopacity="0.0"
     inkscape:pageshadow="2"
     inkscape:zoom="1.5996094"
     inkscape:cx="234.05891"
     inkscape:cy="6.3751151"
     inkscape:document-units="px"
     inkscape:current-layer="layer1"
     showgrid="false"
     fit-margin-top="70"
     fit-margin-left="250"
     fit-margin-right="100"
     fit-margin-bottom="0"
     inkscape:window-width="1366"
     inkscape:window-height="719"
     inkscape:window-x="0"
     inkscape:window-y="29"
     inkscape:window-maximized="1" />
  <metadata
     id="metadata4129">
    <rdf:RDF>
      <cc:Work
         rdf:about="">
        <dc:format>image/svg+xml</dc:format>
        <dc:type
           rdf:resource="http://purl.org/dc/dcmitype/StillImage" />
        <dc:title></dc:title>
        <cc:license
           rdf:resource="" />
      </cc:Work>
    </rdf:RDF>
  </metadata>
  <g
     inkscape:label="Layer 1"
     inkscape:groupmode="layer"
     id="layer1"
     transform="translate(-92.625,-271.22005)">
    <path
       style="fill:none;stroke:#fa9c0c;stroke-width:0.84937567px;stroke-linecap:butt;stroke-linejoin:miter;stroke-opacity:1"
       d="m 109.80937,327.00657 c -6.14685,-0.74758 -12.774532,9.94605 -7.45508,14.71406 2.01903,1.80973 8.35445,2.46654 10.68174,3.84076 6.50733,3.84246 5.25829,21.2048 -6.35336,15.98125"
       id="path4241"
       inkscape:connector-curvature="0" />
    <path
       style="fill:none;stroke:#fa9c0c;stroke-width:0.84937567px;stroke-linecap:butt;stroke-linejoin:miter;stroke-opacity:1"
       d="m 119.31754,332.31264 c 5.00146,5.19092 1.60789,26.23205 7.67701,29.81574 0.60052,0.3546 3.67735,-22.78138 9.5866,-9.4472 1.20656,2.72259 1.59303,6.18692 2.34056,9.09017"
       id="path4243"
       inkscape:connector-curvature="0" />
    <path
       style="fill:none;stroke:#fa9c0c;stroke-width:0.84937567px;stroke-linecap:butt;stroke-linejoin:miter;stroke-opacity:1"
       d="m 147.5721,348.68808 c -5.50953,-10.30191 -10.85839,13.26408 -1.47189,10.84722 7.09724,-1.82741 -0.40228,-12.66213 1.36738,-12.75889 4.67924,-0.25578 6.26431,7.3832 10.53802,9.30575"
       id="path4245"
       inkscape:connector-curvature="0" />
    <path
       style="fill:none;stroke:#fa9c0c;stroke-width:0.84937567px;stroke-linecap:butt;stroke-linejoin:miter;stroke-opacity:1"
       d="m 159.103,343.78051 c 1.78568,29.78442 8.27208,-17.56413 14.4332,6.36424"
       id="path4247"
       inkscape:connector-curvature="0" />
    <path
       style="fill:none;stroke:#fa9c0c;stroke-width:0.84937567px;stroke-linecap:butt;stroke-linejoin:miter;stroke-opacity:1"
       d="m 184.67086,340.68668 c -10.46921,-9.21188 -8.08495,15.92918 1.23885,7.82298 0.52822,-0.45924 -1.54356,-7.74453 -1.23885,-7.82298 4.60568,-1.18589 2.37176,9.21136 3.55763,13.81703 1.8121,7.03777 3.29875,14.03703 -5.46067,13.42512"
       id="path4249"
       inkscape:connector-curvature="0" />
    <path
       style="fill:none;stroke:#fa9c0c;stroke-width:0.84937567px;stroke-linecap:butt;stroke-linejoin:miter;stroke-opacity:1"
       d="m 184.87123,317.37232 c 0.17268,1.12213 10.8541,30.54856 9.86954,30.80207 -0.39857,0.10258 -0.3494,-13.46428 5.11882,-10.2354 1.10543,0.65273 1.68829,6.55695 2.05968,7.99934"
       id="path4251"
       inkscape:connector-curvature="0" />
    <path
       style="fill:none;stroke:#fa9c0c;stroke-width:0.84937567px;stroke-linecap:butt;stroke-linejoin:miter;stroke-opacity:1"
       d="m 215.59918,335.82488 c -4.97085,-5.73993 -18.24211,4.95296 -10.31382,9.63446 4.2019,2.48113 6.68037,-1.51628 7.52035,-5.42577 0.11672,-0.54322 0.28929,-4.45404 0.42458,-4.37416 3.27506,1.93386 5.53512,10.20576 8.8245,11.6855"
       id="path4253"
       inkscape:connector-curvature="0" />
    <path
       style="fill:none;stroke:#fa9c0c;stroke-width:0.84937567px;stroke-linecap:butt;stroke-linejoin:miter;stroke-opacity:1"
       d="m 225.31206,331.38545 c 0.77888,3.02498 2.80358,10.88847 2.99591,11.63541"
       id="path4255"
       inkscape:connector-curvature="0" />
    <path
       style="fill:none;stroke:#fa9c0c;stroke-width:0.84937567px;stroke-linecap:butt;stroke-linejoin:miter;stroke-opacity:1"
       d="m 223.26326,324.93414 c 0,0 0,0 0,0 z"
       id="path4257"
       inkscape:connector-curvature="0" />
    <path
       style="fill:none;stroke:#fa9c0c;stroke-width:0.84937567px;stroke-linecap:butt;stroke-linejoin:miter;stroke-opacity:1"
       d="m 227.20196,328.18484 c -3.82496,-0.37871 -2.60249,-2.67314 -2.66065,-2.80435"
       id="path4259"
       inkscape:connector-curvature="0" />
    <path
       style="fill:none;stroke:#fa9c0c;stroke-width:0.84937567px;stroke-linecap:butt;stroke-linejoin:miter;stroke-opacity:1"
       d="m 233.85589,309.00527 c 5.22344,11.65028 11.89137,33.18946 20.9517,41.0602 1.92442,1.67175 7.18405,-13.03917 7.64081,-14.46334 1.29045,-4.02355 11.41455,-30.86392 9.72224,-33.05279 -1.59694,-2.06553 -5.60099,-2.7116 -7.80664,-3.9682 -11.48594,-6.54377 -6.3533,7.31353 -10.09859,11.62489 -2.26422,2.60644 -4.647,-5.73045 -7.99086,-6.59001 -5.89038,-1.51413 -14.63044,0.0374 -11.5117,7.58388"
       id="path4261"
       inkscape:connector-curvature="0" />
    <path
       style="fill:none;stroke:#fa9c0c;stroke-width:0.84937567px;stroke-linecap:butt;stroke-linejoin:miter;stroke-opacity:1"
       d="m 289.63015,316.38861 c -6.13557,4.96049 9.80313,25.15044 14.90458,19.27795 5.21464,-6.00279 -0.51311,-22.25006 1.97615,-20.08762 2.16683,1.88232 0.9655,11.97308 2.17625,14.90277 0.85236,2.06246 3.21767,3.75077 5.23749,4.9015 7.9206,4.51254 4.54671,-21.00105 4.28216,-24.76634"
       id="path4263"
       inkscape:connector-curvature="0" />
    <path
       style="fill:none;stroke:#fa9c0c;stroke-width:0.84937567px;stroke-linecap:butt;stroke-linejoin:miter;stroke-opacity:1"
       d="m 326.80903,320.55145 c 0.33333,4.74421 0.66666,9.48841 0.99999,14.23263"
       id="path4265"
       inkscape:connector-curvature="0" />
    <path
       style="fill:none;stroke:#fa9c0c;stroke-width:0.84937567px;stroke-linecap:butt;stroke-linejoin:miter;stroke-opacity:1"
       d="m 326.36166,314.18422 1.55081,0.64383"
       id="path4267"
       inkscape:connector-curvature="0" />
    <path
       style="fill:none;stroke:#fa9c0c;stroke-width:0.84937567px;stroke-linecap:butt;stroke-linejoin:miter;stroke-opacity:1"
       d="m 333.87883,314.03246 c 1.41201,5.0097 -0.4332,27.44805 3.07711,22.3673"
       id="path4269"
       inkscape:connector-curvature="0" />
    <path
       style="fill:none;stroke:#fa9c0c;stroke-width:0.84937567px;stroke-linecap:butt;stroke-linejoin:miter;stroke-opacity:1"
       d="m 341.23199,316.90334 c 1.13235,4.21924 -1.27476,20.10989 3.58934,18.9438"
       id="path4271"
       inkscape:connector-curvature="0" />
    <path
       style="fill:none;stroke:#fa9c0c;stroke-width:0.84937567px;stroke-linecap:butt;stroke-linejoin:miter;stroke-opacity:1"
       d="m 353.50071,325.45113 c 0.21929,3.12119 0.43859,6.24239 0.65788,9.36358"
       id="path4273"
       inkscape:connector-curvature="0" />
    <path
       style="fill:none;stroke:#fa9c0c;stroke-width:0.84937567px;stroke-linecap:butt;stroke-linejoin:miter;stroke-opacity:1"
       d="m 352.89545,316.83664 c -1.27588,-0.008 -2.25159,0.0962 -1.9841,3.90333"
       id="path4275"
       inkscape:connector-curvature="0" />
    <path
       style="fill:none;stroke:#fa9c0c;stroke-width:0.84937567px;stroke-linecap:butt;stroke-linejoin:miter;stroke-opacity:1"
       d="m 365.30187,321.98724 c -4.5227,-1.36449 -7.67126,9.16165 -4.82867,11.63101 5.33887,4.63791 7.20487,-9.95378 7.28645,-8.79257 0.45782,6.51595 6.19053,6.34011 10.96088,6.00495"
       id="path4277"
       inkscape:connector-curvature="0" />
    <path
       style="fill:none;stroke:#fa9c0c;stroke-width:0.84937567px;stroke-linecap:butt;stroke-linejoin:miter;stroke-opacity:1"
       d="m 381.62386,318.5821 c 2.36913,14.41207 -2.06643,13.93506 2.99021,5.05938 5.18345,-9.09822 7.03067,8.99508 6.94618,7.79258 -0.83478,-11.88128 6.78169,-15.60959 11.34768,-4.56121"
       id="path4279"
       inkscape:connector-curvature="0" />
    <path
       style="fill:none;stroke:#fa9c0c;stroke-width:0.84937567px;stroke-linecap:butt;stroke-linejoin:miter;stroke-opacity:1"
       d="m 415.41167,317.33733 -9.01535,0.25702 c -6.47368,7.72309 16.80451,15.38055 1.15788,16.47989"
       id="path4281"
       inkscape:connector-curvature="0" />
    <path
       style="fill:none;stroke:#fa9c0c;stroke-width:0.84937567px;stroke-linecap:butt;stroke-linejoin:miter;stroke-opacity:1"
       d="m 418.48515,296.79622 c 0.26315,3.74543 0.52631,7.49085 0.78946,11.23629 0.3887,5.53221 1.14216,10.89902 1.53242,16.45357 0.0614,0.87393 0.24562,3.49573 0.18421,2.6218 -0.1189,-1.69237 1.48776,-24.7321 9.67755,-17.61758 9.46588,8.22306 -2.7924,12.99351 -9.21792,13.44497"
       id="path4283"
       inkscape:connector-curvature="0" />
    <path
       style="fill:none;stroke:#fa9c0c;stroke-width:0.84937567px;stroke-linecap:butt;stroke-linejoin:miter;stroke-opacity:1"
       d="m 437.89037,310.48848 c -0.80313,3.05688 2.00972,13.05071 7.10406,10.03983 3.50204,-2.06978 0.22894,-13.16505 1.80602,-11.79504 2.78,2.415 4.89409,8.52944 6.78215,10.81523"
       id="path4285"
       inkscape:connector-curvature="0" />
    <path
       style="fill:none;stroke:#fa9c0c;stroke-width:0.84937567px;stroke-linecap:butt;stroke-linejoin:miter;stroke-opacity:1"
       d="m 456.53856,308.04907 c 4.52794,19.15682 1.52239,2.24523 8.16713,-6.97249"
       id="path4287"
       inkscape:connector-curvature="0" />
    <path
       style="fill:none;stroke:#fa9c0c;stroke-width:0.84937567px;stroke-linecap:butt;stroke-linejoin:miter;stroke-opacity:1"
       d="m 476.12618,302.90892 c -6.83091,-2.79822 -7.25567,8.47996 -4.05327,11.95293 6.56289,7.11741 7.33605,-8.08663 7.3654,-7.66895 0.34196,4.86702 2.89476,9.0579 3.22093,13.7002 0.74021,10.5353 -8.13627,15.65604 -15.65798,7.4988"
       id="path4289"
       inkscape:connector-curvature="0" />
    <path
       style="fill:none;stroke:#fa9c0c;stroke-width:0.84937567px;stroke-linecap:butt;stroke-linejoin:miter;stroke-opacity:1"
       d="m 230.0192,357.71561 c 5.4447,-7.88502 9.02088,-15.93808 12.7384,-23.25154"
       id="path4818"
       inkscape:connector-curvature="0" />
    <path
       style="fill:none;stroke:#fa9c0c;stroke-width:0.84937567px;stroke-linecap:butt;stroke-linejoin:miter;stroke-opacity:1"
       d="m 255.1065,320.82127 c 10.09309,-5.92076 16.21561,-16.37634 23.29485,-24.52554"
       id="path4820"
       inkscape:connector-curvature="0" />
    <path
       style="fill:none;stroke:#fa9c0c;stroke-width:0.84937567px;stroke-linecap:butt;stroke-linejoin:miter;stroke-opacity:1"
       d="m 267.73324,295.98068 c 14.87204,-1.10336 17.25856,-3.20492 11.71882,7.69341"
       id="path4822"
       inkscape:connector-curvature="0" />
  </g>
</svg>
