<?xml version="1.0" encoding="UTF-8" standalone="no"?>
<!-- Created with Inkscape (http://www.inkscape.org/) -->

<svg
   xmlns:dc="http://purl.org/dc/elements/1.1/"
   xmlns:cc="http://creativecommons.org/ns#"
   xmlns:rdf="http://www.w3.org/1999/02/22-rdf-syntax-ns#"
   xmlns:svg="http://www.w3.org/2000/svg"
   xmlns="http://www.w3.org/2000/svg"
   xmlns:sodipodi="http://sodipodi.sourceforge.net/DTD/sodipodi-0.dtd"
   xmlns:inkscape="http://www.inkscape.org/namespaces/inkscape"
   version="1.1"
   width="257.22632"
   height="185.27866"
   id="svg2"
   inkscape:version="0.48.3.1 r9886"
   sodipodi:docname="whatwedo.svg">
  <sodipodi:namedview
     pagecolor="#ffffff"
     bordercolor="#666666"
     borderopacity="1"
     objecttolerance="10"
     gridtolerance="10"
     guidetolerance="10"
     inkscape:pageopacity="0"
     inkscape:pageshadow="2"
     inkscape:window-width="714"
     inkscape:window-height="480"
     id="namedview8458"
     showgrid="false"
     inkscape:zoom="1.2737571"
     inkscape:cx="128.61316"
     inkscape:cy="92.639328"
     inkscape:window-x="249"
     inkscape:window-y="81"
     inkscape:window-maximized="0"
     inkscape:current-layer="svg2" />
  <defs
     id="defs4" />
  <metadata
     id="metadata7">
    <rdf:RDF>
      <cc:Work
         rdf:about="">
        <dc:format>image/svg+xml</dc:format>
        <dc:type
           rdf:resource="http://purl.org/dc/dcmitype/StillImage" />
        <dc:title></dc:title>
      </cc:Work>
    </rdf:RDF>
  </metadata>
  <text
     sodipodi:linespacing="125%"
     style="font-size:40px;font-style:normal;font-weight:normal;line-height:125%;letter-spacing:0px;word-spacing:0px;fill:#000000;fill-opacity:1;stroke:none;font-family:Sans"
     xml:space="preserve"
     id="text2985"
     y="2.2340858"
     x="-4.9120059"><tspan
       id="tspan2987"
       y="2.2340858"
       x="-4.9120059" /></text>
  <path
     inkscape:connector-curvature="0"
     style="fill:none;stroke:#fa9c0c;stroke-width:1px;stroke-linecap:butt;stroke-linejoin:miter;stroke-opacity:1"
     id="path3153"
     d="m 80.10875,109.76033 c -3.59441,30.97696 12.24995,71.2674 37.50915,71.2674" />
  <path
     inkscape:connector-curvature="0"
     style="fill:none;stroke:#fa9c0c;stroke-width:1px;stroke-linecap:butt;stroke-linejoin:miter;stroke-opacity:1"
     id="path3159"
     d="m 113.86699,153.52102 c -0.29655,10.8329 -0.62691,21.87507 2.50061,31.25763 -10.83598,0 -21.67196,0 -32.50794,0" />
  <path
     style="fill:none;stroke:#fa9c0c;stroke-width:1px;stroke-linecap:butt;stroke-linejoin:miter;stroke-opacity:1"
     d="m 11.036487,25.540028 c -0.608333,3.414962 0.875297,4.360504 2.904339,6.389545 3.927383,3.927383 13.359958,10.53013 13.359958,0.580868 0,-1.742603 0,-3.485206 0,-5.227809 0,-0.387246 -0.387246,-1.161736 0,-1.161736 0.309137,0 9.874751,18.987938 9.874751,2.323471 0,-1.936226 0,-3.872452 0,-5.808677 0,-2.129849 0,-4.259697 0,-6.389545"
     id="path8491"
     inkscape:connector-curvature="0" />
  <path
     style="fill:none;stroke:#fa9c0c;stroke-width:1px;stroke-linecap:butt;stroke-linejoin:miter;stroke-opacity:1"
     d="m 45.888551,6.9522607 c 0,4.2596963 0,8.5193933 0,12.7790903 0,3.097961 0,6.195922 0,9.293884 0,1.355358 0,5.421432 0,4.066074 0,-3.226681 -1.023163,-6.869172 1.742603,-8.713016 2.067389,-1.378259 5.13545,-1.161736 7.551281,-1.161736 8.688993,0 8.132148,4.138884 8.132148,11.617355"
     id="path8493"
     inkscape:connector-curvature="0" />
  <path
     style="fill:none;stroke:#fa9c0c;stroke-width:1px;stroke-linecap:butt;stroke-linejoin:miter;stroke-opacity:1"
     d="m 85.387557,27.282632 c -2.982935,-0.711718 -5.59139,-1.112972 -8.132148,0.580867 -5.31201,3.54134 -3.145995,14.642522 4.066074,11.036487 2.687459,-1.343729 2.964524,-11.617354 4.066074,-11.617354 0.558292,0 4.310798,16.264296 10.45562,16.264296"
     id="path8495"
     inkscape:connector-curvature="0" />
  <path
     style="fill:none;stroke:#fa9c0c;stroke-width:1px;stroke-linecap:butt;stroke-linejoin:miter;stroke-opacity:1"
     d="m 103.97532,22.63569 c 1.97213,3.945126 -1.26966,14.413768 1.74261,17.426032 1.1916,1.191604 9.08252,0 11.03649,0"
     id="path8497"
     inkscape:connector-curvature="0" />
  <path
     style="fill:none;stroke:#fa9c0c;stroke-width:1px;stroke-linecap:butt;stroke-linejoin:miter;stroke-opacity:1"
     d="m 97.58578,31.348706 c 4.71733,-2.299605 10.41222,-2.904339 15.68343,-2.904339"
     id="path8499"
     inkscape:connector-curvature="0" />
  <path
     style="fill:none;stroke:#fa9c0c;stroke-width:1px;stroke-linecap:butt;stroke-linejoin:miter;stroke-opacity:1"
     d="m 143.47433,29.606102 c -0.76468,5.089757 1.48055,8.949705 3.48521,13.359958 11.75652,25.86434 6.11461,-0.886806 13.94082,-8.713016 2.68408,-2.684076 7.65918,10.56352 9.29389,12.198223 0.60878,0.608778 5.55495,-0.07343 5.80867,-0.580868 1.12081,-2.241621 1.74261,-5.08289 1.74261,-7.55128 0,-1.584438 0.58087,-2.564948 0.58087,-4.066075"
     id="path8501"
     inkscape:connector-curvature="0" />
  <path
     style="fill:none;stroke:#fa9c0c;stroke-width:1px;stroke-linecap:butt;stroke-linejoin:miter;stroke-opacity:1"
     d="m 187.62028,46.451267 c 4.14029,-1.047799 12.32057,2.201122 15.68343,-1.161736 4.13751,-4.137508 -7.06637,-9.649145 -11.61736,-8.132148 -3.97114,1.323714 -3.05358,2.936581 -3.4852,6.389545 -1.4749,11.799202 6.91246,13.359958 16.84516,13.359958"
     id="path8503"
     inkscape:connector-curvature="0" />
  <path
     style="fill:none;stroke:#fa9c0c;stroke-width:1px;stroke-linecap:butt;stroke-linejoin:miter;stroke-opacity:1"
     d="m 56.925038,48.774738 c 0,8.713016 0,17.426032 0,26.139048 0,1.936226 0,3.872452 0,5.808677 0,0.387245 0.387245,1.161736 0,1.161736 -0.580868,0 0.259772,-1.22306 0,-1.742603 C 56.55597,79.403459 53.98303,77.199587 53.439832,76.656389 52.024025,75.240582 41.397726,64.570684 40.079874,68.524241 c -1.378748,4.136244 -4.441837,18.997977 -2.323471,23.234709 1.451304,2.902608 14.148939,6.077376 16.264297,2.904339 2.95314,-4.42971 2.32347,-8.572514 2.32347,-13.940826"
     id="path8505"
     inkscape:connector-curvature="0" />
  <path
     style="fill:none;stroke:#fa9c0c;stroke-width:1px;stroke-linecap:butt;stroke-linejoin:miter;stroke-opacity:1"
     d="m 82.483219,74.332918 c -10.385364,-8.889489 -15.825828,14.66785 -12.779091,15.683429 0.946659,0.315553 19.531647,1.96046 20.330371,1.161736 1.845011,-1.845011 0.938966,-11.482026 0,-13.359958 -2.516854,-5.033709 -5.211449,-2.315291 -7.55128,-3.485207 -1.009812,-0.504906 -1.161736,-1.936226 -1.742604,-2.904338"
     id="path8507"
     inkscape:connector-curvature="0" />
</svg>
